/* XPM */
static char *_681_1856208b864bf1f2d0c39754957dec1f3e764fcfc5af90b10597d15063efe498[] = {
/* columns rows colors chars-per-pixel */
"64 64 205 2 ",
"   c #0F110D",
".  c #12140F",
"X  c #1C110D",
"o  c #13180D",
"O  c #120F12",
"+  c #1C0F15",
"@  c #0F1214",
"#  c #131212",
"$  c #1B1114",
"%  c #141913",
"&  c #1B1913",
"*  c #1A1C1B",
"=  c #230F0D",
"-  c #230E11",
";  c #291915",
":  c #11350E",
">  c #0E261B",
",  c #11251C",
"<  c #2E2316",
"1  c #182D23",
"2  c #1A3226",
"3  c #242E2A",
"4  c #372825",
"5  c #23332C",
"6  c #253631",
"7  c #353330",
"8  c #53110D",
"9  c #511B14",
"0  c #73130F",
"q  c #4A1E2C",
"w  c #721838",
"e  c #45332D",
"r  c #533034",
"t  c #593D34",
"y  c #682E24",
"u  c #0C4907",
"i  c #0C4B09",
"p  c #104E0A",
"a  c #095F03",
"s  c #086905",
"d  c #077004",
"f  c #19740C",
"g  c #1F7515",
"h  c #216E15",
"j  c #297A15",
"k  c #347E1B",
"l  c #1A4435",
"z  c #18563F",
"x  c #19593F",
"c  c #2B463B",
"v  c #234D3D",
"b  c #255039",
"n  c #484D3B",
"m  c #5B4339",
"M  c #684639",
"N  c #704333",
"B  c #486E2F",
"V  c #175940",
"C  c #225C45",
"Z  c #2C5844",
"A  c #315947",
"S  c #176547",
"D  c #1E6449",
"F  c #1A6C4D",
"G  c #17714F",
"H  c #177551",
"J  c #187753",
"K  c #187954",
"L  c #22624A",
"P  c #286D52",
"I  c #5D4D48",
"U  c #654D44",
"Y  c #6B4A42",
"T  c #6B5B48",
"R  c #7B5D52",
"E  c #436851",
"W  c #7B6142",
"Q  c #78765A",
"!  c #98150D",
"~  c #9C1410",
"^  c #A2130B",
"/  c #AF120A",
"(  c #B31306",
")  c #B2120A",
"_  c #BD130E",
"`  c #B10F11",
"'  c #B31214",
"]  c #BF1A11",
"[  c #B31219",
"{  c #B41323",
"}  c #B8142D",
"|  c #AB1532",
" . c #BD1639",
".. c #90223A",
"X. c #BB3B27",
"o. c #C2130F",
"O. c #C31411",
"+. c #CA1413",
"@. c #C11419",
"#. c #CC1C1B",
"$. c #D31716",
"%. c #D31719",
"&. c #D51A1D",
"*. c #DB1B1E",
"=. c #CC241D",
"-. c #D3211F",
";. c #DD1D22",
":. c #D3193B",
">. c #E51C24",
",. c #E81B25",
"<. c #D62524",
"1. c #C83D29",
"2. c #DB3A2D",
"3. c #E32325",
"4. c #E52728",
"5. c #E42A2A",
"6. c #E5312E",
"7. c #E53D35",
"8. c #E93E37",
"9. c #814C3C",
"0. c #DE4235",
"q. c #C4593A",
"w. c #E4443A",
"e. c #E84B3E",
"r. c #E94E3E",
"t. c #E6513E",
"y. c #EB553E",
"u. c #EA5C3E",
"i. c #E8663F",
"p. c #971A4C",
"a. c #BD1744",
"s. c #A81B50",
"d. c #B81A55",
"f. c #C1164D",
"g. c #C2175A",
"h. c #C71958",
"j. c #C5195B",
"k. c #D41B5C",
"l. c #E01F5A",
"z. c #CC235B",
"x. c #D83451",
"c. c #E53154",
"v. c #CC1960",
"b. c #D01F60",
"n. c #EA1E64",
"m. c #EB1D69",
"M. c #DF2162",
"N. c #E12061",
"B. c #B46C4A",
"V. c #836663",
"C. c #C64741",
"Z. c #D65146",
"A. c #E64E40",
"S. c #E94D41",
"D. c #E55B46",
"F. c #ED5B43",
"G. c #F05C41",
"H. c #D26945",
"J. c #DA7349",
"K. c #DF7B51",
"L. c #E76A49",
"P. c #F46342",
"I. c #FB7243",
"U. c #F67947",
"Y. c #F97B47",
"T. c #E46E54",
"R. c #37821F",
"E. c #3C8122",
"W. c #3E8925",
"Q. c #538A2D",
"!. c #528D2E",
"~. c #63912F",
"^. c #659530",
"/. c #76AC3F",
"(. c #1F8259",
"). c #7AAD4B",
"_. c #A0AE39",
"`. c #A38258",
"'. c #84B545",
"]. c #A2B441",
"[. c #92996A",
"{. c #AC9C69",
"}. c #F6804B",
"|. c #F7955D",
" X c #C59F6F",
".X c #EB9567",
"XX c #F29E67",
"oX c #EC9D70",
"OX c #EBA36B",
"+X c #F2A972",
"@X c #E6BA7C",
"#X c #F8B87E",
"$X c #97C443",
"%X c #ACD048",
"&X c #BFD046",
"*X c #92C166",
"=X c #F9C97F",
"-X c #EFBD83",
";X c #D2D894",
":X c #F4CB83",
">X c #EDD38C",
",X c #F7D991",
"<X c #EBEA99",
"1X c #F9E595",
"2X c #F8F39C",
/* pixels */
"K K K K K K K K K K K K K K K K K K K K K K K K K K K K K K K K (.(.(.(.K K K K K K K K K K K K K K K K K K K K K K K K K K K K ",
"(.K (.K (.K (.K (.K (.K K K K K K K K K K K (.K K K K K K K K K (.(.(.(.K K K K K K K K K K K K K K K K K K K K K K K K K K (.K ",
"K K K K K K K K K K K K K K K K K K K K K K K K K K K K K K K K (.(.(.(.K K K K K K K K K K K K K K K K K K K K K K K K K K K (.",
"K (.K (.K (.K K (.K (.K K K K K K K K K K (.K K K K K K K K K K (.(.(.(.K K K K K K K K K K K K K K K K K K K K K K K K K (.K K ",
"K K K K K K K K K K K K K K K K K K K K K K K K K K K K K K K K K K (.K K K K K K K K K K K K K K K K K K K K K K K K K K K K (.",
"(.K (.K K K K K K (.K (.K K K K K K K K K K K K K K K K K K K K K K K K K K K K K K K K K K K K K K K K K K K K K K K K K (.K K ",
"K K K K K K K K K K K K K (.K K K K K K K K K K K K K K K K K K K K K K K K K K K K K K K K K K K K K K K K K K K K K K K K K (.",
"K (.K K K K K K K K K (.K K K K K K K K K K K K K K K K K K K K K K K K K K K K K K K K K K K K K K K K K K K K K K K K K K K K ",
"K K K K K K K K K K K K K (.K K K K K K K K K K K K K K K K K K K K (.K K K K K K (.K K K K K K K K K K K K K K K K K K K K K K ",
"(.K (.K K K K K K K K K K K (.K K K K K K K K K K K K K K K K K K K K K K K K K K K K K K K K K K K K K K K K K K K K K K K K K ",
"K K K K K K K K K K K K K K K K (.K K K K K K K K K K K K K K K K K (.K (.K (.K (.K K K K K K K K K K K (.K (.K K K K K K K K K ",
"K (.(.K K K K K K K K K (.K (.(.K K (.K (.K K K K J J J J K K K K K K K K 2 @ # o % > K K K K K K (.K (.K K K K K K K K K K K K ",
"(.(.(.(.K K K K K K K K K (.(.(.K K K (.(.(.(.(.Z O # # * J J K K K 3 O @ _.$X)./.'.B l J K K K K (.(.(.K K K K K K K K K K K K ",
"(.(.(.(.K K K K K K K K (.(.(.(.K (.K K (.(.(.(.l * R t e c K K 6 6 ].'.~.~.j k W.h 2 G K K K K (.(.(.(.(.K K K K K K K K K K K ",
"(.(.(.(.K K K K K K K K (.(.(.(.(.K K (.(.(.(.(.K F 4 R M 3 K 1 &X*X^.!.k W.Q.k s p , K K K K J (.(.(.(.K K K K K K K K K K K K ",
"(.(.(.(.K K K K K K K K (.(.(.(.(.K K K (.(.(.(.K H A U R 7 z % %X).E.Q.k k k g u : C K K K K K (.(.(.(.K K K K K K K K K K K K ",
"K (.K (.K K K K K K K K (.(.(.(.K K K K K K (.K (.K G A e m 4 # R.Q.R.j j d a u Z D K K K K K K (.(.(.(.K K K K K K K K K K K K ",
"(.K K K K K K K K K K K (.(.(.(.(.K K K K K K K K K K G S < M . !.f f d d s o b J K K K K K K K (.(.(.(.K K K K K K K K K K K K ",
"K K (.K (.K K K K K K K (.(.(.(.(.K K K K K K G P K F K H & R ; B d d d a u c x K K K K K K K K (.(.(.(.K K K K K K K K K K K K ",
"K K K K K K K K K K K K (.(.(.(.K K K K K D D E N y m L L 9 I t , i i : < 8 C L D L D K K K K K (.(.(.(.K K K K K K K K K K K K ",
"K K K K K K K K K K K (.K (.K (.K K J J K , $ W |.I.q.$ X ! . Y e $ # $ 0 ^ ; . O + , J K K K K (.(.(.(.K K K K K K (.K K K K K ",
"K K K K K K K K K (.K K K K K K K (.K G v  XU.P.A.A.G.=.^ ~ = V.M & ! ^ =.' / / :.l.p.l G K K K (.(.(.(.K K K K K K K K K K K K ",
"K K K K K K K K K K K (.K (.K (.K K K , [.|.t.t.S.A.L.`.$ ( ) X Y r $ @ B.X.) ) ) [ g.w * K K K (.(.(.(.K K K K K (.K (.K K (.K ",
"K K K K K K K K K (.K K K K K K K K 2 ;XOXi.t..X1X>X0.H.@X= - # m # O J.1./ ) ) ( ) } j.z.6 K K (.(.(.(.(.(.K (.K K K K K K K K ",
"K K K K K K K K K K K (.K K K K K K 5 :X|.y.,X2X,X#Xw.o.] L.^ = = <.;./ ) ) ) _ o._ [ g.d.3 K K K (.(.(.(.(.(.(.K (.K (.K K K K ",
"K K K K K K K K K K K K K K K K J $ ;XY.F.A.1X1XL.;.4.t.r.e.o.O._ o.) ) _ O.O.o.O.o.) } j.b.O K K K (.(.(.(.(.(.(.K K K K K K K ",
"K K K K K K K K K K K K K K K K K . :XU.F.A.D.A.6.>.3.4.5.5.7.0.7.o.o._ <.0.<.$.O.O._ ' { d.# K K K K (.(.(.(.(.K K (.K K K K K ",
"K K K K K K K K K K K K K K K K K   J.P.F.S.>.>.>.>.>.>.>.,.<.3.e.w.w.w.6.3.>.&.O.o._ ) ) s.# K K K (.K (.(.(.(.(.K K K K K K K ",
"K K K K K K K K K K K K K K K K x T L.i.u.w.D.0.>.>.>.>.>.>.>.>.7.7.8.7.6.,.>.*.+._ O.) / s.y x K K K K (.K (.K K K K K K K K K ",
"K K K K K K K K K K K K K K K K & <XU.t.w.T.1XXX>.>.>.>.,.>.>.>.,.>.>.>.;.3.>.>.%.O.O._ / :.c.$ K (.K (.K K K K K K K K K K K K ",
"K K K K K K K K K K K K K K K K o <X}.t.6.#X2XoX,.>.>.>.>.>.>.3.,.,.>.>.>.>.>.>.%.O.O._ ) ' m.$ K K K K K (.K K K K K K K K K K ",
"K K K K K K K K K K K K K K K K , 1X}.t.6.-X2X+X,.>.>.>.>.>.>.>.>.>.>.>.>.>.>.>.%.O.O._ ) [ N.$ K K K (.K K K K K K K K K K K K ",
"K K K K K K K K K K K K K K K K & =XY.r.6.-X1X+X6.>.>.>.>.>.>.>.>.>.>.>.>.>.>.>.%.o.o.) / } n.+ K K (.K K K K K K K K K K K K K ",
"K K K K K K K K K K K K K K K K & =XY.t.6.XX=X=XL.,.>.>.>.>.>.>.>.>.>.>.>.>.>.>.$.o._ / ` g.n.+ K K K K K K K K K K K K K K K K ",
"K K K K K K K K K K K K K K K K & =XY.r.S.4.#X=XL.,.>.>.>.>.>.>.>.>.>.>.>.>.,.$.O.O._ ) ` g.M.; K K (.K K K K K K K K K K K K K ",
"K K K K K K K K K K K K K K K K (.$ J.y.S.4.;.F.F.>.>.>.>.>.>.>.>.>.>.>.>.>.>.&.o._ / ) [ k.. J K K K K K K K K K K K K K K K K ",
"(.K K K K K K K K K K K K K K K K # @XI.u.4.,.>.>.,.>.>.>.>.>.>.>.>.>.>.>.>.+.o.O._ / } h.b.# J K K K J K K K K K K K K K K K K ",
"(.(.(.(.K K K K K K K K K K K K J o ;XU.F.t.3.,.>.>.>.>.>.>.>.>.,.>.>.>.>.>.+.o._ ) { g.h.C.# J K K K K K K K K K J K K J K K K ",
"(.(.(.(.(.K K K K K K K K K K K K J 5 =X|.u.>.>.>.>.>.>.>.>.>.>.>.>.>.>.,.+.O.o.) ' g.b.n.3 (.K K K K K K J K K K K K K K K K K ",
"(.(.(.(.(.K K K K K K K K K K K K K 2 >X|.u.>.>.>.>.>.>.>.>.>.>.>.>.,.>.*.+.o._ ) [ g.j.n.2 K K K K K K K K K K K K K K K K (.K ",
"(.(.(.(.(.(.K K K K K K K K K K K K F n {.T.=.#.,.,.>.>.>.>.>.>.>.>.>.%.O.O._ )  .a.v.s.q F K K K K K K K K K K K K K K K K K K ",
"(.(.(.(.(.(.K K K K K K K K K K K (.K 1 Q H.=.-.*.>.>.>.>.>.>.>.>.*.*.O.O.O.) ` a.g.k...% K K K K K K K K K K K K K K K K K (.K ",
"(.(.(.(.(.K K K K K K K K K K K K K K K V 9.K.Z.$.*.>.>.>.3.>.*.&.o.O._ ) { | :.k.k.z.M l J K K K K K K K K K K K K K K K K K K ",
"(.(.(.(.K (.K K K K K K K K K K K K K K K V Q B.2.+.$.$.$.$.$.+.O._ _ ) { f.g.j.l.x.r S K K K K K K K K K K K K K K K K K K (.K ",
"K (.K (.K K K K K K K K K K K K K K K K K K 5 N 1.[ @.o.o.O.O._ ] ) / '  .j.h.h.x.q.2 K K K K K K K K K K K K K K K K K K K K K ",
"K K (.K K K (.K K K K K K K K K K K K K K K K L 6 7 s.! / / ) ' [ ' [ h.d.d.C.9.5 c K K K K K K K K K K K K K K K K K K (.K (.K ",
"K (.K K (.K K K (.K K K K K K K K K K K K K K K K F # 8 / ) ) g.h.g.d.m.w # . v J K K K K K K K K K K K K K K K K K K K K K K (.",
"K K K K K K (.K K (.K K K K K K K K K K K K K K K K K C X X & + + $ + + P G J J K K K K K K K K K K K K K K K (.K (.K (.K (.K K ",
"K K K K K K K (.(.(.(.(.K K K K K K K K K K K K K K K K K K (.K K K K K K K K K K K K K K K K K K K K K K K K K K K K K K K (.K ",
"K K K K K K K K (.(.(.(.K K K K K K K K K K K K K K K K K K K K K K K K K K K K K K K K K K K K K K K J K K K K K K (.K (.K K K ",
"K K K K K K K K (.(.(.(.K K K K K K K K K K K K K K K K K K K K K K K K K K K K K K K K K K K K K K K K K K K K K K K K K (.K (.",
"K K K K K K K K (.(.(.(.(.K K K K K K K K K K K K K K K K K K K K K K K K K K K K K K K K K K K K K K K K K K K K (.K K (.K K K ",
"K K K K K K K K (.(.(.(.(.(.K K K K K K K K K K K K K K K K K K K K K K K K K K K K K K K J K K K K K K K K K K K K K K K K (.K ",
"K K K K K K K K (.(.(.(.(.(.K K K K K K K K K K K K K K K K K K K K K K K K K K K K K K K K K K K K K K K K K K K K K K K K K K ",
"K K K K K K K K (.(.(.(.(.K K K K K K K K K K K K K K K K K K K K K K K K K K K K K K K K K K K K K K K K K K K K K K K K (.K (.",
"K K K K K K K K (.(.(.(.K (.K K K K K K K K K K K K K K K K K K K K K K K K K J K K K K K K K K K K K K K K K K K K K K K K K K ",
"K K K K K K K K K K (.K K K K K K K K K K K K K K K K K K K K K K K K K K K K K K K K K K K K K K K K K K K K K K K K K K K K K ",
"K K K K K K K K K (.K K (.K (.K K K K K K K K K K K K K K K K K K K K K K K K K K K K K K K K K K K K K K K K K K K K K K K K K ",
"K K K K K K K K K K K (.K K K K K K K K K K K K K K K K K K K K K K K K K K K K K K K K K K K K K K K K K K K K K K K K K K K K ",
"K (.K K K K K K K (.K K K K (.K (.K K K K K K K K K K K K K K K K K K K K K K K K K K K K K K K K K K K K K K K (.K (.K K K K K ",
"K K K K K K K K K K K (.K (.K K (.(.(.K K K K K K K K K K K K K K K K K K K K K K K K K K K K K K K K K K K K K K K K K K K K K ",
"K (.K (.K K K K K K (.K K K K (.(.(.(.(.K K K K K K K K K K K K (.(.(.(.(.K K K K K K K K K K K K K K K K K (.K (.K (.K (.K K K ",
"K K K K K (.K (.K K K K (.K (.(.(.(.(.(.K K K K K K K K K K K (.(.(.(.(.K K K K K K K K K K K K K K K K K K K K K K K K K (.K (.",
"K (.K (.K K K K (.K (.K K (.(.(.(.(.(.(.K K K K K K K K K K (.K (.(.(.(.(.K (.K (.K K (.K (.K K K K K K K K K (.K (.K (.K K K K "
};
