/* XPM */
static char *_3599_b3d641f88323126cf69fe168ebe0552ca12f9452a43737a1f6b25e82a755b178[] = {
/* columns rows colors chars-per-pixel */
"64 64 197 2 ",
"   c #263F37",
".  c #263F38",
"X  c #1E4337",
"o  c #1C4738",
"O  c #1B4B3A",
"+  c #1C523E",
"@  c #224137",
"#  c #244339",
"$  c #2B423B",
"%  c #224B3D",
"&  c #2A4A3E",
"*  c #34433D",
"=  c #1C5641",
"-  c #1A5D44",
";  c #254F40",
":  c #2B4D42",
">  c #344D45",
",  c #394944",
"<  c #3A4A44",
"1  c #235443",
"2  c #2D5345",
"3  c #215C46",
"4  c #2C5847",
"5  c #255D49",
"6  c #2D5C4B",
"7  c #36564A",
"8  c #3C554C",
"9  c #355B4E",
"0  c #3D5C51",
"q  c #196146",
"w  c #17674A",
"e  c #1B6549",
"r  c #176C4C",
"t  c #1A6B4D",
"y  c #17714F",
"u  c #19704F",
"i  c #1D6E50",
"p  c #177451",
"a  c #187552",
"s  c #187954",
"d  c #1F7F58",
"f  c #23644C",
"g  c #29624D",
"h  c #20694D",
"j  c #356251",
"k  c #3B6354",
"l  c #346C56",
"z  c #257757",
"x  c #377B61",
"c  c #4A4742",
"v  c #414D4A",
"b  c #594745",
"n  c #43524E",
"m  c #4A5552",
"M  c #455A53",
"N  c #4A5854",
"B  c #595453",
"V  c #525D5A",
"C  c #6D4849",
"Z  c #725052",
"A  c #45665A",
"S  c #47665A",
"D  c #4B655C",
"F  c #53615D",
"G  c #58625E",
"H  c #566761",
"J  c #5A6662",
"K  c #536D63",
"L  c #5B6A65",
"P  c #5C7069",
"I  c #5A786C",
"U  c #606A67",
"Y  c #626D69",
"T  c #64736E",
"R  c #68726F",
"E  c #6D7572",
"W  c #6D7975",
"Q  c #6F7E79",
"!  c #707976",
"~  c #747D7A",
"^  c #7D7F7D",
"/  c #8E5054",
"(  c #A2575D",
")  c #AB5C62",
"_  c #B75C63",
"`  c #986D71",
"'  c #887979",
"]  c #B3686E",
"[  c #C6756E",
"{  c #C4787B",
"}  c #1F8259",
"|  c #358465",
" . c #388768",
".. c #3B8A6B",
"X. c #558B75",
"o. c #668478",
"O. c #75827E",
"+. c #79817E",
"@. c #D49171",
"#. c #DEA87A",
"$. c #E1B07C",
"%. c #BC7F83",
"&. c #C77D82",
"*. c #7D8582",
"=. c #7D8A85",
"-. c #639983",
";. c #669C86",
":. c #779387",
">. c #6BA18B",
",. c #828986",
"<. c #858D8A",
"1. c #86908C",
"2. c #89908D",
"3. c #90938B",
"4. c #8E9593",
"5. c #889C93",
"6. c #919795",
"7. c #939996",
"8. c #959C99",
"9. c #999E9B",
"0. c #B89698",
"q. c #8CA79B",
"w. c #9CA19F",
"e. c #A4A49A",
"r. c #B8AF9A",
"t. c #9EA3A1",
"y. c #91ADA1",
"u. c #9AB5A9",
"i. c #A2A6A4",
"p. c #A4AAA7",
"a. c #A8ABA7",
"s. c #A7ABA9",
"d. c #AAADAB",
"f. c #B5A9A9",
"g. c #ADB1AF",
"h. c #AEB3B1",
"j. c #A1BCB1",
"k. c #B2B6B4",
"l. c #B6BAB7",
"z. c #BABCBA",
"x. c #C9878A",
"c. c #CB8D91",
"v. c #CD999A",
"b. c #D1979B",
"n. c #DBB495",
"m. c #E2BB89",
"M. c #E2BB97",
"N. c #D09DA1",
"B. c #D4A7A9",
"V. c #CEBDA0",
"C. c #D6B0AD",
"Z. c #D8B4B7",
"A. c #D4BCBC",
"S. c #BDC1BE",
"D. c #D6C3A5",
"F. c #C9C4BC",
"G. c #E2C9AB",
"H. c #BFC2C0",
"J. c #C3C4C2",
"K. c #C6C9C6",
"L. c #C8C9C7",
"P. c #C7CBCA",
"I. c #CCCDCB",
"U. c #D7C2C3",
"Y. c #D6CBCA",
"T. c #D9CFCD",
"R. c #CDD1CE",
"E. c #D0D1CF",
"W. c #DCD2CB",
"Q. c #CED1D2",
"!. c #D4D4D3",
"~. c #D9D6D3",
"^. c #D7D8D7",
"/. c #D8D8D6",
"(. c #D6D9DA",
"). c #DCDCDB",
"_. c #E6C8C8",
"`. c #E6D6C7",
"'. c #E6DAD8",
"]. c #EEDBDB",
"[. c #DFE0DF",
"{. c #E0E0DF",
"}. c #EEE2DC",
"|. c #DFE1E1",
" X c #E4E4E3",
".X c #E9E6E5",
"XX c #E9E8E7",
"oX c #E7E8E8",
"OX c #ECECEB",
"+X c #F2E6E5",
"@X c #F1EAEA",
"#X c #F1F0EF",
"$X c #EFF0F0",
"%X c #F3F3F3",
"&X c #FAF4F4",
"*X c #F7F7F8",
"=X c #FAFAFA",
/* pixels */
"s s s s s s s s s s s s s s s s s s s s s s s s s s s s s s s s } } } } s s s s s s s s s s s s s s s s s s s s s s s s s s s s ",
"} s } s } s } s } s } s s s s s s s s s s p } s s s s s s s s s } } } } s s s s s s s s s s s s s s s s s s s s s s s s s s } s ",
"s s s s s s s s s s s s s s s s s s s s s s s s s s s s s s s s } } } } s s s s s s s s s s s s s s s s s s s s s s s s s s s } ",
"s } s } s } s s } s } s s s s s s s s s s } s s s s s s s s s s } } } } s s s s s s s s s s s s s s s s s s s s s s s s s } s s ",
"s s s s s s s s s s s s s s s s s s s s s s s s s s s s s s s s s s } s s s s s s s s s s s s s s s s s s s s s s s s s s s s } ",
"} s } s s s s s s } s } s s s s s s s s s s s s s s s s s s s s s s s s s s s s s s s s s s s s s s s s s s s s s s s s s } s s ",
"s s s s s s s s s s s s s } s s s s s s s s s s s s s s s s s s s s } s s s s s s s s s s s s s s s s s s s s s s s s s s s s } ",
"s } s s s s s s s s s } s s s s s s s s s s s s s s s s s s s s s s s s s s s s s s s s s s s s s s s s s s s s s s s s s s s s ",
"s s s s s s s s s s s s s } s s s s s s s s s s s s s s s s s s s s } s s s s s s } s s s s s s s s s s s s s s s s s s s s s s ",
"} s } s s s s s s s s s s s } s s s s s s s s s s s s s s s s s s s s s s s s s s s s s s s s s s s p s s s s s s s s s s s s s ",
"s s s s s s s s s s s s s s s s } s s s s s s s s s s s s s s s s s } s } s } s } s s s s s s s s s s s } s } s s s s s s s s s ",
"s } } s s s s s s s s s } s } } s s } s } s s s s s s a s a a s s s s s s s s s s s s s s s s s s } s } s s s s s s s s s s s s ",
"} } } } s s s s s s s s s } } } s s s } } } } } s s s p a r t i y s s s s } s } s s s s s s s s s } } } s s s s s s s p s s s s ",
"} } } } s s s s s s s s } } } } s } s s } } } } s s a a e - = - r p s s s s s s s s s s s s s s } } } } } s s s s s s s s s s s ",
"} } } } s s s s s s s s } } } } } s s } } } } } } s a r - % % = q u a s s } s s s s s s s s s s } } } } s s s s s s s s s s s s ",
"} } } } s s s s s s s s } } } } } s s a d d d z a a t e 1 $ * # - t u a u u a a s s s s s s s s } } } } s s s s s s s s s s s s ",
"s } s } s s s s s s s s } } } } s s s s a t e - e - - 1 < c b c 2 3 - - - q e i a s s s s s s s } } } } s s s s s s s s s s s s ",
"} s s s s s s s s s s s } } } } } s s a t - + O X X ; > b C C C c : O o O O = q r s s s s s s s } } } } s s s s s s s s s s s s ",
"s s } s } s s s s s s s } } } } } s s u e 1 & # . . . , C / / Z b < . . . # ; - r s s s s s s s } } } } s s s s s s s s s s s s ",
"s s s s s s s s s s s s } } } } s p r t g 7 8 n n n B m / ( ) ( Z B N n n n 0 6 f t p p a s s s } } } } s s s s s s s s s s s s ",
"s s s s s s s s s s s } s } s } r t q 5 j K T ! ~ +.^ %.] _ _ ) ` ' *.O.! W P A 6 3 q r p s s s } } } } s s s s s s } s s s s s ",
"s s s s s s s s s } s s s s s a r q = 2 D O.7.p.h.k.h.0.%._ _ { c.f.h.h.d.t.<.T 0 1 = e a s s s } } } } s s s s s s s s s s s s ",
"s s s s s s s s s s s } s } s z e 1 : 8 T 7.z.E.).|.).U.b.&.{ &.C.W.[.|.(.L.s.*.H > ; - i s s s } } } } s s s s s } s } s s } s ",
"s s s s s s s s s } s s a p r t g 9 M L ,.d.R.oX&X*X@X].Z.b.c.N._..X*X*X$X[.H.9.W H 0 6 f t r s } } } } } } s } s s s s s s s s ",
"s s s s s s s s s s s } a t q 5 j K Q <.s.J.{.#X=X=X=X@X_.Z.Z._.].&X=X=X=XOX!.l.8.*.T A 6 3 q r p } } } } } } } s } s } s s s s ",
"s s s s s s p s s s s p r - + > S ~ 9.k.L.).XX%X*X=X*X&X+X].].].@X%X*X*X*X$X X!.H.s.1.P 8 ; = e p s } } } } } } } s s s s s s s ",
"s s s s s s s s s s s s r = o > F ,.h.E. XXX$X$XOXoX XoX@X@X@XOXXX XoXOX$X$XOX.X).L.9.E 8 # O q p s s } } } } } s s } s s s s s ",
"s s s s s s s s s s s s r + X * V <.l.).OX#X%XOX(.L.H.L.(.oX$X X!.H.H.Q. X$X%X@X.XI.i.W v . O q p s } s } } } } } s s s s s s s ",
"s s s s s s s s s s s s r + X $ V ,.l.).OX%X$X|.H.i.4.w.H.[.oXQ.h.6.6.g.I.OX%X%X.XI.i.E <   O - p s s s } s } s s s s s s s s s ",
"s s s s s s s s s s s p r + X , G <.z./.@X%X$X(.p.^ U ~ i.Q.|.H.4.Y Y 2.z. X%X%X XI.i.W n $ O - y } s } s s s s s s s s s s s s ",
"s s s s s s s s s s y y t 5 > M R 7.H.).$X*X$XE.9.Y m J 7.P.(.k.+.m N ~ h. X%X%X X!.d.,.G 8 4 f t u p s s } s s s s s s s s s s ",
"s s p s s s s s s y w q g A K W 4.d.I. X%X*X$XQ.7.V < V 6.P.(.k.! < v W h. X%X%XOX).S.i.*.T D j g e r s s s s s s s s s s p s s ",
"s s s s s s s s a r = 1 9 P =.t.l.R.[.OX*X=X$XR.7.G < G 4.P.(.k.~ v v ! h. X*X*X%X X(.L.d.7.Q D 4 = e r s s s s s s s s s s s s ",
"s s s s s s s s i q O & M W w.S.!.{.OX$X=X=X$XQ.w.R m U 8.P.^.k.*.N V ^ k. X*X*X*XOX X).I.k.2.L > & = e a s s s s s s s s s s s ",
"s s s s s s s s r - o $ m ~ d.R. X#X$X*X=X=X$X[.g.,.R +.e.F.W.V.3.E E 7.J.oX*X=X*X%X%XOX[.J.6.U , @ + e y s s s s s s s s s s s ",
"s s s s s s s s u - o . m ~ d.Q.XX#X%X*X=X=X%X XL.g.8.w.V.D.D.V.r.8.t.l.!.OX*X=X*X%X%XOX XJ.6.U , @ + e a s s s s s s s s s s s ",
"d s s s s s s s u - o $ m ~ a.E.oX#X%X%X=X*X%XOX{.!.L.F.M.m.m.M.D.J.I.). X$X*X*X*X%X#XOX'.J.6.U , @ O w p s s s s s s s s s s s ",
"} } } } s s s s u - O $ m ~ a.Y. XXX#X#X#X%X%X%X#XOX}.`.M.$.m.m.G.'.oX#X%X%X*X%X$X$XOXOX).H.6.U , # + e p s s s s s s s s s s s ",
"} } } } } s s s r - o . m ~ d.R.{. X XoXXX$X%X*X*X%XOX`.n.#.@.$.G.+X$X%X%X%X$XOXOX X XoX).J.7.U , @ O w a s s s s s s s s s s s ",
"} } } } } s s s u - o . m ~ d.E.{.[././.[.OX$X%X%X$X}._.n.@.@.c.C.'.OX&X*X%XOXoX[./.).[.[.J.8.U , @ + w a s s s s s s s s s } s ",
"} } } } } } s s u - o $ m ~ s.I./.!.R.I.^. XOX%X$XOX).A.v.@.[ x.C.T. XOX%X%XOX[.!.I.E.^.!.F.4.L , # + e p s s s s s s s s s s s ",
"} } } } } } s s u q + & M W 9.l.J.J.H.K.R.{.OXOXOX X~.A.N.&.&.x.B.Y.{.oXOXOX X/.L.J.J.J.J.h.<.L > O + t p s s s s s s s s s } s ",
"} } } } } s s s a e - 1 9 K O.7.i.g.l.H.!.). XXXXX{./.U.B.c.c.N.A.T.). XoX X X/.P.F.k.p.9.2.W A 6 = q r p s s s s s s s s s s s ",
"} } } } s d s s a a e e g k D R +.8.g.F.R./.). X X)./.T.U.A.Z.S.Y.W.).{. X X).!.L.z.i.1.W L A j f e r p s s s s s s s s s s } s ",
"s } s d s s s s s s p a h 5 2 n J *.t.l.L.E./.).).)./.~.W.W.E.E.T.^.).).)./.^.I.J.h.6.E V > 1 f i a a s s s s s s s s s s s s s ",
"s s } s s s } s s s s s t - + : M R 2.i.k.J.I.!.~.!.!.^.^././.^./.!.!.!.!.E.L.z.d.8.+.H 7 % = e a s s s s s s s s s s s } s } s ",
"s } s s } s s s } a s s a t - 1 9 D R *.7.g.F.I.I.I.R.R.!.^.[.!.!.E.I.I.Y.L.z.i.2.~ L A 2 = q r a s s s s s s s s s s s s s s } ",
"s s s s s s } s s } s s p y t e f 9 M L ~ 9.k.J.L.J.L.I.R.^.!.[.I.L.K.K.K.S.d.1.E V 8 g f t r p s s s s s s s } s } s } s } s s ",
"s s s s s s s } } } } } s s p a e 1 : 8 T ,.p.S.S.S.S.S.H.P.R.H.S.S.k.S.S.h.8.~ F > 2 - r p p s s s s s s s s s s s s s s s } s ",
"s s s s s s s s } } } } s s s a r - + > S o.5.q.q.y.q.q.u.j.j.j.u.y.y.y.y.q.:.I 0 ; = q p s s s s s s s s s s s s s } s } s s s ",
"s s s s s s s s } } } } s s s a y e - 3 l X.X.-.-.-.-.;.>.>.>.>.;.-.-.-.-.-.X.x j - q r p s s s s s s s s s s s s s s s s } s } ",
"s s s s s s s s } } } } } s s s a a a i z z | |  . . . ........... . . .| | x z a i a p a s s s s s s s s s s s s } s s } s s s ",
"s s s s s s s s } } } } } } s s s s s s s s s s } } s } s s s } } s s } d s d s d a a s s s s s s s s s s s s s s s s s s s } s ",
"s s s s s s s s } } } } } } s s s s s s s s s s s s s s s s s s s s s s s s a s a s s s s s s s s s s s s s s s s s s s s s s s ",
"s s s s s s s s } } } } } s s s s s s s s s s s s s s s s s s s s s s s s s s s s s s s s s s s s s s s s s s s s s s s s } s } ",
"s s s s s s s s } } } } s } s s s s s s s s s s s s s s s s s s s s s s s s s s s s s s s s s s s s s s s a s s s s s s s s s s ",
"s s s s s s s s s s } s s s s s s s s s s s s s s s s s s s s s s s s s s s s s s s s s s s s s s s s s s s s s s s s s s s s s ",
"s s s s s s s s s } s s } s } s s s s s s s s s s s s s s s s s s s s s s s s s s s s s s s s s s s s s s s s s s s s s s s s s ",
"s s s s s s s s s s s } s s s s s s s s s s s s s s s s s s s s s s s s s s s s s s s s s s s s s s s s s s s s s s s s s s s s ",
"s } s s s s s s s } s s s s } s } s s s s s s s s s s s s s s s s s s s s s s s s s s s s s s s s s s s s s s s } s } s s s s s ",
"s s s s s s s s s s s } s } s s } } } s s s s s s s s s s s s s s s s s s s s s s s s s s s s s s s s s s s s s s s s s s s s s ",
"s } s } s s s s s s } s s s s } } } } } s s s s s s s s s s s s } } } } } s s s s s s s s s s s s s s s s s } s } s } s } s s s ",
"s s s s s } s } s s s s } s } } } } } } s s s s s s s s s s s } } } } } s s s s s s s s s s s s s s s s s s s s s s s s s } s } ",
"s } s } s s s s } s } s s } } } } } } } s s s s s s s s s s } s } } } } } s } s } s s } s } s s s s s s s s s } s } s } s s s s "
};
