/* XPM */
static char *_4565_7b1417e7c980bf77a320bb78e0ad5c993fb61307ae3f0f9b4aa5d12e9a24efc2[] = {
/* columns rows colors chars-per-pixel */
"64 64 198 2 ",
"   c #233E36",
".  c #194536",
"X  c #1E4639",
"o  c #1C4A3A",
"O  c #1B523E",
"+  c #244339",
"@  c #2B423B",
"#  c #28473C",
"$  c #254A3D",
"%  c #34433C",
"&  c #3C4A3D",
"*  c #23543F",
"=  c #5A4F3D",
"-  c #5E5C3D",
";  c #645E3D",
":  c #1C5540",
">  c #1A5B43",
",  c #1F5F48",
"<  c #274C40",
"1  c #2A4E41",
"2  c #384A44",
"3  c #3B4A45",
"4  c #235342",
"5  c #2B5344",
"6  c #225C46",
"7  c #275C47",
"8  c #2D5E4C",
"9  c #365449",
"0  c #3B524A",
"q  c #325E4E",
"w  c #345F50",
"e  c #3E5B51",
"r  c #196146",
"t  c #1A6549",
"y  c #176C4B",
"u  c #1A6C4D",
"i  c #17724F",
"p  c #19704F",
"a  c #177451",
"s  c #197552",
"d  c #187954",
"f  c #24624C",
"g  c #27684C",
"h  c #31614F",
"j  c #2E704B",
"k  c #3A754C",
"l  c #356151",
"z  c #207A54",
"x  c #444942",
"c  c #414E4B",
"v  c #584744",
"b  c #42524D",
"n  c #565247",
"m  c #4A5653",
"M  c #445D55",
"N  c #4B5955",
"B  c #4F5C59",
"V  c #5A5B55",
"C  c #525D5A",
"Z  c #7B4A4C",
"A  c #745F57",
"S  c #466442",
"D  c #5E6F44",
"F  c #446358",
"G  c #456459",
"H  c #55625E",
"J  c #726B48",
"K  c #4E6B60",
"L  c #5A6662",
"P  c #5D6A65",
"I  c #596C65",
"U  c #5E726B",
"Y  c #646965",
"T  c #646E6B",
"R  c #63736D",
"E  c #69726F",
"W  c #76706A",
"Q  c #6B7471",
"!  c #6B7974",
"~  c #6A7B75",
"^  c #717A77",
"/  c #747D7A",
"(  c #974F55",
")  c #95585B",
"_  c #AC555D",
"`  c #856943",
"'  c #977447",
"]  c #886E57",
"[  c #A7784C",
"{  c #B75C64",
"}  c #8B786D",
"|  c #8D7D6C",
" . c #967E78",
".. c #A9696D",
"X. c #BE656B",
"o. c #CD7E6B",
"O. c #C67478",
"+. c #1F8259",
"@. c #79817E",
"#. c #B48259",
"$. c #B0896A",
"%. c #D3956B",
"&. c #CE8D70",
"*. c #E0AD72",
"=. c #C97A80",
"-. c #7D8582",
";. c #7E8A86",
":. c #828986",
">. c #878A87",
",. c #838B89",
"<. c #8A928F",
"1. c #949289",
"2. c #8D9491",
"3. c #8F9895",
"4. c #939795",
"5. c #939996",
"6. c #959C99",
"7. c #9B9E9C",
"8. c #AB9C95",
"9. c #9BA09E",
"0. c #B7A08D",
"q. c #B5AF9F",
"w. c #B7B19F",
"e. c #9DA3A1",
"r. c #A1A6A3",
"t. c #A5A9A6",
"y. c #ABACA6",
"u. c #A7ACAA",
"i. c #AAAEAB",
"p. c #BEA1A0",
"a. c #ADB0AE",
"s. c #BCB5AB",
"d. c #AEB1B0",
"f. c #B3B5B3",
"g. c #B6B8B7",
"h. c #BDB8B5",
"j. c #B6B9B8",
"k. c #BBBDBC",
"l. c #C8858A",
"z. c #D39689",
"x. c #CB9699",
"c. c #D39798",
"v. c #D8AA88",
"b. c #D1AF93",
"n. c #D4B798",
"m. c #E3BB86",
"M. c #E5BF95",
"N. c #CD9FA5",
"B. c #C3B6AC",
"V. c #D7BEA8",
"C. c #CFB3B3",
"Z. c #D3B4B5",
"A. c #D8BABB",
"S. c #E1BABE",
"D. c #BDC0BF",
"F. c #DFC399",
"G. c #C1C1BF",
"H. c #D9C8B8",
"J. c #E7CDBC",
"K. c #E9D2BA",
"L. c #DDBFC2",
"P. c #BEC2C1",
"I. c #C3C5C3",
"U. c #C6C8C7",
"Y. c #C8C9C7",
"T. c #C7CACA",
"R. c #CCCDCB",
"E. c #D5C5C4",
"W. c #D6CDC8",
"Q. c #CFD0CE",
"!. c #D4D1CD",
"~. c #D9D2CE",
"^. c #CFD2D2",
"/. c #D4D5D3",
"(. c #D9D5D3",
"). c #D7D8D7",
"_. c #D8D8D7",
"`. c #D7D9D9",
"'. c #DBDCDB",
"]. c #E9D1C7",
"[. c #E8D9D8",
"{. c #DFE0DF",
"}. c #E0E0DE",
"|. c #EDE6DF",
" X c #EEDEE0",
".X c #DEE0E1",
"XX c #E4E4E3",
"oX c #ECE7E4",
"OX c #E7E8E8",
"+X c #EBECEC",
"@X c #F1E4E5",
"#X c #F1EEEE",
"$X c #EFF0EF",
"%X c #F3EFF0",
"&X c #EFF0F0",
"*X c #F3F3F4",
"=X c #FAF5F6",
"-X c #FCFBFB",
/* pixels */
"d d d d d d d d d d d d d d d d d d d d d d d d d d d d d d d d +.+.+.+.d d d d d d d d d d d d d d d d d d d d d d d d d d d d ",
"+.d +.d +.d +.d +.d +.d d d d d d d d d d d +.d d d d d d d d d +.+.+.+.d d d d d d d d d d d d d d d d d d d d d d d d d d d d ",
"d d d d d d d d d d d d d d d d d d d d d d d d d d d d d d d d +.+.+.+.d d d d d d d d d d d d d d d d d d d d d d d d d d d +.",
"d +.d +.d +.d d +.d +.d d d d d d d d d d +.d d d d d d d d d d +.+.+.+.d d d d d d d d d d d d d d d d d d d d d d d d d +.d d ",
"d d d d d d d d d d d d d d d d d d d d d d d d d d d d d d d d d d +.d d d d d d d d d d d d d d d d d d d d d d d d d d d d +.",
"+.d +.d d d d d d +.d +.d d d d d d d d d d d d d d d d d d d d d d d d d d d d d d d d d d d d d d d d d d d d d d d d d +.d d ",
"d d d d d d d d d d d d d +.d d d d d d d d d d d d d d d d d d d d +.d d d d d d d d d d d d d d d d d d d d d d d d d d d d +.",
"d +.d d d d d d d d d +.d d d d d d d d d d d d d d d d d d d d d d d d d d d d d d d d d d d d d d d d d d d d d d d d d d d d ",
"d d d d d d d d d d d d d +.d d d d d d d d d d d d d s a a a a d d +.d d d d d d +.d d d d d d d d d d d d d d d d d d d d d d ",
"+.d +.d d d d d d d d d d d +.d d d d d d d d d d d d a p u u p s s d d d d d d d d d d d d d d d d d d d d d d d d d d d d d d ",
"d d d d d d d d d d d d d d d d +.d d d d d d d d d s u , : > , u d +.d +.d +.d +.d d d d d d d d d d d +.d +.d d d d d d d d d ",
"d +.+.d d d d d d d d d +.d +.+.d d +.d +.d d d d d a t : < < 4 t s d d d d d d d d d d d d d d d +.d +.d d d d d d d d d d d d ",
"+.+.+.+.d d d d d d d d d +.+.+.d d d +.z z d d s p u 6 < % % 1 f u a u a z s d d d d d d d d d d +.+.+.d d d d d d d d d d d d ",
"+.+.+.+.d d d d d d d d +.+.+.+.d +.d d z u f > > > : 9 x v v x 5 > > > > > r p d d d d d d d d +.+.+.+.+.d d d d d d d d d d d ",
"+.+.+.+.d d d d d d d d +.+.+.+.+.d d d u 6 < < X X < x v Z Z v = # . . o : : y s d d d d d d d +.+.+.+.d d d d d d d d d d d d ",
"+.+.+.+.d d d d d d d d +.+.+.+.+.d d u g 5 < @     3 v ( ( ( Z x % @   @ < 4 f p d d d d d d d +.+.+.+.d d d d d d d d d d d d ",
"d +.d +.d d d d d d d d +.+.+.+.d u u g h l B N m B V A ) _ _ ) A V B m m M e l g u a s d d d d +.+.+.+.d d d d d d d d d d d d ",
"+.d d d d d d d d d d d +.+.+.+.s t > h l R / -.;.;.>. ...{ .... .>.,.;.-./ U l h > t a s d d d +.+.+.+.d d d d d d d d d d d d ",
"d d +.d +.d d d d d d d +.+.+.z u > < e U ,.r.f.k.P.h.x.=.{ X.=.p.h.k.k.d.e.;.I 9 : > t s d d d +.+.+.+.d d d d d d d d d d d d ",
"d d d d d d d d d d d d +.+.+.z t $ + b ! e.I.'.XXXX[.A.c.=.=.c.L.[.OXXX`.P.7.T 0 + O t s d d d +.+.+.+.d d d d d d d d d d d d ",
"d d d d d d d d d d d +.d +.d d > X   c ^ u.).+X-X-X%X[.Z.c.c.A.[.=X-X=X+X/.r.E 3   o t a d d d +.+.+.+.d d d d d d +.d d d d d ",
"d d d d d d d d d +.d d d d d s t o   c / d.'.=X-X-X=X@X].S.S.].@X-X-X-X*X`.t.E 3   o t d d d d +.+.+.+.d d d d d d d d d d d d ",
"d d d d d d d d d d d +.d +.d z > o + m -.f..X=X-X=X*X#X X X XoX#X*X-X-X*X'.i.^ 0 + o r s d d d +.+.+.+.d d d d d +.d +.d d +.d ",
"d d d d d d d d d +.d d d s a u t 5 0 P ,.P.XX&X+X.X.X X@X%X$XOXXX'.XX&X&X.Xg.:.L 9 5 t t a d d +.+.+.+.+.+.d +.d d d d d d d d ",
"d d d d d d d d d d d +.a y r 6 l G R ,.u.R.XXXX^.k.g.I..X&X+X`.I.g.P./.OXOXT.r.-.U F h f t y a d +.+.+.+.+.+.+.d +.d +.d d d d ",
"d d d d d d d d d d d a u r : 5 G ! 3.i.Y.XXOX).i.2.:.9.P.XX.XP.5.:.4.g.`.OX.XI.u.<.R l 4 O r a d d +.+.+.+.+.+.+.d d d d d d d ",
"d d d d d d d d d d d a t > $ 0 P 2.f.Q.XX+XOXU.4.T L -.f.`.).i./ H Q 7.Q.+X+X.XR.a.,.L 9 $ > t a d d +.+.+.+.+.d d +.d d d d d ",
"d d d d d d d d d a y y f q e L @.r.Y.}.&X*XOXP.:.B 0 E u.).^.e.T c H 2.T.+X=X+X'.I.9./ H e q g u a +.d +.+.+.+.+.d d d d d d d ",
"d d d d d d d d a y , 6 l K ! ;.7.j.!.XX*X*XOXP.:.m 3 T u././.9.L 3 B <.T.+X*X&X}.!.f.5.-.R G h , r u d +.d +.d d d d d d d d d ",
"d d d d d d d d a r : 1 M ~ 5.i.D.R._.}.+X*XOXP.:.N c E u.`.!.e.Y c C 2.T.+X*X+X}./.R.k.u.2.! e < > t d d d d d d d d d d d d d ",
"d d d d d d d d u > o < C -.i.T.).'.'.}.+X*XOXU.4.Y C / i.(.W.t.^ C E 6.^.+X*X+X}.'.'./.U.t./ m @ o > a d +.d d d d d d d d d d ",
"d d d d d d d d u > X % C ,.f.`.XXXXXXOX+X*X+X/.u.:.@.1.s.H.H.y.>.@.,.d.`.&X&X+XXXXXXXXX^.a.-.N @ X > z d d d d d d d d d d d d ",
"d d d d d d d d t > X % C :.g._.OX+X+X+X*X*X&X.XT.a.y.w.F.F.F.V.q.i.j.R.XX&X*X*X+XOX+XXX).i.@.N % X r u d d d d d d d d d d d d ",
"d d d d d d d d a : X @ C :.f.).oX+X+X%X*X*X*X$XXX{.!.H.F.*.m.F.H.(.'.OX$X&X*X*X&X+X+XXX/.i./ m @ X > p d d d d d d d d d d d d ",
"d d d d d d d d u > X @ C :.f.).XX+X+X&X&X*X*X*X*X$X|.K.n.*.*.M.K.oX%X*X*X*X*X&X+X+XoXXX/.i./ m @ X r s d d d d d d d d d d d d ",
"d d d d d d d d y : X % B :.f.`.XXXX.XXXOX&X*X=X*X*X|.J.v.%.%.v.].oX*X=X*X&X$X+XXXXXXXXX/.i.-.N @ X > u d d d d d d d d d d d d ",
"+.d d d d d d d y : X @ C ;.g./.'._./.`.XXOX*X*X*X+X}.H.z.o.o.c.J.}.+X*X*X*X+X'.)./._.'./.i.-.m @ X > p d d d d d d d d d d d d ",
"+.+.+.+.d d d d a > + < B ;.d.U./.R.T.R.`.XX+X&X+X}.~.Z.l.O.O.x.Z.(.XX$X&X&XXX/.R.T.Q./.U.u./ m @ o > p d d d d d d d d d d d d ",
"+.+.+.+.+.d d d a r : 1 B / 6.f.j.k.B.R./.XX+X+XOX[.~.Z.N.=.=.N.Z.(.{.OX+XOX{./.I.k.k.j.i.3.! e 5 O r a d d d d d d d d d d d d ",
"+.+.+.+.z d d d a t , 7 l K / ,.6.u.j.T./.'.XXOXOX.X`.H.C.N.N.C.E.(.{.XXOXXX{.!.I.f.t.5.,.! K w 6 r y s d d d d d d d d d d +.d ",
"+.+.+.+.+.+.d d d a t u h q M P / 5.d.I.!.`.'..X[.'.).~.E.A.H.E.~._.'.}.XX'.).!.P.i.2.^ L e q f t a a a d d d d d d d d d d d d ",
"+.+.+.+.+.+.d d d d d s u > 1 0 L ;.r.j.I.!.(._.(.~.~.~.~./.~./.).)._._._./.R.I.f.9.@.H 0 1 , t d a d d d d d d d d d d d d +.d ",
"+.+.+.+.+.d d d d d d d t > : 1 M R ,.7.i.I.Q.W.H.H.H.H.~.'.{.'.).)./.)./.W.k.i.6.-.U e 1 : r u d d d d d d d d d d d d d d d d ",
"+.+.+.+.d +.d d d d d d s y > 6 q M P / 5.i.I.E.H.b.v.n.H.[.{.)./.R.R.Q.R.I.i.<.^ P M 8 , r y a d d d d d d d d d d d d d d +.d ",
"d +.d +.d d d d d d d d d a u u 6 5 0 H / 7.f.B.b.&.%.v.V.~.(./.T.I.I.I.G.f.6.^ C 0 7 6 u a s d d d d d d d d d d d d d d d d d ",
"d d +.d d d +.d d d d d d d d a t : < 0 T ,.8.8.$.#.#.$.0.B.G.G.B.B.s.B.a.9.-.H 0 $ : t s d d d d d d d d d d d d d d d +.d +.d ",
"d +.d d +.d d d +.d d d d d d a t > : 9 G R / } ] ` ` ] | 1.6.8.0.0.0.1.>.@.R F 5 O r y s d d d d d d d d d d d d d d d d d d +.",
"d d d d d d +.d d z d d d d d d a p t f l M C C = = = n V Y W } $.$.$.} W V e 8 , t y a d d d d d d d d d d d +.d +.d +.d +.d d ",
"d d d d d d d +.+.+.+.+.d d d d d d i g f 5 2 % %     = % 3 n J ' [ [ J n 2 5 , y a d d d d d d d d d d d d d d d d d d d d +.d ",
"d d d d d d d d +.+.+.+.d d d d d d d i r * $ + + X     + + & - ` ' ` ; 3 < : t a d d d d d d d d d d d d d d d d d +.d +.d d d ",
"d d d d d d d d +.+.+.+.d d d d d d d i t > : O o : o : O O 5 S D D D S 7 * > y a d d d d d d d d d d d d d d d d d d d d +.d +.",
"d d d d d d d d +.+.+.+.+.d d d d d d d s u y t y r y y t t u j +.S k j g t u a d d d d d d d d d d d d d d d d d +.d d +.d d d ",
"d d d d d d d d +.+.+.+.+.+.d d d d d d d i d d a s s d a s s s +.z z z d a d d d d d d d d d d d d d d d d d d d d d d d d +.d ",
"d d d d d d d d +.+.+.+.+.+.d d d d d d d d d d d d d d d d d d z z d s d d d d d d d d d d d d d d d d d d d d d d d d d d d d ",
"d d d d d d d d +.+.+.+.+.d d d d d d d d d d d d d d d d d d d d d d d d d d d d d d d d d d d d d d d d d d d d d d d d +.d +.",
"d d d d d d d d +.+.+.+.d +.d d d d d d d d d d d d d d d d d d d d d d d d d d d d d d d d d d d d d d d d d d d d d d d d d d ",
"d d d d d d d d d d +.d d d d d d d d d d d d d d d d d d d d d d d d d d d d d d d d d d d d d d d d d d d d d d d d d d d d d ",
"d d d d d d d d d +.d d +.d +.d d d d d d d d d d d d d d d d d d d d d d d d d d d d d d d d d d d d d d d d d d d d d d d d d ",
"d d d d d d d d d d d +.d d d d d d d d d d d d d d d d d d d d d d d d d d d d d d d d d d d d d d d d d d d d d d d d d d d d ",
"d +.d d d d d d d +.d d d d +.d +.d d d d d d d d d d d d d d d d d d d d d d d d d d d d d d d d d d d d d d d +.d +.d d d d d ",
"d d d d d d d d d d d +.d +.d d +.+.+.d d d d d d d d d d d d d d d d d d d d d d d d d d d d d d d d d d d d d d d d d d d d d ",
"d +.d +.d d d d d d +.d d d d +.+.+.+.+.d d d d d d d d d d d d +.+.+.+.+.d d d d d d d d d d d d d d d d d +.a +.d +.d +.d d d ",
"d d d d d +.d +.d d d d +.d +.+.+.+.+.+.d d d d d d d d d d d +.+.+.+.+.d d d d d d d d d d d d d d d d d d d d d d d d d +.d +.",
"d +.d +.d d d d +.d d d d +.+.+.+.+.+.+.d d d d d d d d d d +.d +.+.+.+.+.d +.d +.d d +.d +.d d d d d d d d d +.d +.d +.d d d d "
};
