/* XPM */
static char *_8977_a3bf223bb57637d432bfce36aa72a68dad7bb25a056df7db5796ff64cafc5e1c[] = {
/* columns rows colors chars-per-pixel */
"64 64 193 2 ",
"   c #243E36",
".  c #1C4437",
"X  c #1E4639",
"o  c #1C4A3A",
"O  c #1C513E",
"+  c #234339",
"@  c #26473B",
"#  c #2C443C",
"$  c #244C3E",
"%  c #32433D",
"&  c #3A463C",
"*  c #2E593F",
"=  c #5C543D",
"-  c #68603D",
";  c #1B5641",
":  c #1A5C44",
">  c #2F4740",
",  c #2B4D41",
"<  c #324640",
"1  c #364D44",
"2  c #3C4944",
"3  c #215642",
"4  c #2C5345",
"5  c #225B46",
"6  c #245D48",
"7  c #2F5A4B",
"8  c #355347",
"9  c #3D534C",
"0  c #335E4E",
"q  c #196146",
"w  c #1A6549",
"e  c #176A4B",
"r  c #1A6C4D",
"t  c #17724F",
"y  c #19704F",
"u  c #177350",
"i  c #197552",
"p  c #187954",
"a  c #25624C",
"s  c #256B4A",
"d  c #39744C",
"f  c #356152",
"g  c #386153",
"h  c #217953",
"j  c #474942",
"k  c #414D4A",
"l  c #5C4946",
"z  c #41534D",
"x  c #585348",
"c  c #4B5653",
"v  c #455E55",
"b  c #4E5E59",
"n  c #5B5C53",
"m  c #525E5B",
"M  c #704E4A",
"N  c #476441",
"B  c #446156",
"V  c #476258",
"C  c #49635A",
"Z  c #49685D",
"A  c #56605D",
"S  c #667244",
"D  c #79635C",
"F  c #526D63",
"G  c #5B6864",
"H  c #5D6965",
"J  c #5F716A",
"K  c #626764",
"L  c #636D6A",
"P  c #746E69",
"I  c #65736E",
"U  c #677771",
"Y  c #6D7B76",
"T  c #6E7E78",
"R  c #747B79",
"E  c #747D7A",
"W  c #804B4E",
"Q  c #9A555A",
"!  c #AF565F",
"~  c #856845",
"^  c #977347",
"/  c #896E58",
"(  c #AA794D",
")  c #B47E51",
"_  c #B75C64",
"`  c #8C7A6E",
"'  c #8E7E6D",
"]  c #AD6C70",
"[  c #CD7E6D",
"{  c #C57276",
"}  c #1F8259",
"|  c #7A817F",
" . c #B5835A",
".. c #9D837E",
"X. c #AB8667",
"o. c #B58B6D",
"O. c #D3946B",
"+. c #CF9A72",
"@. c #DFAB71",
"#. c #E0AC72",
"$. c #CA7B82",
"%. c #7C8481",
"&. c #818784",
"*. c #828986",
"=. c #858C8A",
"-. c #8A8F8B",
";. c #918F8C",
":. c #86918D",
">. c #89918E",
",. c #939389",
"<. c #8D9492",
"1. c #919795",
"2. c #939A97",
"3. c #959B99",
"4. c #999E9C",
"5. c #A7998B",
"6. c #A79D98",
"7. c #9CA09F",
"8. c #B7A18D",
"9. c #9EA3A1",
"0. c #A1A6A4",
"q. c #A4A9A7",
"w. c #AAABA5",
"e. c #A6ABA8",
"r. c #ABAEAC",
"t. c #ADB1AE",
"y. c #BAB3A1",
"u. c #BCB5AD",
"i. c #AFB2B1",
"p. c #B3B5B3",
"a. c #B6B9B6",
"s. c #B6BAB8",
"d. c #BABBB9",
"f. c #C68488",
"g. c #D4988C",
"h. c #CB8E90",
"j. c #CC9A9E",
"k. c #D4989E",
"l. c #D9AA8A",
"z. c #D4B798",
"x. c #E2BB81",
"c. c #E4BC91",
"v. c #CD9FA5",
"b. c #D49BA0",
"n. c #C3A2A3",
"m. c #C3B6AC",
"M. c #D7BDA7",
"N. c #D0AFB3",
"B. c #C3BDBB",
"V. c #D6B8B8",
"C. c #E0B6B6",
"Z. c #BEC1BF",
"A. c #DFC398",
"S. c #C1C1BF",
"D. c #DACCB6",
"F. c #D8C7B8",
"G. c #E7CCBB",
"H. c #E9D4BC",
"J. c #DFBFC3",
"K. c #E3BEC3",
"L. c #BEC2C1",
"P. c #C3C5C3",
"I. c #C6C8C6",
"U. c #C8C9C6",
"Y. c #C6C9C8",
"T. c #CCCDCB",
"R. c #D5C5C4",
"E. c #D6CDC8",
"W. c #CFD0CF",
"Q. c #D4D2CE",
"!. c #D9D2CE",
"~. c #CDD0D0",
"^. c #D4D5D3",
"/. c #D9D5D2",
"(. c #D7D8D6",
"). c #D8D8D7",
"_. c #D6D9D9",
"`. c #DCDCDB",
"'. c #E8D7D6",
"]. c #E0E0DF",
"[. c #DFE1E1",
"{. c #E4E4E3",
"}. c #EDE4E1",
"|. c #E7E8E7",
" X c #E7E8E8",
".X c #EBECEB",
"XX c #F1E7E8",
"oX c #EFF0EF",
"OX c #EFF1F1",
"+X c #F0F0F0",
"@X c #F3F3F3",
"#X c #F9F2F4",
"$X c #FCFCFC",
/* pixels */
"p p p p p p p p p p p p p p p p p p p p p p p p p p p p p p p p } } } } p p p p p p p p p p p p p p p p p p p p p p p p p p p p ",
"} p } p } p } p } p } p p p p p p p p p p p } p p p p p p p p p } } } } p p p p p p p p p p p p p p p p p p p p p p p p p p } p ",
"p p p p p p p p p p p p p p p p p p p p p p p p p p p p p p p p } } } } p p p p p p p p p p p p p p p p p p p p p p p p p p p } ",
"p } p } p } p p } p } p p p p p p p p p p } p p p p p p p p p p } } } } p p p p p p p p p p p p p p p p p p p p p p p p p } p p ",
"p p p p p p p p p p p p p p p p p p p p p p p p p p p p p p p p p p } p p p p p p p p p p p p p p p p p p p p p p p p p p p p } ",
"} p } p p p p p p } p } p p p p p i p p p p p p p p p p p p p p p p p p p p p p p p p p p p p p p p p p p p p p p p p p p } p p ",
"p p p p p p p p p p p p p } p p p p p p p p p p p p p p p p p p p p } p p p p p p p p p p p p p p p p p p p p p p p p p p p p } ",
"p } p p p p p p p p p } p p p p p p p p p p p p p p p p p p p p p p p p p p p p p p p p p p p p p p p p p p p p p p p p p p p p ",
"p p p p p p p p p p p p p } p p p p p p p p p p p p p i i i y i p p h p p p p p p } p p p p p p p p p p p p p p p p p p p p p p ",
"} p } p p p p p p p p p p p } p p p p p p p p p p p p y r w w r i p p p p p p p p p p p p p p p p p p p p p p p p p p p p p p p ",
"p p p p p p p p p p p p p p p p } p p p p p p p p p i r q 3 3 : r p } p } p } p } p p p p p p p p p p p } p } p p p p p p p p p ",
"p } } p p p p p p p p p } p } } p p } p } p p p p p y q 3 , + , w i p p p p i p p p p p p p p p p } p } p p p p p p p p p p p p ",
"} } } } p p p p p p p p p } } } p p p } h h i i r y r 5 % & & 2 6 r y r y i u p p p i p p p p p p } } } p p p p p p p p p p p p ",
"} } } } p p p p p p p p } } } } p } p i i r 6 : ; ; ; 1 j l l j 1 3 ; ; ; : w e i p p p p p p p } } } } } p p p p p p p p p p p ",
"} } } } p p p p p p p p } } } } } p p h r 6 , . . . > j M W M M j @ X . X 3 ; w u p p p p p p p } } } } p p p p p p p p p p p p ",
"} } } } p p p p p p p p } } } } } i i y a 4 > > # > 2 l W Q Q M l 2 % # > > , a y i p p p p p p } } } } p p p p p p p p p p p p ",
"p } p } p p p p p p p p } } } } p y r a f B C G A G m D Q _ ! Q D K G m m b g 0 a r r p p p p p } } } } p p p p p p p p p p p p ",
"} p p p p p p p p p p p } } } } i : : 0 Z U %.*.=.<.;...] _ _ _ ..-.=.<.=.%.U Z f : q r i p p p } } } } p p p p p p p p p p p p ",
"p p } p } p p p p p p p } } } h r ; @ 9 I >.e.s.P.Y.B.v.$._ { 8.n.B.Y.P.s.e.-.L 9 3 ; w i p p p } } } } p p p p p p p p p p p p ",
"p p p p p p p p p p p p } } } h q 3 # k Y 0.Y.[. XXX].K.b.$.$.b.K.}..X X`.Y.9.U k + o : i p p p } } } } p p p p p p p p p p p p ",
"p p p p p p p p p p p } p } p h : o   z R e.).@X$X$X#X'.C.k.k.V.'.#X$X$X+X_.e.Y k   o w u p p p } } } } p p p p p p } p p p p p ",
"p p p p p p p p p } p p p p p i : o   k R t.`.@X$X$X$XXX'.K.K.'.XX$X$X$X@X`.r.R 2   o : u p p p } } } } p p p p p p p p p p p p ",
"p p p p p p p p p p p h p } i p q o # c %.a.{.@X$X@X@XXX}.}.}.XX.X@X#X$X@X[.i.%.c # o : u p p p } } } } p p p p p } p } p p } p ",
"p p p p p p p p p } p p p p y r a 4 9 K <.P.{..X X[.`.[.XXXXOX X[.`.{. XOX{.L.>.H 9 4 w r t i i } } } } } } p } p p p p p p p p ",
"p p p p p p p p p p p } u e q 6 f Z I :.t.W.{.[.T.s.i.L._..X.X_.L.p.s.~.{.{.~.r.=.U Z f : q e i p } } } } } } } p } } } p p p p ",
"p p p p p p p p p p p i r : O 4 C | 2.i.T.{.|.^.t.=.%.3.L.[.[.L.1.%.-.p._. X[.T.i.2.Y C 4 ; q r p p } } } } } } } p p p p p p p ",
"p p p p p p p p p p i u w 5 , 9 I <.a.~.{.oX|.I.1.K A | i._._.i.E m L 3.Y. XXX XQ.p.<.J 9 , ; w u u p } } } } } p p } p p p p p ",
"p p p p p p p p p u y r a 0 v H | q.T.].oX@X XP.=.m k I e._.~.q.L k m -.Y. X@XOX].I.0.| G v 0 a r t p p } } } } } p p p p p p p ",
"p p p p p p p p y e : 6 g F Y =.9.s.^.{.OX@X XL.%.c 2 L e._.^.9.K 2 c =.L. X@XOX{.W.a.7.%.Y F g 5 : r i } p } p p p p p p p p p ",
"p p p p p p p p y : ; , V E 3.p.P.T.).].oX@X XL.=.m k L q._.^.9.L k m >.Y. X@X.X{./.T.S.i.2.Y v , ; w i p p p p p p p p p p p p ",
"p p p p p p p p r : X > m %.i.T.).`.`.].oX@X|.I.1.L A E e.!.!.w.R A L 3.T. X@X.X{.`.`._.~.t.%.m < X : y p } p p p p p p p p p p ",
"p p p p p p p p r ; + < m =.s.).{.|.{.|.oX+X.X^.r.=.%.,.y.D.F.y.;.%.=.t._..XOXOX X{.{.{._.p.*.m > X ; h p p p p p p p p p p p p ",
"p p p p p p p p r ; X % m =.s.). X.X.X.X@X@X.X{.T.s.y.y.M.A.A.z.y.r.s.~.[.OX@X@X.X X.X|.).a.&.m % . : r p p p p p p p p p p p p ",
"p p p p p p p i e ; X % m =.s._.|..X.X@X@X@X@X@X X`.Q.D.z.x.x.A.D.!.[. XoX@X@X@X@XoX.X{./.p.&.b % X : r i p p p p p p p p p p p ",
"p p p p p p p p r ; X < m =.a./.}..X.X.X@X@X@X@X@XOX}.H.c.#.#.c.H.}.@X@X@X@X@XOX.X.X.X{.(.p.%.m % . : r p p p p p p p p p p p p ",
"p p p p p p p i e ; + % m =.s._.{.{.{.{. X.X@X@X@X@X}.G.l.O.O.l.G.}.@X@X@X@XoX X{.].{.{.(.p.*.A # + : r p p p p p p p p p p p p ",
"h p p p p p p p e ; X % A =.s.(.`.(.^.(.[..X@X@X@XoX`.V.g.[ [ g.F.'..X@X@X@X X]././.(.`./.a.*.m % X ; r p p p p p p p p p p p p ",
"} } } } p p p p y : X > m *.t.Y.^.T.I.T.(.|..XoX.X[.!.V.h.{ { h.V.!.{..X@XoX{.(.T.U.T.^.Y.t.%.b < o : y i p p p p p p p p p p p ",
"} } } } } p p p r : ; , b T 4.i.d.d.S.I./.[. X.X X].!.V.j.f.f.j.V./.].|..X.X].^.I.d.d.s.i.3.E V , ; q r p p p p p p p p p p p p ",
"} } } } } p p p i r : 6 g F T =.3.q.a.I.^.].{.|.|.].).R.N.v.n.N.R./.].{.|.{.`.^.I.a.q.2.=.Y F g 6 : r u p p p p p p p p p p } p ",
"} } } } } } p p p u y r a g v H R 3.t.P.^.(.`.].'.`._./.R.V.V.E.E.(.`.'.].`._.Q.P.t.1.R G v 0 a r r u p p p p p p p p p p p p p ",
"} } } } } } p p p p u i w 3 , 9 G &.9.a.P.Q.(.)./././.Q.!.(././.(.)._.`.)./.W.P.a.9.%.G 8 , 3 w u i p p p p p p p p p p p p } p ",
"} } } } } p p p p p p i r : 3 4 v I *.7.p.S.T.E.R.F.F.D.!.).`.`._.(.^.^.^.T.Z.t.4.*.I v 4 O : r i p p p p p p p p p p p p p p p ",
"} } } } p } p p p p p i y e : : 0 B L R <.t.P.R.M.z.l.z.D.'.].`.^.T.T.~.Q.U.e.1.R H B 7 5 q e i p p p p p p p p p p p p p p } p ",
"p } p } p p p p p p p p i y y r 6 4 9 A | 7.u.m.j.+.O.@.M.E.^.^.T.P.P.P.S.a.4.R A 9 4 a r y i i p p p p p p p p p p p p p p p p ",
"p p } p p p } p p p p p p p p u q ; > 9 H *.6.6.o.)  .o.8.p.J.P.B.u.u.y.r.9.*.K 9 $ ; q u p p p p p p p p p p p p p p p } p } p ",
"p } p p } p p p } p p p p p p i r : ; 7 Z I | ` / ~ ~ / ' ,.6.6.8.8.8.5.;.| I B 4 ; : e i p p p p p p p p p p p p p p p p p p } ",
"p p p p p p } p p } p p p p p i u e q 6 f B b n = = = x n G P ' X.o.X.' P A B 0 a q e t i p p p p p p p p p p } p } p } p } p p ",
"p p p p p p p } } } } } p p p p p p t s s * & & & & % & & & x S ^ (  .D x 2 4 6 e u p p p p p p p p p p p p p p p p p p p p } p ",
"p p p p p p p p } } } } p p p p p p p t q O + + + + .   + + % = - ^ ~ - j , ; q u p p p p p p p p p p p p p p p p p } p } p p p ",
"p p p p p p p p } } } } p p p p p p p t e : O O o O o O O O O N - S - N 7 O : e u p p p p p p p p p p p p p p p p p p p p } p } ",
"p p p p p p p p } } } } } p p p p p p t t e e w q e e q q e s d d d d d s r y u i p p p p p p p p p p p p p p p p } p p } p p p ",
"p p p p p p p p } } } } } } p p p p p p p p p t i i u i p u i p } h h h i i p i p p p p p p p p p p p p p p p p p p p p p p } p ",
"p p p p p p p p } } } } } } p p p p p p p p p p p p p p p p p p } h p p p p p p p p p p p p p p p p p p p p p p p p p p p p p p ",
"p p p p p p p p } } } } } p p p p p p p p p p p p p p p p p p p p p p p p p p p p p p p p p p p p p p p p p p p p p p p p } p } ",
"p p p p p p p p } } } } p } p p p p p p p p p p p p p p p p p p p p p p p p p p p p p p p p p p p p p p p p p p p p p p p p p p ",
"p p p p p p p p p p } p p p p p p p p p p p p p p p p p p p p p p p p p p p p p p p p p p p p p p p p p p p p p p p p p p p p p ",
"p p p p p p p p p } p p } p } p p p p p p p p p p p p p p p p p p p p p p p p p p p p p p p p p p p p p p p p p p p p p p p p p ",
"p p p p p p p p p p p } p p p p p p p p p p p p p p p p p p p p p p p p p p p p p p p p p p p p p p p p p p p p p p p p p p p p ",
"p } p p p p p p p } p p p p } p } p p p p p p p p p p p p p p p p p p p p p p p p p p p p p p p p p p p p p p p } p } p p p p p ",
"p p p p p p p p p p p } p } p p } } } p p p p p p p p p p p p p p p p p p p p p p p p p p p p p p p p p p p p p p p p p p p p p ",
"p } p } p p p p p p } p p p p } } } } } p p p p p p p p p p p p } } } } } p p p p p p p p p p p p p p p p p } p } p } p } p p p ",
"p p p p p } p } p p p p } p } } } } } } p p p p p p p p p p p } } } } } p p p p p p p p p p p p p p p p p p p p p p p p p } p } ",
"p } p } p p p p } p } p p } } } } } } } p p p p p p p p p p } p } } } } } p } p } p p } p } p p p p p p p p p } p } p } p p p p "
};
