/* XPM */
static char *_6409_0b36f1ae99420ec141baeb0f531ee1db233cd2ea78f942b68ec40ba701a11c6a[] = {
/* columns rows colors chars-per-pixel */
"64 64 221 2 ",
"   c #101F1B",
".  c #0C2C22",
"X  c #162A25",
"o  c #1D2E2A",
"O  c #0F392B",
"+  c #15342A",
"@  c #1C342D",
"#  c #163B2E",
"$  c #1A382E",
"%  c #153E31",
"&  c #1B3C32",
"*  c #24332E",
"=  c #263D2F",
"-  c #233531",
";  c #233B35",
":  c #273935",
">  c #2A3936",
",  c #2C3E39",
"<  c #353D39",
"1  c #503E3D",
"2  c #0E4733",
"3  c #0E4833",
"4  c #144433",
"5  c #1A4535",
"6  c #134B36",
"7  c #174539",
"8  c #154D39",
"9  c #1B4B39",
"0  c #14543C",
"q  c #17543D",
"w  c #264539",
"e  c #36433C",
"r  c #30563A",
"t  c #454637",
"y  c #4F4F38",
"u  c #635438",
"i  c #765B39",
"p  c #54663D",
"a  c #606A3E",
"s  c #0F5540",
"d  c #1B5641",
"f  c #145C42",
"g  c #1A5B43",
"h  c #2C4C43",
"j  c #364441",
"k  c #394643",
"l  c #394B46",
"z  c #3D4C49",
"x  c #245543",
"c  c #285A47",
"v  c #35554A",
"b  c #375D51",
"n  c #146446",
"m  c #1B6346",
"M  c #166649",
"N  c #1C6549",
"B  c #166A4B",
"V  c #196D4D",
"C  c #17714E",
"Z  c #19714F",
"A  c #177551",
"S  c #197552",
"D  c #187954",
"F  c #1F7F58",
"G  c #27684A",
"H  c #2D6F4D",
"J  c #3B734A",
"K  c #386152",
"L  c #207853",
"P  c #414E4A",
"I  c #584442",
"U  c #44524E",
"Y  c #4A5653",
"T  c #485A55",
"R  c #4C5955",
"E  c #585D53",
"W  c #525D5B",
"Q  c #704547",
"!  c #45774B",
"~  c #48625A",
"^  c #53615D",
"/  c #6C6A4F",
"(  c #757541",
")  c #4F6260",
"_  c #5B6663",
"`  c #596764",
"'  c #546A64",
"]  c #5C6A66",
"[  c #646865",
"{  c #626C6A",
"}  c #746262",
"|  c #64716D",
" . c #6B7572",
".. c #6D7975",
"X. c #767B75",
"o. c #747D7A",
"O. c #876838",
"+. c #996B3C",
"@. c #A7743C",
"#. c #AE723F",
"$. c #C87C3F",
"%. c #8E4C51",
"&. c #BC4A55",
"*. c #A7545B",
"=. c #BA545D",
"-. c #95695E",
";. c #887257",
":. c #BC5963",
">. c #B86871",
",. c #C24C57",
"<. c #C2565A",
"1. c #C6724D",
"2. c #C05F69",
"3. c #C36A73",
"4. c #1F8259",
"5. c #78827E",
"6. c #B48459",
"7. c #84857D",
"8. c #9A8D7C",
"9. c #B3977C",
"0. c #CD8D5A",
"q. c #D68E55",
"w. c #E0A253",
"e. c #D58D65",
"r. c #C89E7B",
"t. c #CFA17B",
"y. c #E5B46C",
"u. c #C67A83",
"i. c #7C8482",
"p. c #818986",
"a. c #858C8B",
"s. c #948F8C",
"d. c #8A908C",
"f. c #8D9492",
"g. c #8F9E9B",
"h. c #919694",
"j. c #939997",
"k. c #949B99",
"l. c #9A9E9C",
"z. c #A48083",
"x. c #9BA19F",
"c. c #A3A29D",
"v. c #B8AC9C",
"b. c #9DA4A2",
"n. c #9DA5A8",
"m. c #A5A9A6",
"M. c #A5A9A7",
"N. c #AAAEAB",
"B. c #ADB0AE",
"V. c #B7B2A7",
"C. c #AFB3B1",
"Z. c #B3B6B4",
"A. c #B9BBB9",
"S. c #BCBDBB",
"D. c #C88487",
"F. c #C98D94",
"G. c #D19695",
"H. c #C5AE9B",
"J. c #DAA592",
"K. c #C6B79D",
"L. c #E5B590",
"P. c #CA9AA1",
"I. c #CBA8AB",
"U. c #DBA3A8",
"Y. c #CAB3A9",
"T. c #C3BAB7",
"R. c #D3BBBC",
"E. c #E2B6BA",
"W. c #BDC1BE",
"Q. c #D5C097",
"!. c #E9C58C",
"~. c #E6C796",
"^. c #DBCBAC",
"/. c #C2C1BE",
"(. c #EACFB7",
"). c #E7D3B8",
"_. c #E8BFC3",
"`. c #BEC3C2",
"'. c #C3C5C3",
"]. c #C9C8C6",
"[. c #C6CCCC",
"{. c #CBCCCB",
"}. c #D5C7C7",
"|. c #D0CFCE",
" X c #CFD1CE",
".X c #D4D0C5",
"XX c #D2D0CE",
"oX c #CACFD0",
"OX c #CCD2D2",
"+X c #CED3D8",
"@X c #D4D5D4",
"#X c #D9D6D5",
"$X c #D6D8D7",
"%X c #D9D9D7",
"&X c #D7DBDA",
"*X c #DCDCDA",
"=X c #E7CACA",
"-X c #EED8CF",
";X c #E1DEDA",
":X c #DDE1DE",
">X c #E1E1DE",
",X c #F4E8D8",
"<X c #F6DFE2",
"1X c #DEE3E2",
"2X c #DFE4E9",
"3X c #E4E4E3",
"4X c #EAE7E5",
"5X c #E5E9E7",
"6X c #E9E9E7",
"7X c #E6EBEB",
"8X c #ECECEB",
"9X c #F9E4E6",
"0X c #F0EDED",
"qX c #ECF0EF",
"wX c #F5F2EF",
"eX c #EAEEF4",
"rX c #EDF3F3",
"tX c #F4F4F3",
"yX c #F9F6F6",
"uX c #F5FAFA",
"iX c #FDFDFD",
/* pixels */
"D D D D D D D D D D D D D D D D D D D D D D D D D D D D D D D D F 4.4.4.D D D D D D D D D D D D D D D D D D D D D D D D D D D D ",
"4.D 4.D 4.D 4.D 4.D 4.D D D D D D D D D D D 4.D D D D D D D D D 4.4.4.4.D D D D D D D D D A D D D D D D D D D D D D D D D D 4.D ",
"D D D D D D D D D D D D D D D D D D D D D D D D D D D D D D D D 4.4.4.F D D D D D D D D D D D D D D D D D D D D D D D D D D D 4.",
"D 4.D 4.D 4.D D 4.D 4.D D D D D D D D D D 4.D D D D D D D D D D 4.4.4.4.D D D D D D D D D D D D D D D D D D D D D D D D D 4.D D ",
"D D D D D D D D D D D D D D D D D D D D D D D D D D D A A V C C A D 4.D D D D D D D D D D D D D D D D D D D D D D D D D D D D 4.",
"4.D 4.D D D D D D 4.D 4.D D D D D D D D D D D D D D D A M f f g B D D D D D D D D D D D D D D D D D D D D D D D D D D D D 4.D D ",
"D D D D D D D D D D D D D 4.D D D D D D D D D D D D D V g d & d g C 4.D D D D D D D D D D D D D D D D D D D D D D D D D D D D 4.",
"D 4.D D D D D D D D D 4.D D D D D D D D D D D D D D A n d ; ; & d V D D D D D D D D D D D D D D D D D D D D D D D D D D D D D D ",
"D D D D D D D D D D D D D 4.D D D D D A S A A A D C B G w < < , h G S A D A C C A F D D D D D D D D D D D D D D D D D D D D D D ",
"4.D 4.D D D D D D D D D D D 4.D D D S V n f f f 0 f d w P I I 1 k x f f f s f n n A D D D D D D D D D D D D D D D D D D D D D D ",
"D D D D D D D D D D D D D D D D 4.D A n q 7 4 % 3 3 = 1 I Q %.Q t e 7 % 2 % 7 7 g n A D D D D D D D D D 4.D 4.D D D D D D D D D ",
"D 4.4.D D D D D D D D D 4.D 4.4.D D S g 9 @ o . . . * 1 Q *.&.%.Q < + + . o o & 9 m S D D D D D D 4.D 4.D D D D D D D D D D D D ",
"4.4.4.4.D D D D D D D D D 4.4.4.D S V c h , , w w : < I %.*.=.*.%.1 , > , , , , h N V D D D D D D 4.4.4.D D D D D D D D D D D D ",
"4.4.4.4.D D D D D D D D 4.4.F D N L G b Y W ` ' ' ` [ -.*.:.<.:.-.} ` ` ' ` ` R b K G V V A D D 4.4.4.4.4.D D D D D D D D D D D ",
"4.4.4.4.D D D D D D D D 4.L S N m x b '  .i.f.g.g.g.h.z.:.:.,.:.>.z.j.g.g.g.f.5.| ~ c d f n Z D 4.4.4.4.D D D D D D D D D D D D ",
"4.4.4.4.D D D D D D D D 4.4.Z q 5 w b  .h.C.`.[.+XoX].P.u.:.,.2.D.Z.[.oX+X`.`.n.a.] v w 7 f N D 4.4.4.4.D D D D D D D A D D D D ",
"D 4.D 4.D D D D D D D D 4.F m 9 $ = R i.B.XX4XtXuXyX6XE.F.2.,.3.P.=XwXuXtXrX;X].x. .z * # 0 B D 4.4.4.4.D D D D D D D D D D D D ",
"4.D D D D D D D D D D D 4.F m 4 o > W d.W.3XyXiXiXiXiX-XU.u.3.F.E.9XiXiXiXiXtX&XB.5.U * + 6 n D 4.4.4.4.D D D D D D D D D D D D ",
"D D 4.D 4.D D D D D D D 4.F f 3 . * W a.'.8XiXiXiXiXiX9X_.U.G.U.=XwXiXiXiXiXiX*XB.5.P o . 6 n D 4.4.4.4.D D D D D D D D D D D D ",
"D D D D D D D D D D D D 4.4.n 3 . o Y a.`.8XiXiXiXiXiXyX<X=X_.=X9XyXiXiXiXiXiX:XB...k X . 3 B D 4.4.4.4.D D D D D D D D D D D D ",
"D D D D D D D D D D D 4.D 4.f 3 . - W d.'.8XiXiXiXiXiXyXwX0X8X8XyXyXiXiXiXiXiX3XZ.5.l o . 3 B D 4.4.4.4.D D D D D D 4.D D D D D ",
"D D D D D D D D D 4.D D Z Z m 9 w k ] k.[.tXiXiXqX5X4XqXtXuXuXuX0X8X6X8XtXiXiX6XW.a.W e w q n Z 4.4.4.4.D D D D D D D D D D D D ",
"D D D D D D D D D D C Z n m c b T { a.Z.*XtXyX3X XW.W.[.3XuXiXrX&X'.Z.`.@X7XuX8X XM.5.' ~ v x n B C 4.4.D D D D D 4.D 4.D D 4.D ",
"D D D D D D D D D 4.n 0 4 9 v ^ i.k.Z.@X8XtX7X[.b.i.i.b.[.qXuX2X`.j.i.a.N.$XtXtX3X[.N.d...~ h 5 3 n Z 4.4.4.D 4.D D D D D D D D ",
"D D D D D D D D D C 0 6 + ; T 5.n.'.&X8XyXyX1XN.o.R R o.C.5XtX&Xn.| Y W a.`.8XyXyX4X@XA.k.| P @ O 0 B 4.4.4.4.4.D 4.D 4.D D D D ",
"D D D D D D D D D V g 4 - e { j.T.1XtXiXiXyX&Xb._ > > _ M.1XtXOXf.Y * j  .C.3XiXiXiX8X#XZ.a.W , $ 5 N F 4.4.4.4.4.D D D D D D D ",
"D D D D D D C Z V G c v P ] p.B.XX4XyXiXiXyX$Xk.Y X o W b.1XyXOXi.z X - { N.3XiXiXiXtX>X'.x.5.^ z v G G Z D F F D D 4.D D D D D ",
"D D D D D C B n x c K ] 5.f.M.W.@X3XwXiXiXuX$Xf.Y X X R b.2XuX+Xa.l   o _ N.3XiXiXiX0X>X XA.b.a. .^ K c g G Z F 4.D D D D D D D ",
"D D D D D C q 9 9 v ` i.M.W.{.XX$X*X4XyXiXyX+Xj.Y o o W n.2XuX+Xa.P   > { B.3XyXiXtX4X&X@XOX].Z.x.5.~ w 9 8 N Z D D D D D D D D ",
"D D D D D B 0 % * P  .x.'.*X>X>X*X%X>XtXiXyX&Xb.E > > _ m.2XyX#Xf.Y * j  .C.6XiXiX8X;X%X*X*X3X$XA.d.] e @ 5 f V D D D D D D D D ",
"D D D D D B 8 $ * U 5.N.$X6XqX6X>X:X4XtXiXyX*XB.o.Y Y X.N.#X,X.Xl.[ U W p.S.8XiXyXwX3X:X>X0X8X4X[.k.| j o % s V D D D D D D D D ",
"D D D D D B 8 + - U o.B.$XqXwX0X4X6X8XtXyXuX3X`.x.p.i.s.H.(.).^.v.s.i.a.M.oXeXyXyXtX7X4X4XwXwX6X{.x.| k o 4 0 C D D D D D D D D ",
"D D D D D B 0 $ * U 5.M. X4X0XtX0XeXtXtXyXtXeX&X[.S.A.Q.~.~.!.L.K.V.Z.`.oX3XeXyXyXtXtXrXwXtXwX>X'.k.{ e @ % 0 C D D D D D D D D ",
"D D D D D B 8 # $ z  .b.{.3X0XtXtXyXyXuXuXtXtXeXeX7X3X).~.y.y.y.~.-X3X8XeXrXtXuXuXtXyXtXtXwX0X*X/.h.] j @ 4 d V D D D D D D D D ",
"D D D D D B 8 # * U ..b.{.3X0XtXtX0XtXtXtXtXuXiXuXiXwX).!.w.w.y.~.,XyXiXiXuXyXtXtXtXtXtXwXtX4X*XW.j.] e @ % f V D D D D D D D D ",
"D D D D D n 0 # * U ..M. X4X0X8X6X6X8X8XtXtXuXiXiXiXyX).L.e.q.w.L.,XyXiXiXiXyXtXrX8X4X4X6X8X8X3X'.k.] k * 4 0 V D D D D D D D D ",
"4.D D D D B 0 $ * U 5.N.#X8X0X4X&X#X*X3X8XtXyXuXuXuX4X^.t.1.1.e.J.=X8XuXuXiXuXtX8X3X&X@X*X4X0X4X{.x.| k @ # 0 A D D D D D D D D ",
"4.4.4.4.D B 8 + * U 5.N.#X6X4X%X{.].XX*X7XtXiXuXrX7X=XR.D.2.<.3.G.R.>X7XrXuXyXtX4X#X{.].XX;X6X4X{.x.| k o # 0 V D D D D D D A D ",
"4.4.4.4.4.N 0 4 - P  .b.{.*X*X|./.W.].&X6XtXtXrX7X3XXXI.u.:.:.3.F.R.%X3XeXtXtXeX3X@X'.S.'.@X*X&XW.j.] e * 4 f Z D D D D D D D D ",
"4.4.4.4.4.B q 5 5 v ] a.N.S.'.T.T.W.].#X4XqXqXqX6X;XXXR.F.u.>.u.P.R.$X1X7XrX0X8X>XXX'.S.S./.'.A.x.5.^ w 5 8 f Z D D D D D D 4.D ",
"4.4.4.4.4.S m q d c ~ | i.h.m.N.A.'.|.#X3X4X8X4X3X:X#X}.I.P.G.P.Y.}.%X:X3X7X7X4X>X#X{.`.A.N.l.d.o.] K c f f B A D D D D D D D D ",
"4.4.4.4.4.4.A Z V N c b Y { p.l.Z.].#X*X>X>X3X2X:X:X#X.X}.R.R./.}.#X%X:X3X3X3X>X:X%XXX/.N.h.o._ U b c N V V A D D D D D D D 4.D ",
"4.4.4.4.4.D D D D V d 7 - k ] p.N./.XX#X%X*X*X;X:X%X%X%X#X#X#X#X%X%X*X*X*X*X*X&X#X#X|.S.c.o.W < & 9 g A D D D D D D D D D D D D ",
"4.4.4.4.D 4.D D D C f 2 + : U  .h.B./.].XX@X%X%X%X%X%X*X*X:X>X:X:X%X$X$X%X*X%X@X|.].S.m.a.] j @ # 8 n D D D D D D D D D D D 4.D ",
"D 4.D 4.D D D D D D n 0 4 9 v ^ ..a.m.Z.].XX%X%X$XOX$X&X:X5X7X1X:X&XOX@X$X$X#X|.`.C.l.p.| R h 7 3 0 C D D D D D D D D D D D D D ",
"D D 4.D D D 4.D D D V M f f x v R [ i.l.A.{.@X@XOX[.oX$X:X5XqX6X:X+XoX XOX$X@X{.C.h.o.^ U v x f f B A D D D D D D D D D 4.D 4.D ",
"D 4.D D 4.D D D 4.D D D A B g w > k [ p.M.'.XXoX].`.'. X:X:X3X:X$X{.'.'.{.XX{.T.c.o.W j ; d g A A D D D D D D D D D D D D D D 4.",
"D D D D D D 4.D D 4.D D D D n 7 % - P  .h.C.`.T.T.A.W./.]. X X.X'./.S.A.T./.S.N.a.[ j o % 0 B D D D D D D D D 4.D 4.D 4.D 4.D D ",
"D D D D D D D 4.4.4.4.4.D D B 0 4 % k ^ o.f.c.v.v.H.H.K.v.N.N.V.V.v.K.H.H.m.l.d.| T h O 3 s C D D D D D D D D D D D D D D D 4.D ",
"D D D D D D D D 4.4.4.4.D D C n s s c b ) | 7.8.9.t.t.9.8.7.5.7.9.r.t.t.9.8.X.] ~ v d 0 n n A D D D D D D D D D D D 4.D 4.D D D ",
"D D D D D D D D 4.4.4.4.D D D A V B N x h z E ;.6.0.0.6.;.E U / ;.6.q.0.-.;.E k c c n C C A D D D D D D D D D D D D D D D 4.D 4.",
"D D D D D D D D 4.4.4.4.4.D D D D D V f 7 : t Q +.$.1.+.u < = t i #.$.#.+.u < $ s f C D D D D D D D D D D D D D D 4.D D 4.D D D ",
"D D D D D D D D 4.4.4.4.4.4.A D D D C s 4 # w u O.@.@.i y w # e u +.@.+.i y = 4 7 n A D D D D D D D D D D D D D D D D D D D 4.D ",
"D D D D D D D D 4.4.4.4.4.4.D D D D C n 0 3 r r a ( ( a p 9 3 r p a ( ( p v 9 6 s M D D D D D D D D D D D D D D D D D D D D D D ",
"D D D D D D D D 4.4.4.4.4.D D D D D A C B n n Z J ! ! J G m n m H p 4.a K G M M M C D D D D D D D D D D D D D D D D D D D 4.D 4.",
"D D D D D D D D 4.4.4.4.D 4.D D D D D D A A A A S S L F C A A 4.4.4.L 4.S A A A D D D D D D D D D D D D D D D D D D D D D D D D ",
"D D D D D D D D D D 4.D D D D D D D D D D D D D D D D D D D D D A A 4.A A A 4.A D D D D D D D D D D D D D D D D D D D D D D D D ",
"D D D D D D D D D 4.D D 4.D 4.D D D D D D D D D D D D D D D D D A 4.A A 4.A 4.A D D D D D D D D D D D D D D D D D D D D D D D D ",
"D D D D D D D D D D D 4.D D D D D D D D D D D D D D D D D D D D A A 4.4.A 4.A A D D D D D D D D D D D D D D D D D D D D D D D D ",
"D 4.D D D D D D D 4.D D D D 4.D 4.D D D D D D D D D D D D D D D 4.A A A A A A 4.D D D D D D D D D D D D D D D D 4.D 4.D D D D D ",
"D D D D D D D D D D D 4.D 4.D D 4.4.4.D D D D D D D D D D D D D 4.A A 4.4.A 4.A D D D D D D D D D D D D D D D D D D D D D D D D ",
"D 4.D 4.D D D D D D 4.D D D D 4.4.4.4.4.D D D D D D D D D D D D 4.4.4.4.4.A 4.A D D D D D D D D D D D D D D 4.D 4.D 4.D 4.D D D ",
"D D D D D 4.D 4.D D D D 4.D 4.4.4.4.4.4.D D D D D D D D D D D 4.4.4.4.4.D D A A D D D D D D D D D D D D D D D D D D D D D 4.D 4.",
"D 4.D 4.D D D D 4.D 4.D D 4.4.4.4.4.4.4.D D D D D D D D D D 4.A 4.4.4.4.4.A 4.4.4.D D 4.D 4.D D D D D D D D D 4.D 4.D 4.D D D D "
};
