/* XPM */
static char *_7175_bcbcfe18d72e384c373ac272b4377525b5d28f9fd6049bfb42937d364e1245b5[] = {
/* columns rows colors chars-per-pixel */
"64 64 175 2 ",
"   c #273C37",
".  c #2A3D37",
"X  c #2A3F38",
"o  c #373433",
"O  c #3A3434",
"+  c #303E37",
"@  c #393B37",
"#  c #323E38",
"$  c #543523",
"%  c #593A27",
"&  c #573B29",
"*  c #5C3E2A",
"=  c #453735",
"-  c #463935",
";  c #4B3B35",
":  c #463939",
">  c #4C3E3A",
",  c #533E33",
"<  c #583F30",
"1  c #2B4239",
"2  c #2D483D",
"3  c #384236",
"4  c #324339",
"5  c #314B3E",
"6  c #3E5337",
"7  c #57422C",
"8  c #5E412C",
"9  c #444634",
"0  c #434D36",
"q  c #4A4D35",
"w  c #4F403B",
"e  c #544037",
"r  c #5C4333",
"t  c #574931",
"y  c #594830",
"u  c #51423D",
"i  c #5A463B",
"p  c #5C483D",
"a  c #425037",
"s  c #4A5137",
"d  c #445339",
"f  c #49563A",
"g  c #47583B",
"h  c #4A583B",
"j  c #62432E",
"k  c #654631",
"l  c #684730",
"z  c #664832",
"x  c #6B4B34",
"c  c #6F4F38",
"v  c #704E36",
"b  c #6F5037",
"n  c #6E5139",
"m  c #725137",
"M  c #795736",
"N  c #73543B",
"B  c #79553C",
"V  c #76583E",
"C  c #7C593F",
"Z  c #1F5443",
"A  c #235744",
"S  c #235B45",
"D  c #2C5C45",
"F  c #2B5D48",
"G  c #335D42",
"H  c #3C5F41",
"J  c #1C6F4F",
"K  c #1E704F",
"L  c #1C7350",
"P  c #187954",
"I  c #276747",
"U  c #2E6444",
"Y  c #246349",
"T  c #2A664C",
"R  c #22684C",
"E  c #2C6C4A",
"W  c #316545",
"Q  c #3B6042",
"!  c #306847",
"~  c #316948",
"^  c #386B48",
"/  c #21714E",
"(  c #29704B",
")  c #30734F",
"_  c #227753",
"`  c #217B56",
"'  c #574641",
"]  c #5F4D43",
"[  c #624D42",
"{  c #655145",
"}  c #6B5445",
"|  c #6B5648",
" . c #6F5949",
".. c #715542",
"X. c #775B42",
"o. c #7D5C42",
"O. c #735C4A",
"+. c #795F4A",
"@. c #7F6145",
"#. c #7D624C",
"$. c #805B38",
"%. c #825E43",
"&. c #846246",
"*. c #896446",
"=. c #876847",
"-. c #8F6840",
";. c #856449",
":. c #8B6549",
">. c #87684C",
",. c #8C6A4C",
"<. c #936C41",
"1. c #926C4E",
"2. c #986E48",
"3. c #9A7345",
"4. c #97704B",
"5. c #99754E",
"6. c #816650",
"7. c #866B53",
"8. c #8C6E52",
"9. c #916F51",
"0. c #8E7156",
"q. c #947354",
"w. c #997656",
"e. c #9B7856",
"r. c #977758",
"t. c #987758",
"y. c #9B7959",
"u. c #A87D49",
"i. c #A57F52",
"p. c #A17E5C",
"a. c #1E8057",
"s. c #1F8259",
"d. c #9D815F",
"f. c #B0834D",
"g. c #AB8555",
"h. c #AF895A",
"j. c #B68B54",
"k. c #B88F54",
"l. c #B48F5F",
"z. c #BC9055",
"x. c #9D8561",
"c. c #A58762",
"v. c #A68963",
"b. c #AE8E61",
"n. c #AC8E69",
"m. c #BC9E6E",
"M. c #B79E75",
"N. c #C7995A",
"B. c #C7995B",
"V. c #D2A15D",
"C. c #D6A660",
"Z. c #DBAA62",
"A. c #D2AA6D",
"S. c #D6B57B",
"D. c #E6B468",
"F. c #EAB769",
"G. c #EFBD6C",
"H. c #E6BB73",
"J. c #EEC47C",
"K. c #F3C374",
"L. c #F8C977",
"P. c #F9CC7F",
"I. c #C7B284",
"U. c #D6BE87",
"Y. c #D2BE8B",
"T. c #E4C789",
"R. c #FED785",
"E. c #F4D38C",
"W. c #E5D29C",
"Q. c #EED89D",
"!. c #FCDF98",
"~. c #FFE395",
"^. c #FFEEA4",
"/. c #F6E5A8",
"(. c #FFEEAB",
/* pixels */
"P P P P P P P L L L / _ K L L L L L L L _ L L L L L L _ K K P P a.a.a.` _ K L K L L L L L L L L _ K L L K L L / L L P P P P P P ",
"s.P s.P s.P a./ ) ~ ^ W U U W ! ! ! ~ W U U ~ U U U U U U U U I ( ( ( ( U U U ! U U U U U ! U ! ! W U ! U U ! W ~ ( / L P P s.P ",
"P P P P P P L E Q h h s q d a d d d d d a a a 6 a a 0 a a a a 6 6 6 g 6 a a a a a a a 0 a d d d d g d d d a s s h H ! / P P P s.",
"P s.P s.P s._ W h t y j 7 7 7 7 8 y y 8 8 7 7 7 7 7 7 7 7 7 7 7 7 7 7 7 7 7 7 7 7 7 7 7 7 7 7 8 y 8 7 7 7 8 8 r y f W / P s.P P ",
"P P P P P P K W q 8 l x x x x z z j j l l x x l l x l x x x x x x x x x x x x x l x x x l l l l j j z l x x x x 8 q G / P P P s.",
"s.P s.P P P K D 6 e z n M C C m l z x m C o.&.o.o.%.&.C @.$.o.o.o.%.o.o.C &.o.C o.%.%.%.%.o.c l l x m B C C m z e 9 G / P s.P P ",
"P P P P P P L D 4 = i } #.>.=.C x j l V =.8.w.q.q.,.q.0.8.q.,.q.4.8.8.1.8.8.4.8.9.9.9.q.9.:.X.x j l C *.>.;.} i - 3 D / P P P s.",
"P s.P P P P L S 1 O w | >.q.q.o.x j l V ,.w.y.t.r.r.w.t.w.t.t.t.w.r.y.y.w.y.r.w.w.y.y.y.y.8.o.z j l o.8.w.7. .u O 1 S / P P P P ",
"P P P P P P J J 1 o > | 0.y.r.;.x j k N ,.9.w.r.q.q.q.q.q.q.q.q.q.q.q.q.q.q.q.q.q.w.w.w.r.>.X.k 8 x &.q.y.0.| ' o . A J P P P P ",
"s.P s.P P P J Z . o > | 7.y.t.;.c * j c X.;.;.;.;.&.;.;.;.;.;.=.;.@.;.;.=.;.;.;.#.&.;.;.%.o.c k 8 l &.q.y.0.| w O . A J P P P P ",
"P P P P P P L Z 1 o > | 7.t.w.;.c j * j x c c c b b b n n n b x x b b b n n m x b b b b v x k j 8 x &.q.y.0. .' O . A K P P P P ",
"P s.a.P P P L Y 1 o > | 7.r.q.&.c j * * * j j 8 8 8 j j j j j j 8 8 8 8 k j j j 8 8 8 8 j j % * j x #.r.r.7. .u O . A K P P P P ",
"s.s.s.s.P P J Z 1 o > | 7.t.q.=.v j % j j j j j 8 j 8 8 * * 8 j z j j 8 8 * * 8 8 k j j j 8 % % 8 x ;.4.t.7.O.u O . A J P P P P ",
"s.s.s.s.P P J Z 1 o w | 7.t.q.=.v j * j l x x c b x j 8 % 8 j b V V x k 8 * j l x x v x v l j j 8 x @.q.t.8.O.u O 1 A J P P P P ",
"s.s.s.s.P P L S 1 o > | 7.w.q.&.v 8 j l B %.%.o.$.B m l 8 8 x o.>.>.o.x 8 8 j m B o.%.%.B N x j 8 x @.4.t.7.O.u O 1 A J P P P P ",
"s.s.s.s.P P L S 1 o > | 7.w.q.&.x j j x %.%.:.:.:.%.C x j r n ;.q.w.>.N j j x B &.:.*.*.*.$.v k 8 x o.q.w.7. .e O . A J P P P P ",
"P s.P s.P P K S 1 o > | 7.t.q.&.l j j m %.*.,.1.1.:.%.x j j m >.y.y.%.B j j l %.%.1.1.9.,.%.N k 8 x o.q.t.7.O.u o 1 A J P P P P ",
"s.P P P P P L S 1 o > | 7.t.q.@.x 8 j v %.*.1.9.q.8.&.c j j m >.t.y.1.B j * l $.%.:.1.9.9.,.C k 8 z o.q.t.7. .u O 1 A J P P P P ",
"P P s.P s.P L Z 1 o > | 7.t.w.&.x 8 j v %.:.1.9.w.q.>.N k j n ;.t.t.:...j j l ..%.9.9.w.w.,.X.x 8 z o.4.t.0. .u O + D J P P P P ",
"P P P P P P L S 1 o w | 7.t.q.&.b j j x B %.1.w.t.r.,.N j j b ;.r.q.:...j j l B %.1.q.t.y.9.o.z 8 z o.q.t.7. .u O X A J P P P P ",
"P P P P P P L Z 1 o w | 7.r.4.&.v j j x o.%.9.w.y.t.,.V j j c ;.q.t.>...j j l $.%.:.4.p.y.q.+.x 8 x @.4.r.0. .u O 1 D J P P P P ",
"P P P P P P K Y 1 o w | 7.r.q.@.x j j v $.%.1.w.y.t.,.V k j c ;.q.t.:.N j j l ..%.1.1.y.y.9.o.x 8 z C 0.r.7. .u O X A J P P P P ",
"P P P P P P J Z 1 o w | 7.r.q.&.x j j x %.%.1.q.t.t.,.N j j c ;.q.q.;...j j l ..%.%.1.p.y.9.o.z j x o.q.t.0. .u O 1 A _ P P s.P ",
"P P P P P P J J 1 o w | 7.r.q.&.x j j x %.%.1.w.t.r.,.N j j c ;.r.r.,.N j j l %.%.1.9.y.y.8.o.x 8 l o.4.r.7. .u O . A J P P P P ",
"P P P P P P K Z 2 o w | 7.r.q.@.x 8 j v %.%.:.q.t.t.:...k j c ;.9.t.>.n k < x B %.1.q.w.w.9.o.x j l o.q.t.8.| ' O 1 A _ P P P P ",
"P P P P P P L Z 1 o w | 7.r.q.&.c 8 j x %.%.1.q.t.t.:...k * c %.w.t.>.N k * l B %.:.1.p.w.9.o.z 8 l o.9.t.7.| u O X A J P P P P ",
"P P P P P P J A 1 o w } 7.w.q.&.x j j v %.%.1.q.t.t.:...k j c ;.q.t.,.N j j l B %.1.9.y.y.9.o.z 8 l o.q.t.7. .u O 4 D J P P P P ",
"P P P L P P K J 1 o w | 7.w.q.@.c j j x %.%.1.q.y.t.%.%.k j c ;.q.t.;.N k j l B %.:.q.e.y.9.o.z 8 x o.q.t.0. .u O X A J P P P P ",
"P P P P P P L Z 1 o w | 7.r.q.&.x j j v %.%.1.q.y.t.:...j j c ;.q.r.6.N j * z B *.:.q.e.y.8.@.z 8 z o.q.t.8.O.> o X A J P P P P ",
"P P P P P P K Y 1 o w | 7.r.q.&.x 8 j x %.%.1.q.t.t.:...j j c ;.q.r.,.N j j l B $.1.9.y.y.8.C x 8 x o.q.t.7. .' O X S J P P P P ",
"P P P P P P K Z 1 o > | 7.r.q.@.v j j x %.:.1.q.t.t.:.B l j v ;.q.t.;.N j j x B &.:.q.w.w.q.o.z j l o.4.t.8.O.u O X A J P P P P ",
"P P P P P P L Z 1 o w } 7.r.q.&.x 8 j c ..%.1.q.y.t.,...j j v %.q.t.,.c j j l B %.,.q.e.w.8.o.z 8 k X.q.t.7.| u O 4 A J P P P P ",
"P P P P P P K S 1 o w | 7.r.4.&.x j j x %.%.1.q.r.r.,.N k 8 x ;.q.t.>.N k 8 l B %.1.q.w.w.1.C j & j C ,.r.7.| ' @ 1 A J P P P P ",
"P P P P P P L Z 1 o w | 7.r.0.&.v j j v %.%.1.q.t.w.,.N k j m =.q.t.>.n r 8 l B %.:.q.p.y.,.N j $ * V ,.r.7.| w o 1 A J P P P P ",
"P P P P P P P A 1 o w | 7.w.q.@.x 8 j x o.%.1.q.t.r.>.V j 8 b ;.w.q.>.N j j l B %.1.9.e.y.8.C j % j C 8.r.7. .w O . D J P P P P ",
"P P P P P P K S 1 o w | 7.t.q.&.v 8 j v %.%.1.q.t.t.,.N k j b ;.r.t.,.N k j l B %.:.q.w.y.q.;.X.m C ,.e.y.8.#.w O . Z J P P P P ",
"s.P P P P P J S 1 o > | 7.t.q.&.x j j v o.*.1.w.p.y.8.V j j n >.t.t.,...j * l B %.1.1.w.y.d.d.x.x.c.b.l.h.q.#.w O X Z J P P P P ",
"s.s.s.s.P P P Z 1 o > | 7.r.q.&.x 8 j v %.:.1.y.y.y.,.V j j n >.y.t.,.N k j l B &.1.1.q.y.x.M.I.Y.U.S.A.N.i.@.i O   Z J P P P P ",
"s.s.s.s.s.P K S 1 o w | 7.r.q.&.v 8 j v %.%.1.w.y.t.,.V k j n ;.t.t.,.N j j x B &.,.,.,.r.n.I.W./.~.E.H.V.g.;.i O   Z J P P P P ",
"s.s.s.s.s.P K S 1 O > | 7.w.q.&.x j 8 x N %.:.,.q.8.;.N j 8 x @.,.q.%.c j j l m C &.&.;.8.v.S.Q.(.^.!.K.C.j.=.i O   Z J P P s.P ",
"s.s.s.s.s.s.L Z 1 o > | 8.r.q.&.x j j j x v o.o.@.o.N x 8 * z m o.o.N z 8 8 j l m M m m o.5.m.T.!.~.R.K.Z.k.:.p o   Z J P P P P ",
"s.s.s.s.s.s.J J 1 o > | 7.r.q.&.c 8 * * j l l l x l z 8 * * 8 k x x k 8 % 8 8 8 j j j j z o.g.A.J.P.L.G.Z.z.,.p O   Z J P P P P ",
"s.s.s.s.s.P J A 1 o > | 7.r.q.=.c j * * * j 8 j j 8 8 8 8 8 8 8 8 8 8 8 8 8 8 8 8 * & & 8 m 3.z.Z.D.F.D.C.k.8.p O   Z J P P P P ",
"s.s.s.s.P a.K S 1 O w | 7.r.q.&.c 8 * j k z k k z k z z x z l z z z z z z x x z z k k 8 k m -.f.N.N.V.V.B.g.%.' O   Z J P P s.P ",
"P s.P s.P P K Z 1 o > | 7.r.q.&.b 8 8 x N o.+.X.C X.X.C o.o.o.o.C C C o.o.o.@.X.X.o.X.X.C o.&.<.3.u.f.f.i.p.o.u O X A J P P P P ",
"P P s.P P P L Y 1 o w | 7.r.4.@.x 8 k m %.9.q.9.8.8.1.q.9.9.8.8.,.0.8.8.4.8.9.0.8.9.8.q.,.>.@.C M M -.2.1.:.} , O 1 A K s.P s.P ",
"P s.P P s.P L S 2 o w | 7.r.q.&.x 8 k C 8.t.y.y.r.r.t.t.t.r.y.y.w.r.w.e.r.r.r.r.t.t.t.y.t.8.o.x 8 l m %.%.%.[ ; O X A K P P P s.",
"P P P P P P P S 1 o w | 7.t.q.&.x 8 k N ;.q.q.w.q.9.q.8.q.9.9.0.0.q.q.0.0.4.0.4.9.q.w.q.w.;.N k % 8 v %.%.%.[ ; = A A _ P s.P P ",
"P P P P P P L Y 1 o > | 7.t.q.=.x j j x V o.o.o.o.@.o.o.%.o.o.%.o.o.o.o.o.o.o.o.o.o.o.%.%...l * & k m ;.>.#.{ > O X D J P P s.P ",
"P P P P P P L Z 2 o > | 7.w.q.&.x j % k k x x x x x x x z l z z x x x l x c z l x x x l z l 8 * % x o.9.q.7.| u O 1 S K s.P P P ",
"P P P P P P K Y 2 O > | 7.w.q.=.v j * * * * j j 8 j r 8 j j j j 8 8 j 8 < j j j r j j j j * * * j x %.9.r.0. .u O . A L P s.P s.",
"P P P P P P L Z 2 o > | 7.w.q.&.x j * j j k k j j j j j j j j j k k k j j j j j j j j k j k j * j x &.q.r.0. .u O 4 A R s.P P P ",
"P P P P P P L S 1 o w | 7.r.q.;.v j * l l v v v m v v v v v v v x c x c v v v v v v v v x x j j j x &.q.r.7. .u o X A J P P s.P ",
"P P P P P P L S 2 o w | 7.r.q.&.x j j l B %.%.%.$.o.$.%.B o.$.%.$.%.$.%.$.%.%.B C %.%.%.%.B x j * x o.q.e.7. .u O X A J P P P P ",
"P P P P P P L S 2 o w | 7.w.q.&.x j j v %.%.:.:.*.*.*.*.%.:.:.:.:.%.%.:.*.*.:.:.:.%.*.:.:.%.m k j x %.q.t.0. .w O X S J P s.P s.",
"P P P P P P L S 1 O w | 0.y.q.&.v * l v %.1.1.9.9.9.9.1.1.1.1.1.1.1.9.9.1.1.1.9.2.1.q.9.9.*.B z j l &.q.y.0.O.u O 4 A J P P P P ",
"P P P P P P L S 1 o w  .7.p.e.*.v j j v %.2.2.1.w.e.e.w.e.e.w.w.p.w.w.w.w.5.w.w.t.w.y.p.w.1.o.z j x %.w.p.0.O.u O X A J P P P P ",
"P P P P P P L S 1 O w | 0.y.e.&.c k j v %.*.1.q.e.y.y.y.p.e.y.t.w.p.y.y.y.p.p.w.y.y.p.p.p.1.o.x j v %.1.p.0.O.u O X A J P P P P ",
"P P P P P P L Z 1 o > | 7.w.4.@.x < < x B %.,.9.9.w.r.r.q.q.t.w.q.w.q.r.q.t.9.t.r.r.t.y.9.8.X.z j l o.1.q.7.| u O . A J P P P P ",
"P s.P P P P L S 1 O > [  .#.#.} z < < k c ..+.+.#.>.6.7.6.6.6.6.6.6.6.6.6.6.6.6.#.6.7.7.6.+.c k < < } +.6.O.{ u O # D J P P P P ",
"P P P P P P L S 1 = > ' ] { [ p > , , , i p ] { [ { { { { { { { { { { { { { { { { { { { { [ , , , , ' [ { [ ' > = # A J P P P P ",
"P s.P s.P P L F 4 O : > > : ; : = = = = - : : : > > : > : : 9 : > > : : : : > > : : > > ; ; : = = = ; : : ; : : O 4 F J s.P P P ",
"P P P P P P J T G O O O o o o @ o O o @ o o o o o o o o o o o o o o o o o o O o O o o o O O = O O O O o O O O O @ 5 D L P s.P s.",
"P s.P s.P P L F G A 5 2 1 2 2 2 G 5 5 2 2 2 1 1 1 2 1 2 2 1 2 1 2 2 2 2 2 1 2 1 # Z 1 # # Z A # A # Z 1 Z 1 # # G G Y ` P P P P "
};
