/* XPM */
static char *_9404_34b5d67c0d8020ea410f42c584c07b1ec43869a1be169c955f26287d9c1362d8[] = {
/* columns rows colors chars-per-pixel */
"64 64 125 2 ",
"   c #0E0C0C",
".  c #110E0E",
"X  c #141111",
"o  c #1A1616",
"O  c #1D1919",
"+  c #221D1D",
"@  c #252121",
"#  c #2B2626",
"$  c #2C2827",
"%  c #2C2728",
"&  c #2E2929",
"*  c #302727",
"=  c #322C2C",
"-  c #392F2F",
";  c #322F30",
":  c #343334",
">  c #3C3332",
",  c #3C3936",
"<  c #373638",
"1  c #383739",
"2  c #3A3A3D",
"3  c #413636",
"4  c #443A39",
"5  c #493E3E",
"6  c #35463C",
"7  c #344A3E",
"8  c #39493E",
"9  c #46403D",
"0  c #3D3E42",
"q  c #443F41",
"w  c #3F4044",
"e  c #344D40",
"r  c #3E4A4C",
"t  c #295643",
"y  c #265D47",
"u  c #285A46",
"i  c #2A5D48",
"p  c #325041",
"a  c #3C5044",
"s  c #3F5549",
"d  c #35584F",
"f  c #365951",
"g  c #385C51",
"h  c #1E6F4F",
"j  c #1D7351",
"k  c #187954",
"l  c #26634A",
"z  c #2A614A",
"x  c #246B4E",
"c  c #2B694E",
"v  c #31654F",
"b  c #276851",
"n  c #2A6C54",
"m  c #346651",
"M  c #346A53",
"N  c #3B6C57",
"B  c #237554",
"V  c #2C7057",
"C  c #237857",
"Z  c #267D58",
"A  c #2C7E5B",
"S  c #387157",
"D  c #32755A",
"F  c #3B735B",
"G  c #3E7A5E",
"H  c #414246",
"J  c #4D4242",
"K  c #4E4845",
"L  c #43464A",
"P  c #4A4649",
"I  c #444A4D",
"U  c #484B4F",
"Y  c #524646",
"T  c #514648",
"R  c #554B4A",
"E  c #5B4E4E",
"W  c #43554A",
"Q  c #48574D",
"!  c #475B4F",
"~  c #49594F",
"^  c #5D504F",
"/  c #474B50",
"(  c #494C51",
")  c #534E51",
"_  c #435E54",
"`  c #4B5C51",
"'  c #545356",
"]  c #5C5252",
"[  c #505F55",
"{  c #595659",
"}  c #635555",
"|  c #665B5B",
" . c #6A5C5B",
".. c #4D6054",
"X. c #4D635A",
"o. c #55665B",
"O. c #59675D",
"+. c #56685C",
"@. c #43745E",
"#. c #49725F",
"$. c #42795F",
"%. c #695F61",
"&. c #576D61",
"*. c #5C6D62",
"=. c #467660",
"-. c #457B61",
";. c #5B7063",
":. c #656160",
">. c #6D6264",
",. c #626E64",
"<. c #686F66",
"1. c #736464",
"2. c #786666",
"3. c #726866",
"4. c #786768",
"5. c #746D69",
"6. c #7B6B6B",
"7. c #637166",
"8. c #697167",
"9. c #657368",
"0. c #806F6F",
"q. c #817070",
"w. c #1F8259",
"e. c #25805A",
"r. c #2A805B",
/* pixels */
"k k k k k k k k h h l l l y h y l l l l l l z z l l l l z l z l c c c c z l z l l l z l l l l l l l l l l l y h y y h h h k k k ",
"w.k w.k w.k w.j h 7 7 6 6 7 6 6 7 7 7 7 p 7 p e e e e e 7 7 p e a p p 7 p 7 e p 7 7 e e e e 7 e e e e e 7 7 7 6 6 6 7 h h k w.k ",
"k k k k k k k j h 7 : , , , ; : > , , > , , , , , , , , , , , , , , , , , , , , , , , , , , , , , , , < > , 3 3 : , 7 h h k k w.",
"k w.k w.k w.k j u 6 , 3 3 3 3 , 3 3 - - > > > - - > > > > > - - > - > > - > > > > > - - > > > > - > > > 3 3 3 4 3 , 6 7 h w.k k ",
"k k k k k k k j y 6 3 4 5 5 4 3 3 * * * % & # # $ * * * * * # * * * * * % * * * * * * * * * # # * * - - 3 3 4 5 9 : : t h k k w.",
"w.k w.k k k k j l 6 > 3 4 4 3 3 * @ + + O O O o O + O + + O + O + O + O + O + O O + O + O O O X o + + * 3 3 4 3 3 : 6 y h w.k k ",
"k k k k k k k j 7 7 > 3 4 3 3 - @ o     . .     . . . . . . . . . . . . . . . . . . . . . .     .   o + - 3 3 3 3 , 6 t h k k w.",
"k w.k k k k k j h 7 3 3 3 - - * + .                                                                 . + * * 3 3 3 > 6 y h k k k ",
"k k k k k k k h 7 7 , 3 - = * + X .                                                                   X + + * - > > 8 u h k k k ",
"w.k w.k k k k j h 7 , > * @ O X                                                                         o + + * > > 6 y x k k k ",
"k k k k k k k j l 6 , - * + .                               .               .                 .             o * - > 8 i h k k k ",
"k w.e.k k k k j l 6 , - @ X                                                               .                 + + - > 8 l h k k k ",
"w.w.w.w.k k k j l 7 3 - * o               .               .           .       .             .               . # - 3 8 u h k k k ",
"w.w.w.w.k k k j l 8 , - * o                               .   .           .   .                             X # - > 8 u h k k k ",
"w.w.w.w.k k k j l 8 > - * o               .                   .             .                               o # - > 8 u h k k k ",
"w.w.w.w.k k k j l 7 3 - * o         . .                 .               .                                 . o # - , 6 l h k k k ",
"k w.k w.k k k j y 7 , - * O .                       .   .   .   .   .     .   .   . .     . .               X * 3 3 6 i x k k k ",
"w.k k k k k k j l 8 , - * O                     .                                                           o * 3 * 8 i h k k k ",
"k k w.k w.k k j l 8 , 3 # o .                   .       . .   .   .   . .             . .     .             + @ * - 6 l h k k k ",
"k k k k k k k j l 8 , - * O .           .           .                 .     .     .   .                     X * 3 3 6 7 h k k k ",
"k k k k k k k j l 8 , - * o         .         .     . .       . . .       .                 . .             + + - > 8 i h k k k ",
"k k k k k k k j l 7 , - * o               .     .         .           .   .   . .     . .                   o * - 3 6 i h k k k ",
"k k k k k k k j y 8 3 - * o           .   . .       .   .   .   .     .               .     .               X * - 3 8 z h k e.k ",
"k k k k k k k j l 8 > 3 + +           .       . .       .         .         . .   .     .                   o + - > 6 l h k k k ",
"k k k k k k k j l 6 > - * o .                           .     .   .   .       . .     .       .           . o * - > 6 z h k k k ",
"k k k k k k k j l 6 , - # o .                               .       .     .               .   .             o + - > 6 y h k k k ",
"k k k k k k k j c 8 , > $ +                     .         .   . . .     .   .     .         .               o * - 3 8 c h k k k ",
"k k k k k k k j c 8 9 4 * o                         .     .           .     .       . . .                   + * 3 4 8 v x k k k ",
"k k k k k k k j v W K 9 > +                       . X       .   .       . .                                 o * 9 9 Q v j k k k ",
"k k k k k k k j M ! R Y > @                                   .     . .             .                       + - Y R Q M B k k k ",
"k k k k k k k k M ! R Y 3 + .                       . .                     .                               + - Y R ~ M B k k k ",
"k k k k k k k j c W K 9 - + .                   .                 .   .                                     + 3 5 9 W m h k k k ",
"k k k k k k k j c a 9 3 = o                           .             .               .                       X % 3 3 W i x k k k ",
"k k k k k k k j z 7 3 - % o         . .           .               .               .                         o # > > 8 z j k k k ",
"k k k k k k k j l 8 , > % + X               X . . . .     . . . .   . .   X .   .   . . . X . .         . X O # > > 8 u h k k k ",
"k k k k k k k j z a 5 3 - @ O o         X o o o X     . X o O o .     . o o o o .     X X O o X         X O @ - 3 5 a z h k k k ",
"e.k k k k k k j v s K J 4 - # O X       o + @ + o .   . O + @ O X     X O @ + o X   . X O @ @ O       X + @ = 3 5 Y W v B k k k ",
"w.w.w.w.k k k j M W R Y 9 1 % + o .   X O @ $ @ o .   X O $ $ @ o     o + $ $ + X   . o @ % @ O X   . o + & : J Y Y Q m B k k k ",
"w.w.w.w.w.k k B M ! R R 9 > # + O X . X + @ $ @ O X . o + @ # @ o X o o @ @ @ @ o X X O @ @ @ O X X X o + $ : 9 R R ~ m B k k k ",
"w.w.w.w.e.k k k M ! R R 5 = + O o O O O O O + + O o O O O O + O O o o o O + + O O o O O + + O O O O o o O + & 2 Y R ~ v B k k k ",
"w.w.w.w.w.w.k k M ! R K 3 # o X o + + + O X X O O @ @ + o X X o + @ @ + o X o O + + + + o X X O O @ + o X o + 3 Y Y ~ m B k k k ",
"w.w.w.w.w.w.k B M ! R K > + . . X @ $ @ O X . X O @ # @ O . . X + @ @ + o .   o + $ @ + o   X O @ # @ o . . + - Y R ~ m B j w.k ",
"w.w.w.w.w.k k k M ..^ R 3 @ . X O @ & $ + X X X + # % # O X . o @ & & @ o X . O @ & & + o . X O # & # O . . + 3 R E [ m B k k k ",
"w.w.w.w.k e.k B F +. .} Y = O o + @ & $ @ O o + @ % $ # + O O + @ & & @ + o O + # & $ @ O O O @ # & # + o O * q }  .O.@.B k w.k ",
"k w.k w.k k k B F 7.1.1.E 1 @ + @ $ $ $ @ @ + @ # # $ # @ @ @ @ # # # # @ @ @ @ $ $ $ @ @ @ @ @ # % # + + @ > R  .1.,.@.B k k k ",
"k k w.k k k w.C $.7.5.2.} q & @ @ @ # # & & $ & # % # $ & # # % $ % $ % % # % % $ $ % % % $ % % % % $ @ @ % , ^ 2.4.7.@.r.k e.k ",
"k w.k k w.k k C $.;.1.1.] 4 ; @ @ % $ $ $ $ $ & $ % % # $ & & $ # $ # # % & % % # # $ # & % % % $ $ # @ # % 4 E 1.1.,.@.C k k e.",
"k k k k k k w.B N +. .| R 3 & @ @ $ # $ # $ $ $ # % # % % % # # % % $ $ % # % # $ $ # $ % # % % # % % # # % > Y }  .o.@.B w.k k ",
"k k k k k k k e.S ..] ^ J > $ @ @ # & & # # # # # % % $ # # # # # & $ % # # # # % % % # @ % # # % % # @ @ % : q E E [ m B k w.k ",
"k k k k k k k j S ` E Y 9 > & $ # # # # $ $ % # $ # # $ # % % & # # $ # # & % $ # # % % % % % # $ # # % % % - 5 R R ~ m D k k k ",
"k k k k k k k j S ..^ ^ K 4 ; = & # % % & ; ; ; & % % % & : : & & # $ & & : : & & # # & ; ; ; & % $ % % & ; , T E E [ m h w.k w.",
"k k k k k k k C F o.| | { P 2 < & % # & : < 0 : : & @ & : < 2 < & # $ & : 2 2 : & # % ; < 2 0 : % $ % & : 0 P )  .} o.N A k k k ",
"k k k k k k k C G *.3.4.>.' L 2 : & # & < 0 L 0 : % $ & 2 w L 2 : & % ; 2 H H 2 = # $ : 0 q 0 < & $ & : 0 r ) %.1.1.O.@.B k e.k ",
"k k k k k k k Z -.7.6.6.>.{ I w < & & & < 0 I 0 2 & % ; 2 r L 0 : & % : 0 L L 2 : & & : 0 L L < ; % & : 0 r ' >.6.6.7.=.C k k k ",
"k k k k k k k B -.9.6.6.>.) H 2 < ; ; ; 2 0 0 0 < : ; : < 0 w 0 : : : : 2 H H 2 : : : < 0 0 0 2 : ; : : < w ( %.6.6.8.-.B w.k e.",
"k k k k k k k k -.9.6.4.| P < : : 2 2 2 < < < < < 2 2 2 < < : < < 2 2 < 1 : : : 1 2 2 < < : < < 2 2 < : : : P | 2.6.8.-.B k k k ",
"k k k k k k k C =.;.6.4.} 4 & & : 0 w 0 < ; & ; 2 0 w 0 : ; & ; 2 w w 2 : = & : 0 w 0 < ; & = < 0 q 0 : & = 4 ] 1.6.9.=.C k k k ",
"k k k k k k k C -.9.6.4.] 5 & & : 0 / r 1 ; % ; 2 L I H < & & : 0 L I q : & & : q L I 0 ; & & < L L r < & & , ] 2.4.9.#.C k k k ",
"k k k k k k k C @.,.6.6.| J : : 0 I ( I 0 < ; < 0 / ( L 0 : : , L ( ( L 2 : : 0 L ( / H 2 ; : 0 L ( L 0 : : q } 4.0.<.#.D k k k ",
"k w.k k k k k C @.9.6.q.>.' w w w / ( ( L q 0 L L ( ( / L q 0 H I ( ( L H q 0 L ( ( ( L L 0 q I ( ( / L 0 0 R %.0.0.<.#.B k k k ",
"k k k k k k k C @.7.6.6.1.{ I L I / / / I I I I U / / I / L I I U / / / L I I I / / / / / L L / ( / / r r L ' >.0.0.8.#.C k k k ",
"k w.k w.k k k C F ;.6.3.:.' / r r r I r I I I / I I I I r I I I I I r I / I I I r r I r / r / I r / r r r / ' %.1.<.7.@.r.k k k ",
"k k k k k e.k e.D =.&.&.X._ g g g g g g f f f f d d d d f f g g m f f g f f f f f f f f f f f f d d d d d f _ X.+.;.#.D k e.k e.",
"k w.k w.k k k k r.D G F D D V V n n V n b b b b b b b b b n V n n n V n V b V b n b b n b V b b b b b b n n n D S G D r.C k k k "
};
