/* XPM */
static char *_7173_fda468e0af7ca6b4d466a0b6c38b9e14d8d670302bfd4794b67290e2cb70fbd2[] = {
/* columns rows colors chars-per-pixel */
"64 64 2 1 ",
"  c #187954",
". c #1F8259",
/* pixels */
"                                ....                            ",
". . . . . .           .         ....                          . ",
"                                ....                           .",
" . . .  . .          .          ....                         .  ",
"                                  .                            .",
". .      . .                                                 .  ",
"             .                    .                            .",
" .         .                                                    ",
"             .                    .      .                      ",
". .           .                                                 ",
"                .                 . . . .           . .         ",
" ..         . ..  . .                            . .            ",
"....         ...   .....             . .         ...            ",
"....        .... .  ....                        .....           ",
"....        .....  ......            .          ....            ",
"....        .....   ....                        ....            ",
" . .        ....      . .                       ....            ",
".           .....                               ....            ",
"  . .       .....        .                      ....            ",
"            ....                                ....            ",
"           . . .          .        . .          ....      .     ",
"         .       .              ........        ....            ",
"           . . .          .      ........       ....     . .  . ",
"         .                      ........        ...... .        ",
"           .                    .......          ....... . .    ",
"                                ......            .......       ",
"                                .....              .....  .     ",
"                               ......             . .....       ",
"                 ..             .....               . .         ",
"                ....           .....             . .            ",
"                ....            ....                 .          ",
"                ....           .....               .            ",
"                ....             .                .             ",
"                ....          . .                               ",
"                ....             .                .             ",
"                ...            .                                ",
".                 .           .     ... .                       ",
"....                                ....                        ",
".....             .           .     ....      .                 ",
".....                              .....                      . ",
"......                          ........                        ",
"......           .              ........                      . ",
".....                           ........                        ",
".... .                          ........                      . ",
" . .                            ......                          ",
"  .   .                           ..                        . . ",
" .  .   .                      . .                             .",
"      .  .                                             . . . .  ",
"       .....                  .                               . ",
"        ....                                              . .   ",
"        ....                                                 . .",
"        .....                                            .  .   ",
"        ......                                                . ",
"        ......                                                  ",
"        .....                                                . .",
"        .... .                                                  ",
"          .                                                     ",
"         .  . .                                                 ",
"           .                                                    ",
" .       .    . .                                       . .     ",
"           . .  ...                                             ",
" . .      .    .....            .....                 . . . .   ",
"     . .    . ......           .....                         . .",
" . .    . .  .......          . ..... . .  . .         . . .    "
};
