/* XPM */
static char *_1961_aadde61c4338e4c7b66ec1a0b8447a9b2d851001fc92a488bcd9fdc7d9e06606[] = {
/* columns rows colors chars-per-pixel */
"64 64 249 2 ",
"   c #020100",
".  c #0A0202",
"X  c #030903",
"o  c #0B0D0B",
"O  c #140604",
"+  c #1D0D09",
"@  c #031202",
"#  c #051D06",
"$  c #171509",
"%  c #0D1A14",
"&  c #181E19",
"*  c #26180C",
"=  c #321A10",
"-  c #0B330B",
";  c #0F2511",
":  c #163B1B",
">  c #2D2119",
",  c #3F271B",
"<  c #1A2C23",
"1  c #183C2D",
"2  c #2A3125",
"3  c #243E33",
"4  c #3B3B30",
"5  c #5D2D0E",
"6  c #4C2719",
"7  c #45301F",
"8  c #413B19",
"9  c #5D3C19",
"0  c #6B3C0F",
"q  c #67351B",
"w  c #683C1F",
"e  c #553322",
"r  c #543D2D",
"t  c #0E4214",
"y  c #2F4218",
"u  c #3D521E",
"i  c #13601C",
"p  c #1A4828",
"a  c #185320",
"s  c #16573D",
"d  c #245A26",
"f  c #264336",
"g  c #22523F",
"h  c #32503E",
"j  c #196D24",
"k  c #0D7724",
"l  c #0C7E21",
"z  c #0F7B29",
"x  c #097E28",
"c  c #177721",
"v  c #1A772E",
"b  c #226C2F",
"n  c #3A6522",
"m  c #2A7223",
"M  c #287830",
"N  c #565316",
"B  c #77510C",
"V  c #66471B",
"C  c #76401C",
"Z  c #5D711C",
"A  c #46513D",
"S  c #505130",
"D  c #66422A",
"F  c #6E4228",
"G  c #734A20",
"H  c #754729",
"J  c #7E5627",
"K  c #6C4A31",
"L  c #624B3D",
"P  c #7F5634",
"I  c #4D7529",
"U  c #787820",
"Y  c #1F5B43",
"T  c #194651",
"R  c #315A47",
"E  c #1D6B4D",
"W  c #197552",
"Q  c #187653",
"!  c #177854",
"~  c #167954",
"^  c #177954",
"/  c #187954",
"(  c #187A54",
")  c #187A55",
"_  c #197A55",
"`  c #187B55",
"'  c #197B55",
"]  c #1A7B55",
"[  c #197D55",
"{  c #1B7D56",
"}  c #197E56",
"|  c #1B7E57",
" . c #1C7F57",
".. c #2B6744",
"X. c #33624E",
"o. c #367148",
"O. c #2B6C51",
"+. c #346F58",
"@. c #237557",
"#. c #2C7857",
"$. c #227B59",
"%. c #247F5C",
"&. c #387353",
"*. c #31775B",
"=. c #324C72",
"-. c #376462",
";. c #42404D",
":. c #565146",
">. c #404E5F",
",. c #665B45",
"<. c #725E59",
"1. c #5A6848",
"2. c #42705B",
"3. c #7C6242",
"4. c #5B7E61",
"5. c #6A6769",
"6. c #895B1E",
"7. c #967219",
"8. c #9A782F",
"9. c #97743F",
"0. c #A17823",
"q. c #A3763C",
"w. c #9F7747",
"e. c #96734A",
"r. c #857956",
"t. c #9C7D56",
"y. c #AC7F4F",
"u. c #1A8726",
"i. c #2B8528",
"p. c #238F29",
"a. c #37882A",
"s. c #2A992C",
"d. c #369B29",
"f. c #308235",
"g. c #3C9636",
"h. c #329930",
"j. c #38A430",
"k. c #3EB03B",
"l. c #428C15",
"z. c #42A21F",
"x. c #6DAC1F",
"c. c #7DA21E",
"v. c #78B117",
"b. c #5B8F25",
"n. c #4D962C",
"m. c #5C9827",
"M. c #4E9B3D",
"N. c #7A8E3A",
"B. c #45A629",
"V. c #48A434",
"C. c #41AA31",
"Z. c #1D8058",
"A. c #1E8158",
"S. c #1E8259",
"D. c #1F8259",
"F. c #38835F",
"G. c #2D8361",
"H. c #3D8D64",
"J. c #708547",
"K. c #73927C",
"L. c #9D8213",
"P. c #B19117",
"I. c #B69D1B",
"U. c #BDA616",
"Y. c #868429",
"T. c #918120",
"R. c #928D2A",
"E. c #A88428",
"W. c #AA843A",
"Q. c #B58F33",
"!. c #A8A329",
"~. c #BBB035",
"^. c #CAB51C",
"/. c #C09D34",
"(. c #C2AC26",
"). c #D2B637",
"_. c #D9BF32",
"`. c #FEFE07",
"'. c #ECE514",
"]. c #E8F71E",
"[. c #F7F312",
"{. c #FDFB12",
"}. c #DDC926",
"|. c #C6C03B",
" X c #D7D732",
".X c #E3D525",
"XX c #EEDF29",
"oX c #E2CF36",
"OX c #E9DA35",
"+X c #EED03B",
"@X c #D7E62A",
"#X c #EFF527",
"$X c #FDF923",
"%X c #FDF428",
"&X c #EEE93F",
"*X c #FBED37",
"=X c #FFF733",
"-X c #879E5D",
";X c #A4824D",
":X c #BC8B45",
">X c #B0B154",
",X c #93866F",
"<X c #859B70",
"1X c #AE8B60",
"2X c #B6986E",
"3X c #A89776",
"4X c #B7A17D",
"5X c #C39353",
"6X c #C09E5C",
"7X c #DB9F56",
"8X c #D0A04C",
"9X c #DDA855",
"0X c #D5AB5F",
"qX c #E0AE4A",
"wX c #E1AE5D",
"eX c #E6BB60",
"rX c #EBC845",
"tX c #2A4385",
"yX c #325786",
"uX c #58698C",
"iX c #3DA3B3",
"pX c #609E96",
"aX c #3CB3D4",
"sX c #BCAE92",
"dX c #9099AD",
"fX c #87B8A3",
"gX c #A3B0B5",
"hX c #CAAA80",
"jX c #CFBA8F",
"kX c #D8B385",
"lX c #D8B890",
"zX c #CABCA1",
"xX c #DDC299",
"cX c #DBD7BA",
"vX c #E4CFA8",
"bX c #EFD6B0",
"nX c #F7DFB2",
"mX c #F5E0BA",
"MX c #FDE7BA",
"NX c #FBE3BE",
"BX c #B6DAC7",
"VX c #B4DDD4",
"CX c #C2CAC6",
"ZX c #E7DFD5",
"AX c #FDEAC3",
"SX c #FDEFC8",
"DX c #F5EDD1",
"FX c #FFF6D5",
"GX c #FDFAF0",
/* pixels */
") ' ' ' ' ' ' ' / / / / / / _ _ _ _ / / / / / / _ / / / / / ^ _ A.D.D.Z./ / / / / / / / / / _ _ / / / / / / / / / / _ _ _ _ _ ) ",
"_ ` { ] { ] { ] { ] { _ / / / / / / / / / _ { _ / / _ @.O.#.F.H.H.H.F.*.O.@./ / / / / / / / / / / / / / / / / / / / / / / _  .' ",
"_ _ ` _ ` _ _ / ] ( ] / / / / / / / / / / _ _ / / / { g o ; b b b b d % o X._ / / / / / / / / / / / / / / / / / / / / / / ` ] ' ",
"_ { ` { ] { ( ( { ] { _ / / / / / / / / _  .Q W W _ $.g @ - j c c v i # # O.] / W W Q / / / / / / / / / / / / / / / / / _ { _ ' ",
"_ ] ` ` ( ( / / ` ` ` _ / / / / / / / / / ( 1 < 1 o.f.f.i.i.d.d.d.d.d.i.i.f.f...: < s ` / / / / / / / / / / / / / / / / ( ] ` ' ",
"_ ` { / / / / / _ { ] { _ _ / / / / / _ ` ` %   # b c j.k.C.B.B.C.B.V.C.k.p.c d @   1 { ` / / / / / / / / / / / / / / / _ { ` ' ",
"_ _ _ / / / / / / ( ( ` ` { ( / / / ( E s s : ; t v c s.h.h.h.s.h.h.h.h.h.p.c j - ; 1 s Y Q / / / / / / / / / / / / / / / ( _ ' ",
"_ { / / / / / / / / ` { _ ] / / / / ` g o X d M v z z z z k l l l l l k z k z z v M :   & E ( / / / / / / / / / / / / / / / / ' ",
"_ ` _ / / / / / / / ( ( `  .` / / { Z.s @ @ d v z x x z k c k c c k l k k x x x z v t @ ; W %.{ / / / / / / / / / / / / / / / / ",
"| ` { _ / / / / / / / / / ] { ( $.R 1 p p a f.g.h.s.s.s.h.h.h.s.h.h.h.h.s.s.s.s.h.g.m a p p 1 O._ / / / _ ( _ / / / / / / / / / ",
"_ _ ] / / / / / / / / / ( / ` ` %.f   - M c h.V.B.z.z.z.B.B.z.z.z.z.z.B.B.z.z.z.B.V.p.v b #   R ] _ _ ] { ] { _ / / / / / / / / ",
"/ Z. .` / / / / / / / _ { ] Z. .%.f   : M i.n.m.m.x.x.x.b.m.x.v.v.v.x.m.m.x.v.x.b.n.a.i.M # X X.{  .{  .` / _ / / / / / / / / / ",
"S.D.D. .( / / / / / / / { Z.D.Z.%.f   p M.m.N.Y.!.&X&X!.Y.!.].].].].@XR.Y.|.#X XR.N.N.M.M.;   R { A.D.A.] / / / / / / / / / / / ",
"S.D.D.A.( / / / / / / _ Z.D.D. .%.f X : M.b.Y.T.I.*X*XU.7.I.%X$X{.`.'.L.L._.=XXXL.T.Y.b.b.; X X.D.A.D.D. .( / / / / / / / / / / ",
"S.D.D.A.( / / / / / / _ A.D.@.< p p a n N.Y.|. X}.U.U.}.oX_.U.U.'.`.[..XoX^.U.^.oXoX~.>X-Xn a p 1 1 G.Z.] / / / / / / / / / / _ ",
"S.D.D.Z.( / / / / ~ ~ ` Z.D.O.  @ a M I Y.L.OX=XOXL.0..X=XoX0.7.}.`.`.{.{.^.7.P.*X=X.X).>XI M t   & G. .( ~ ~ / / / / / / / ! _ ",
"} Z.{  .( / / / / $.#.#.F.H.&.+ * u n Z !.P.}.OX_.W.W._.OX}.P.P..X`.`.`.{.^.8.Q.rXOX}.}.|.Z I y + > H.H.F.#.#.] / / / / / / / _ ",
"| ] _ ` _ ( / / ~ 4.r.r.4XsX,Xr K V N R.&X*XI.L.E.0XwXQ.L.I.*X%X{.`.`.`.{.^.q.q.0.L.^.=X&XR.R.3.D K 4XsX3Xr.r.F.~ / / / / / / _ ",
"_ _ { ] { _ / / ! 4.t.w.hXlX1X9 w C 0 L.%X%XI.7.E.qXqXW.8.I.[.`.`.`.`.$X%X(.8.q.W.0.).=X*XP.0.6.0 G hXlX4Xw.t.F.~ / / / / / / / ",
"/ / _ / _ / / / ! 4.J J xXbXxX2X4Xw.6.I.%X$X^./.).+X+XQ.8.I.[.`.`.`.[.^.(.~.6X6XW.8.Q.^.^._._.Q.6.9.vXmX2XG P &.~ / _ / / / / / ",
"/ / / / / / / / ~ 1.q q vXSXSXSXAX2X8.(.%X%XoXqXrX=X*X/.8.I.[.`.`.`.'.L.8.6XkXhXw.9.q.0.L.&X=X).8.;XmXFX4X5 G &.~ ( { _ / / / / ",
"/ / / / / / / / ` 2.,.,.zXvXcXVXBX3X8.U.%X%X_.8X_.%X[.^.P.^.{.`.'.XX+XW.t.hXxXkX1X1Xy.q.E.oXOX>XK.K.zXvX3X,.,.#.( ` ` ` / / _ / ",
"/ / / / / / / / / %.G.F.L H 4.aXaXK.8.U.%X%XI.0.I.%X{.[.[.[.`.{.^.E.Q.0XhXvXMXNXmXmXhXw.q.E.R.pXaXiX,.H 1.G.G.{ _ { ` { ( ( { / ",
"/ / / / / / / / _ { ( / r 9 2.aXaXK.8.(.%X*XI.0.I.*X{.{.{.{.{.$XI.8.W.kXkXbXAXAXAXSXhXw.q.8.Y.pXaXiXA e h Z.[  ._ ` ( ` / / _ / ",
"/ / / / / / / / / _ _ { &.&.2.T T ,.J E.rXrX0.B 7.rX+XrXrXrX+X+XQ.q.y.bXvXmXAXnXxXvX1XJ 6.). XJ.T g &.o.#.D.A.A.{ { ` { _ / / _ ",
"/ / / / / / / / / / / _ `  .O.X . e 0 6.9XwX6.0 6.wX9X9X9X9XqXqX:Xq.1XNXAXAXAXnXlXlXe.0 B XX$XU   % G.D.D.D.D.D. .] ` _ / / / / ",
"/ / / / / / / / / / / / / ] O.X . 9 B 7.8X0XJ 9 J 0X7X9X9X9X7X7X:Xy.1XmXNXbXbXvXsXhXe.0 B XX$XU   % %.Z.D.D.D.D.{ ( { _ / / / / ",
"/ / / / / / / / / / / / / _ E   $ ~.*X(.B G = O = ;Xq.8XwX5XC 0 1XlXkXlXlXe.V r + + K w.E.XX$XU   % %.[ A.D.D.A. ._ _ / / / / / ",
"^ / / / / / / / / / / / / ` E   $ ~.$X^.0 D * . = ;Xq.8XeX5X0 5 1XlXkXlXxX9.9 r O . L ;XP.XX=XU   % %.]  .{  .` _ / / / / / / / ",
"^ / / / / / / / / / / / / _ E X $ !.&X/.0 D 4 f h <.<.e.q.y.y.t.hXvXxXt.t.,.;.;.f f S P 7.oXOXU . % %.{ ] _ _ / / / / / / / / / ",
"^ / / / / / / / / / / / / ] E   + ;XeX:XC w ..~ @.tXtX;.e P lXlXbXSXvXD e ;.tX=.G.%.A w G 0XeXJ . % %.` ` { / / / / / / / / / ^ ",
"/ / / / / / / / / / / / / ` O.< 2 e.6X9.9 e O.G.G.tXtX5.3.e.kXlXbXAXvX3.<.5.tXyXfXfX1.e G 1X5X,.< 1 %. ._ _ / / / / / / / / / / ",
"/ / / / / / / / / / / / / / ] #.F.A * * O O <XCXgXtXyXgXZXZXmXnXMXAXSXZXZXdXtXuXZXFX5.. + = = X.*.@.Z.` / / / / / / / / / / / / ",
"^ / / / / / / / / / / / / / ~ ( G.f         zXFXCX=.=.CXGXGXSXMXMXMXSXGXGXdX=.uXZXFX5.        X.` ( ` / / / / / / / / / / / / ^ ",
"/ / / / / / / / / / / / / / / _ D.O.Y 1 X . ,XjXsXdXdXZXGXFXAXMXMXMXAXFXGXCXdXgXsXjX,.+ * . . X.] _  ._ / / / / / / / / / / / ^ ",
"/ / / / / / / / / / / / / / / _ Z.D.D.Y o . 3.9.3XDXDXAXAXAXMXAXAXAXNXAXAXSXDXcXe.9.K , , O . X.] / ( / / / / / / / / / / / / ^ ",
"Z.] _ _ / / / / / / / / / / / / _ ] Z.Y o . 3.w.2XmXnXNXNXMXMXNXNXNXNXNXnXnXmXvX;Xw.H 6 , + O R W W _ / / / / / / / / / / / / / ",
"S.A.Z.Z.` / / / / / / / / / / / / / [ Y o . r H F P H 2XlXjXjXlXlXlXkXlXlXw.H P G H q 6 6 r L > o ; $./ / / / / / / / / / / / / ",
"S.D.D.D.Z._ / / / / / / / / / / / _  .Y o . r D D q q 2XxXjXjXjXjXjXjXjXxXe.9 D F H q 6 6 L L > . % $./ / / / / / / / / / / _ / ",
"S.D.D.D.A.] / / / / / / / / / / / / ` Y o   4 :.:.1.1.r.r.r.-X-X-X<X<X<X<X1.u S , 6 , = = , , 4 3 1 $./ / / / / / / / / / _  ./ ",
"S.D.D.D.D.Z._ / / / / / / / / / / _ ` Y o   ;.>.-._ $.h   ; b j j j j j j m M d @     . . . . X.] / / / / / / / / / / / / / ] / ",
"S.D.D.D.D.A._ / / / / / / / / / _ %.$.R $ o ;.=.-.G.G.h   - v z x x x l z z z d @ O .   . & & +._ / / / / / / / / / / / / _ { / ",
"S.D.D.D.Z.{ / / / / / / / / / / ] h 2 4 r 4 >.=.>.1.:.2 ; t z x x z k k z z c n 8 D >   % O.*.%./ / / / / / / / / / / / / / { / ",
"S.D.D.A.{  .( / / / / / / / / ~ $.3   = K L >.>.:.D D y : t j k k k c v z l c n N K ,   & E ` ~ / / / / / / / / / / / / ! _ { _ ",
"_  . . .( _ _ / / / / / / / / ~ $.3   = F F L :.r , 7 8 8 N c.v.v.v.c.u n n n n Z I d - : s p O._ / / / / / / / / / / / _ ( ] / ",
"/ {  .{ _ _ { _ ( / / / / / / ~ $.3   = F C C H e .   7 F 7.$X{.`.{..XG F V V N m.V.p.v b ; X X.] / / / / / / / / / / ( { ` { _ ",
"_ { ] _ { _ ` _  .` / / / / / ~ $.3 . = F 0 0 V e . X 8 V 7.#X].].#X XV V V V N m.B.p.x b # X X.] / / / / / / _ / _ / ` _ ` ] | ",
"_ _ / / _ _ { ` {  .] _ / / / ~ %.f   r hX4XxXvX3XO X a m m l.l.l.l.l.m n I b.n.n.B.p.x v # X X.] / / / / / _ { ] { ] { ` { ] _ ",
"_ / / / / / ]  .Z.D.A.Z._ / / ~ $.f   L xXxXNXFXzXO X a z l k k k k z l k h.C.j.V.V.p.z b #   X.] / / / / / / _ / _ ` _ ` ` { _ ",
"_ / / / / / / ] A.D.D.A.` / / ~ $.g < A ,X,X4XsX,X$ # i l l u.u.u.u.u.u.u.h.C.j.d.g.m a p 1 < O._ / / / / / / / / ( { ` { { _ _ ",
"/ / / / / / / _ Z.D.D.A.] ! / / / / / g O . . X @ : t j l u.C.C.V.C.C.C.C.B.B.d.c v : X ; E ! / / / / / / / / / / ` _ / {  ._ | ",
"/ / / / / / / _ Z.D.D.D.Z.` / / / / ` g & % % % ; : t i c i.M.V.V.M.V.V.V.V.n.g.c M :   & E _ / / / / / / / / / _ { ( (  .] ` / ",
"/ / / / / / / _ Z.D.D.D.D.Z._ / / / / @.*.*.*.*...# @ # - ; - - - - - - - y u u y u ;   & E ( / / / / / / / / / / _ / / / ( { / ",
"/ / / / / / / _ Z.D.D.D.D.Z.] / / / / / ~ ~ ~ _ @.X                     . > , 6 6 6 *   & E ` ~ / / / / / / / / / / / / / _ _ _ ",
"/ / / / / / / _ A.D.D.D.A.{ / / / / / / / / / ( @.1 1 1 1 1 1 1 1 1 1 X . > 6 6 e e = + & g s @._ / / / / / / / / / / / _ { ` | ",
"/ / / / / / / _ Z.D.D.Z.{ { _ / / / / / / / / / _ %.%.%.%.%.%.%.%.Z.@.o . = 6 5 F H e , , $ o X.] / / / / / / / / / / / / ( / _ ",
"/ / / / / / / / _ {  .] _ _ _ / / / / / / / / / / ~ ~ ~ ~ ~ ~ ~ ~ ~ @.o . = 6 5 C H q 6 , O . X.] / / / / / / / / / / / / / / / ",
"' / / / / / / / ( { ] ` { ` { _ / / / / / / / / / / / / / / / / / _ @.o . , D q C C w w e + . X.] / / / / / / / / / / / / / / / ",
"' _ / / / / / / / ] _  .] / _ _ _ / / / / / / / / / / / / / / / / / #.o . 7 K H H H H K D + . X.] / / / / / / / _ ( _ / / / / _ ",
"' { _ / / / / / ( { _ ` ( ` { ]  .] ( / / / / / / / / / / / / / / / $.< < 4 r e e e e e 7 2 & X._ / / / / / / ( { ` { ` / / / _ ",
"' ] ( _ / / / / / _ ` { ` { ] ] A.D.Z.] / / / / / / / / / / / / _ _ _ W $.R O O O O O O & E W / / / / / / / _ ( ] ( ] ( _ ( / _ ",
"' { ` { _ ( ( ( / / { ] _ _ ]  .D.D.D.Z.` / / / / / / / / / / ` Z.A.A.A.D.h o o o o o o & E _ / / / / / / ( { ] { ] { ] { { ( _ ",
"' ] ( ` _ { ] { ] / ` _ { ] Z.D.D.D.D.D.] / / / / / / / / / _  .D.D.D.D. .*.O.+.+.+.+.+.+.] / / / / / / / / _ ` _ ` ` _ ] { ] _ ",
") _ _ _ _ _ _ _ | _ | / / | S.S.S.S.S.S._ / / / / / / / ^ _  .{ A.D.D.Z.Z./ Z._ | / / | _ | _ _ _ _ / / / / / ' ' ' ' ' ' ' ' ) "
};
