/* XPM */
static char *_0664_fb999a24ecf793d0117314490c6cb2613fa5325ad4212ce2747773c32e07d465[] = {
/* columns rows colors chars-per-pixel */
"64 64 246 2 ",
"   c #080503",
".  c #080F08",
"X  c #180C07",
"o  c #061B07",
"O  c #111815",
"+  c #24160F",
"@  c #032D0B",
"#  c #0B320F",
"$  c #172118",
"%  c #1C381C",
"&  c #2B2116",
"*  c #292B1F",
"=  c #3F2314",
"-  c #072122",
";  c #122920",
":  c #1D2C23",
">  c #1E392C",
",  c #1F3E31",
"<  c #332E26",
"1  c #373F31",
"2  c #4D2914",
"3  c #572E1A",
"4  c #49361E",
"5  c #673111",
"6  c #68391B",
"7  c #713D1B",
"8  c #4B3F2C",
"9  c #5A3920",
"0  c #0B4312",
"q  c #0C4C19",
"w  c #0D571B",
"e  c #1D5413",
"r  c #254418",
"t  c #3A4217",
"y  c #0A631E",
"u  c #1D6615",
"i  c #256C1B",
"p  c #184328",
"a  c #1D512D",
"s  c #1D503E",
"d  c #204537",
"f  c #2C4C3F",
"g  c #0E6A21",
"h  c #1A6F25",
"j  c #097527",
"k  c #0D7928",
"l  c #0E7C28",
"z  c #1B6835",
"x  c #1B763A",
"c  c #396A24",
"v  c #217723",
"b  c #4C571E",
"n  c #5C4637",
"m  c #604225",
"M  c #6B4C2F",
"N  c #7C4B21",
"B  c #4A6C27",
"V  c #697D37",
"C  c #6C703A",
"Z  c #1B5744",
"A  c #3D4F45",
"S  c #285544",
"D  c #235845",
"F  c #2B5B47",
"G  c #345549",
"H  c #365D4E",
"J  c #3E5E4A",
"K  c #1A7352",
"L  c #1C7754",
"P  c #187954",
"I  c #197954",
"U  c #187A55",
"Y  c #197A55",
"T  c #197B55",
"R  c #1A7B55",
"E  c #1E7B57",
"W  c #1A7C55",
"Q  c #1B7D56",
"!  c #1B7E56",
"~  c #1B7E57",
"^  c #1C7F57",
"/  c #21614A",
"(  c #2A664F",
")  c #216B4F",
"_  c #286F54",
"`  c #346A54",
"'  c #217555",
"]  c #2E7753",
"[  c #277A54",
"{  c #277859",
"}  c #227E59",
"|  c #32735A",
" . c #3C755D",
".. c #31795B",
"X. c #377E5C",
"o. c #2C4073",
"O. c #287E7D",
"+. c #4B4740",
"@. c #444A5E",
"#. c #4E5354",
"$. c #6A5C47",
"%. c #576842",
"&. c #43734D",
"*. c #466553",
"=. c #7C6240",
"-. c #7A6B56",
";. c #67705F",
":. c #737E54",
">. c #425170",
",. c #4E7562",
"<. c #487F66",
"1. c #616460",
"2. c #687B71",
"3. c #886417",
"4. c #9A711F",
"5. c #80512F",
"6. c #805D32",
"7. c #895931",
"8. c #8E633D",
"9. c #966931",
"0. c #897F31",
"q. c #9A7A35",
"w. c #9E743D",
"e. c #907D3D",
"r. c #89534D",
"t. c #8D6D4B",
"y. c #9C7452",
"u. c #A27646",
"i. c #A97D40",
"p. c #837D69",
"a. c #10872C",
"s. c #1C8929",
"d. c #298C25",
"f. c #21942B",
"g. c #3E9227",
"h. c #339D29",
"j. c #399D28",
"k. c #39A52A",
"l. c #468E17",
"z. c #559A15",
"x. c #5EA618",
"c. c #528224",
"v. c #6E8B34",
"b. c #4CA428",
"n. c #44AD29",
"m. c #1E8158",
"M. c #1E8259",
"N. c #1F8259",
"B. c #26805D",
"V. c #318258",
"C. c #2C8060",
"Z. c #2F8663",
"A. c #378063",
"S. c #398366",
"D. c #638754",
"F. c #79955D",
"G. c #518867",
"H. c #55826F",
"J. c #468C73",
"K. c #668266",
"L. c #77807C",
"P. c #7C987B",
"I. c #828917",
"U. c #A2AC17",
"Y. c #959436",
"T. c #A18B2D",
"R. c #BB9B2C",
"E. c #AA8231",
"W. c #AD8834",
"Q. c #B28A37",
"!. c #BD9736",
"~. c #A3A523",
"^. c #BAB520",
"/. c #ADA537",
"(. c #CBBA1A",
"). c #C3A52C",
"_. c #C8B025",
"`. c #D2BA23",
"'. c #C6A23D",
"]. c #D1AE38",
"[. c #E3BA3E",
"{. c #BDCC16",
"}. c #C4C209",
"|. c #D6CC0B",
" X c #D7C51C",
".X c #DECE1A",
"XX c #DED411",
"oX c #E3D711",
"OX c #ECD91E",
"+X c #D2ED07",
"@X c #D5E112",
"#X c #ECE30F",
"$X c #F2ED08",
"%X c #E8F006",
"&X c #F4FB00",
"*X c #FDFE00",
"=X c #F8F309",
"-X c #F6E917",
";X c #E6CE28",
":X c #E5C434",
">X c #EFCB3F",
",X c #819A47",
"<X c #9C805D",
"1X c #B08248",
"2X c #BE8A48",
"3X c #B28B5B",
"4X c #ABB24E",
"5X c #9F8C70",
"6X c #B9966F",
"7X c #C39748",
"8X c #CE9952",
"9X c #D5A84D",
"0X c #E1B346",
"qX c #C39F6B",
"wX c #C8A578",
"eX c #E8C145",
"rX c #284E86",
"tX c #4E6492",
"yX c #496AA5",
"uX c #607CB2",
"iX c #0D839C",
"pX c #339394",
"aX c #54948C",
"sX c #7486AD",
"dX c #8E8582",
"fX c #9D9E97",
"gX c #B0A493",
"hX c #BEB09F",
"jX c #8E9DB8",
"kX c #C2A581",
"lX c #CDAE82",
"zX c #D0B58C",
"xX c #DAB88F",
"cX c #E3C688",
"vX c #D8C5A0",
"bX c #E8CAA1",
"nX c #EBD3A9",
"mX c #F7E0B7",
"MX c #B7B9C2",
"NX c #BEC6D0",
"BX c #D2CDCA",
"VX c #E5DAC3",
"CX c #DAE2DD",
"ZX c #F9E7C3",
"AX c #FFF3C7",
"SX c #FBF7EA",
/* pixels */
"U T T T T T T P P P P P P P P P P P P P P P T P P P P P P P P T m.N.N.m.P P P P P P P P P P P P P P P P P P P P P P P P P P W U ",
"W T Q R Q R Q R Q R Q Y P P P P P P P P P Y Q Y I I I I I I I R m.N.N.m.L I I I P P P P P P P P P P P P P P P P P P P P P Y ^ T ",
"W Y T Y T Y Y P T Y R I P P P P P P P P P Y Y L { { | ..........X.X.X.X.| | | L I P P P P P P P P P P P P P P P P P P P P T R T ",
"P Q T Q R Q P Y Q R Q Y P P P P P P P P Y Q Q { | S ; z x x x x x x x z % > f A.B.P Y P P P P P P P P P P P P P P P P P Y Q Y T ",
"W R T T Y Y P P T T T Y P P P P P P P P Y Q ' ( H , o y j k j j j j l y @ # >  .C.I Y Y P P P P P P P P P P P P P P P P P R T T ",
"W T Q P P P P P Y Q R Q Y Y P P P P P P Y } / d > p y j l l k l l l l k y y a f ( { R R P P P P P P P P P P P P P P P P Y Q T T ",
"P Y Y P P P P P P P Y T T Q Y P P P P L ' A.d # @ w a.k k l l l l k k l a.l g o f <.C.B.P P P P P P P P P P P P P P P P P P Y T ",
"P Q P P P P P P P P Y Q Y R P P P P I L {  ., # @ w a.k k k l l l k k l a.a.g o f <...{ I P P P P P P P P P P P P P P P P P P P ",
"W T Y P P P P P P P P Y T ^ T P P } B...H O q g j j k j j j j j j j j j j j j j q ; > s S.E P P P P P P P P P P P P P P P P P P ",
"! T Q Y P P P P P P P P P R Q Y E ' ( ( S # g s.f.s.s.s.s.s.s.s.s.s.s.s.s.s.s.f.g q p a ( ) K P P P P P Y P Y P P P P P P P P P ",
"T Y R P P P P P P P P P Y Y R Q C./ d p w g d.h.j.h.h.j.j.h.h.h.j.j.h.h.h.h.h.k.d.h y w p D ) P P Y P R Q R Q Y P P P P P P P P ",
"T ^ ^ T P P P P P P P Y Q R ^ m.Z.S O # w s.j.b.b.b.b.b.b.b.b.b.b.b.b.b.b.b.b.b.j.d.a.g o d ) Y T ^ Q ^ T P Y P P P P P P P P P ",
"M.N.N.^ Y P P P P P P P Q m.N.} J.G O % u k.V 0.T.^.@X0.0.~.+X{.Y.Y.{.+X+X+X{.e.V g.f.v o f | Z.B.m.N.m.R P P P P P P P P P P P ",
"M.N.N.m.Y P P P P P P Y m.N.N.} J.G $ % i n.V q.!. X%Xq.q.^.*XXXT.T.|.&X&X%XXXw.V g.h.v o A  .Z.Z.m.N.N.^ Y P P P P P P P P P P ",
"M.N.N.m.Y P P P P P P Y m.N.} { ` a 0 e B v.~._.`.`.`._._.XX*XXXW.W.XX=XXX.X`.`./.Y.,Xv.r a F ` ] B.N.m.R Y P P P P P P P P P P ",
"M.N.N.m.Y P P P P P P Y m.N.B.` p q y c V q.(..X.X_.!..X#X$X*XoXW.W.XX$X_.).R.oX.X].7XY.c w p , ( Z.N.N.Y P P P P P P P P P P P ",
"~ ^ Q ^ Y P P P P P P Y m.Z.A.*.* r i B e.2X`..X X_.!.OX-X=X*XoXW.W.oX#XR.Q.i.XXOX:X[.'.c.e % * J J.B.} R I I P P P P P P P P P ",
"~ R Y T Y P P P P P Y R m.Z.<.;.m 6 6 6.1X9X1XQ.R. X=X[.0X;X*XXXE.E.XX#X).R.w.i.).XX$X|.3.6 9 m %.G.Z.V.[ E E P P P P P P P P P ",
"P Y Q R Q Y P P P P L [ V.S.H.;.5.N N 9.!.eX'.)._..X-X:X[.;X#X XR.R..X.X).!.1Xu.).oX=XXX4.5.6.=.:.G.S.&.&.] [ P I P P P P P P P ",
"P P Y P Y P P P P P L [ V.<.H.;.7.7.5.9.'.>X].).`..X-X:X:X;XXX X).). X.X'.7X3Xu.).oX=XXX4.7.8.t.:.G.S.%.%.&.] P I P Y P P P P P ",
"P P P P P P P P P Y ' ..X.<.H.2.p.t.t.Q. X=X$X#XOX;X[.-X#X`.w.R.oX.XR.1XqXqXqXu.R.oX&XoXE.3X<Xp.K.G.H.%.%.] ] P I Y ^ Y P P P P ",
"P P P P P P P P Y Q L [ X.X.<.2.L.p.8.E.(.-X#X.X X[.0X=X$X_.r.W.#X#XW.y.qXwXlX6X9X;X#X.XW.5XP.aXH.<.K.;.&.] [ P Y T T T P P Y P ",
"P P P P P P P P P R R } } .. .H.L.-.5.9.R.:X).R.!.'.0X=X$X_.r.W.#X#XW.y.qXwXxXbXcXeX:X].Q.P.aXpXJ.,.D.G.A.} E Y R ^ T Q Y Y Q T ",
"P P P P P P P P Y Q Y R Y ' ]  .*.C 0.q.E.7Xi.u.1X7X[.=X$X XE.).OX;XW.y.wXlXbXmXcXqX2X2X!.F.pXiXO. .] } N.m.Q ^ Y T Y T P P Y P ",
"P P P P P P P P P Y Y Q Y L ] ` J C T.T.E.1Xu.u.1X7XeX=X$X.XR._.OX:XE.y.lXzXbXmXxX3Xi.Q.).,XJ.iXO. .] } N.N.m.m.Q Q R Q Y P P P ",
"P P P P P P P P P P P Y P Y K D % I.%X(.4.6 9.1X2X8XeX$X*X*X&X-XeX9Xw.y.vXnXZXbX6X8.7 3.oXU.B - D Z.N.N.N.N.N.N.^ R T Y P P P P ",
"P P P P P P P P P P P P P Y K Z % I.@X(.E.N N 6.8.i.9X;XOX-X-X;X!.2X3X6XkXkXkX5Xt.7.N 4.#XU.b - s C.Q m.N.N.N.N.Q Y Q Y P P P P ",
"P P P P P P P P P P P P P P K Z r C 4X/.W.8.9 4 9 6.7X].[.eX>X].4.9.qXwX<Xy.=.8 n 6.9.W.#XU.b - s B.^ Q m.N.N.m.^ Y Y P P P P P ",
"P P P P P P P P P P P P P P K Z r %.L.p.<Xw.8 < < n u.2X8X8X8X1X7.8.kXkX6.M 2 $ 8 6.i.!.OX~.b - s B.Y R ^ Q ^ T Y P P P P P P P ",
"P P P P P P P P P P P P P P K / $ m u.8.5.7 gXMXMXsXo.M N 7 5 8.xXzX8.9 @.>.tXNXgXt.N 9.0Xq.8 - Z B.R Q R Y Y P P P P P P P P P ",
"P P P P P P P P P P P P P P K / : m w.8.5.7 hXBXNXsXo.M N 7 5 8.vXvX8.9 @.>.yXCXhXt.7 7.9Xq.8 ; Z B.Y R Y Q Y P P P P P P P P P ",
"P P P P P P P P P P P P P P L _ A n M M N 5.vXVXNXsXrXdX5X5Xy.6XnXVXkXdXtXtXyXCXgX$.= 2 6.$.*._ _ R R Q Y I P P P P P P P P P P ",
"P P P P P P P P P P P P Y P L ..2.#.* 4 N i.bXVXMXsXrXMXBXVXvXnXmXZXVXMXuXyXyXCXgX+.X X & A ` { E Y ^ R P P P P P P P P P P P P ",
"P P P P P P P P P P P P Y P L | ,.+.& 4 M <XlXzXhXjXuXCXSXSXAXAXZXZXSXCXjXjXsXvX5X1   . : F ' E R P T P P P P P P P P P P P P P ",
"P P P P P P P P P P P P P P K / : = 6 n #.>.-.3XwXvXZXZXZXZXmXmXZXZXZXZXZXVXvXqX=.* O : ,.{ L P P Y ^ Y P P P P P P P P P P P P ",
"P P P P P P P P P P P P P P K / $ = 7 n @.rX$.t.1X6XvXbXnXnXnXnXnXnXnXnXvXxXkXu.m & ; , S.E P I P P Y P P P P P P P P P P P P P ",
"~ R Y Y P P P P P P P P P P K / $ = 7 n @.rX$.8.u.3XzXbXbXnXnXnXbXbXnXbXxXlX6Xw.9 & ; , S.E P I P P P P P P P P P P P P P P P P ",
"N.m.m.m.T P P P P P P P P P L / ; = 7 n @.rXn 7 7 7 N wXxXxXxXxXxXxXbXlX8.5.3 5 = + ; , A.E Y P P P P P P P P P P P P P P P P P ",
"N.N.N.N.^ Y P P P P P P P P I K F 1 = < > s 9 7 7 b c D.D.D.D.D.D.D.$.-.5X5XgXhX-.< $ > S.E Q I P P P P P P P P P P P P P P Y P ",
"M.N.N.N.m.R P P P P P P P I I I A.S : $ @ 0 4 m M B a.v v h h v v h o < fXMXSXSXfX+.O > <.E I I P P P P P P P P P P P P P Y ^ P ",
"M.N.N.N.N.m.Y P P P P P P I I I C.( f > # # t b b c v l.z.z.z.l.v e o * L.dXBXBXdX+.& < *.{ L I P P P P P P P P P P P P P P R P ",
"M.N.N.N.N.m.Y P P P P P P P P P E A.H.,.A . q h c b N }.@X%X%X}.3.3 X . & < 8 8 m m 6 9 & F ' P P P P P P P P P P P P I P Y Q P ",
"M.N.N.N.m.Q P P P P P P P P P P L S.J.,.A   q h i b N |.$X*X*X|.3.3 X   + + = = 3 6 7 9 + G _ P P P P P P P P P P P P P P P Q P ",
"M.N.N.m.Q ^ P P P P P P P P I P B.( S d % # i d.g.c.c.z.x.x.x.x.c.c # * -.-.<X6 5 6 5 2 X f _ P P P P P P P P P P P P P P Y Q P ",
"W ^ ^ ^ Y Y Y P P P P P P I I P B.( d > # # v g.j.j.g.d.d.s.s.d.j.g.q r :.<X6X7.5.7.5.m X f _ P P P P P P P P P P P P P Y Y R P ",
"P Q ^ Q Y Y Q Y Y P P P P P I P } _ F d % @ u d.h.k.k.f.s.s.s.f.k.j.u e %.C <X3X<X<X<X=.+ f ) P P P P P P P P P P P P Y ^ T Q ~ ",
"W Q R Y Q Y T Y ^ T P P P P P P P B.S. .A   q l f.h.n.n.n.n.n.n.n.j.f.g @ # 8 hXhXfXgXp.* f ) P P P P P P P P Y P Y P T Y T R ~ ",
"P Y P P Y Y Q T Q ^ R Y P P P P P E B.| G . @ q w u i i i u u u u e w 0 o o & $.1.1.2.;.A ` ' P P P P P P P Y Q R Q R Q T Q R P ",
"P P P P P P T ^ m.N.m.m.Y P P P P E } | G . @ # 0 q e e e e e e e 0 0 @ . . + 8 +.#.1.1.*.| { P P P P P P P P Y P Y T Y T T Q P ",
"P P P P P P P R m.N.N.m.T P P P P E } | G . . . . . . . o $ : : : : : ; $ ; : * < > f G  .{ L P P P P P P P P P P P Q T Q Q Y T ",
"P P P P P P P Y m.N.N.m.R P P P P E B.| G . X + + + X   . : H G S S S S F S F S S D / ( C.E I P P P P P P P P P P T T P Q ^ Y ! ",
"P P P P P P P Y m.N.N.N.m.T P P P } B.| G . & = 2 2 =   O f J.J.Z.Z.Z.Z.Z.Z.Z.Z.Z.Z.B.B.R I P P P P P P P P P P Y Q P Y Q R T T ",
"P P P P P P P Y m.N.N.N.N.m.Y P Y ' { F < + 2 3 3 3 =   O d S.C.I I I I I I Y Y I I I I P P P P P P P P P P P P P Y P P I P Q T ",
"P P P P P P P Y m.N.N.N.N.m.Y P B./ , : & = 6 6 6 3 =   O d S.C.P I I I I I I I I I I I P P P P P P P P P P P P P P P P P Y Y T ",
"P P P P P P P Y m.N.N.N.m.Q I I C.D ; $ + 3 6 7 6 3 =   O d S.C.P I I I I I I I I I I I P P P P P P P P P P P P P P P P Y Q T ! ",
"P P P P P P P Y ^ N.N.m.Q Q Y I Z.S $ + = 6 7 7 7 6 3 X . d S.C.P I I P P P P P P P P P P P P P P P P P P P P P P P P P P Y P P ",
"P P P P P P P P Y Q ^ R Y Y Y I C.F : * = 6 7 6 5 6 9 + $ d S.C.P I P P P P P P P P P P P P P P P P P P P P P P P P P P P P P P ",
"P P P P P P P P Y Q R T Q R Q Y B.( f 1 4 2 2 2 2 2 4 1 , S C.B.P I P P P P P P P P P P P P P P P P P P P P P P P P P P P P P P ",
"T Y P P P P P P P R Y Q R P R Y I { A. .H O . . . O , J.S.{ L I P P P P P P P P P P P P P P P P P P P P P P P P Y P Y P P P P P ",
"T Q Y P P P P P Y Q Y T P T Q R Q E } { _ s s s s s / C.} E P P P P P P P P P P P P P P P P P P P P P P P P P Y Q T Q T P P P P ",
"T R P Y P P P P P Y T Q T Q R R m.m.^ R L _ _ ` _ _ ' I P P P P Y Y Y Y Y P P P P P P P P P P P P P P P P P Y Y R Y R Y Y P P P ",
"T Q T Q Y Y P Y P P Q R Y Y T ^ N.N.N.m.R L ' ' ' L L I Y P P Y ^ m.m.m.^ Y P P P P P P P P P P P P P P P Y Q R Q R Q R Q R P P ",
"T R Y T Y Q R Q R P T Y Q R ^ N.N.N.N.N.R P Y R R Y P P P P Y ^ N.N.N.N.Q P Y P Y P P Y P Y P P P P P P P P Y T Y T T Y R Q R W ",
"U W W W W W P W W T ! T T ! M.M.M.M.N.N.~ P P P P P P P P Y ^ Q m.N.N.N.N.P ~ T ! T T ! W W W P P P P P P P P T T T T T T T T U "
};
