/* XPM */
static char *_2584_f9156f8299a4d8970425fab697947feff954e7b85eb6587b5728cb37c91cdec0[] = {
/* columns rows colors chars-per-pixel */
"64 64 252 2 ",
"   c #020301",
".  c #0A0201",
"X  c #000B00",
"o  c #09060A",
"O  c #150904",
"+  c #021302",
"@  c #071708",
"#  c #1A140B",
"$  c #0E0E12",
"%  c #151312",
"&  c #271708",
"*  c #271A12",
"=  c #311A10",
"-  c #042607",
";  c #07370A",
":  c #163808",
">  c #122E14",
",  c #322B17",
"<  c #1C3223",
"1  c #232A25",
"2  c #342C2A",
"3  c #4E3110",
"4  c #493818",
"5  c #56391A",
"6  c #68380C",
"7  c #673A1A",
"8  c #713913",
"9  c #4D362B",
"0  c #4B3828",
"q  c #663A22",
"w  c #693C2D",
"e  c #0A4613",
"r  c #144617",
"t  c #124D10",
"y  c #085917",
"u  c #245512",
"i  c #255A15",
"p  c #166413",
"a  c #0D7B1E",
"s  c #177819",
"d  c #137B1C",
"f  c #2D700F",
"g  c #266618",
"h  c #195126",
"j  c #354E36",
"k  c #1A6729",
"l  c #0C7C23",
"z  c #0C7D2C",
"x  c #127B24",
"c  c #18772A",
"v  c #147A2A",
"b  c #187933",
"n  c #316E25",
"m  c #267728",
"M  c #266D35",
"N  c #257635",
"B  c #55440E",
"V  c #634707",
"C  c #73540F",
"Z  c #67471B",
"A  c #77481C",
"S  c #41660F",
"D  c #534E2D",
"F  c #48463B",
"G  c #584539",
"H  c #674526",
"J  c #744724",
"K  c #72522E",
"L  c #664A36",
"P  c #775636",
"I  c #56762B",
"U  c #73633E",
"Y  c #1F5C43",
"T  c #394D45",
"R  c #395247",
"E  c #2E445B",
"W  c #3D5851",
"Q  c #186B4B",
"!  c #187954",
"~  c #1B7955",
"^  c #25644C",
"/  c #36664D",
"(  c #2B6B52",
")  c #297357",
"_  c #287759",
"`  c #39735C",
"'  c #394F70",
"]  c #514B4B",
"[  c #435449",
"{  c #575649",
"}  c #475A55",
"|  c #765642",
" . c #456659",
".. c #507359",
"X. c #786C51",
"o. c #4B4D70",
"O. c #477763",
"+. c #4F7365",
"@. c #6D776E",
"#. c #834E1C",
"$. c #906D14",
"%. c #977B17",
"&. c #A37A1F",
"*. c #865729",
"=. c #86562C",
"-. c #8D642A",
";. c #9C7A26",
":. c #896438",
">. c #986936",
",. c #9B7637",
"<. c #A47831",
"1. c #A57939",
"2. c #876745",
"3. c #8D6F4B",
"4. c #9A7648",
"5. c #8B785B",
"6. c #9A7656",
"7. c #A77946",
"8. c #A87A4C",
"9. c #17881E",
"0. c #25921A",
"q. c #098126",
"w. c #1B8825",
"e. c #1F8E2F",
"r. c #248927",
"t. c #31942D",
"y. c #3BA729",
"u. c #3DA42B",
"i. c #3EA533",
"p. c #3DB131",
"a. c #579A1B",
"s. c #5AA31B",
"d. c #65A70F",
"f. c #50952D",
"g. c #589928",
"h. c #449E35",
"j. c #6D8D31",
"k. c #47A429",
"l. c #43A32C",
"z. c #42A432",
"x. c #46A735",
"c. c #63A526",
"v. c #1F8259",
"b. c #378248",
"n. c #22825B",
"m. c #2A815F",
"M. c #2D8462",
"N. c #398767",
"B. c #3F916C",
"V. c #4CA743",
"C. c #46866C",
"Z. c #4A8E72",
"A. c #548672",
"S. c #6F8D71",
"D. c #A7891A",
"F. c #AD9312",
"G. c #BEA811",
"H. c #958931",
"J. c #A88828",
"K. c #B4952E",
"L. c #AA8235",
"P. c #B0AF2F",
"I. c #C8B115",
"U. c #C49C35",
"Y. c #CCB525",
"T. c #D0B234",
"R. c #E1BD30",
"E. c #D5C908",
"W. c #D8C71A",
"Q. c #FEFD04",
"!. c #FBF50E",
"~. c #FEFC0C",
"^. c #E4E01E",
"/. c #EFEC1A",
"(. c #FCF717",
"). c #FEFA13",
"_. c #FDF41B",
"`. c #D5C528",
"'. c #D8C034",
"]. c #EBD926",
"[. c #EED232",
"{. c #E8D839",
"}. c #EDE329",
"|. c #F8E92A",
" X c #E9F52A",
".X c #FEF626",
"XX c #F6E736",
"oX c #FCF333",
"OX c #948451",
"+X c #B28B4A",
"@X c #A78655",
"#X c #A9A55D",
"$X c #8E956F",
"%X c #AD8B6B",
"&X c #B99A6B",
"*X c #BE9B78",
"=X c #93A069",
"-X c #C4974A",
";X c #C79751",
":X c #CCA548",
">X c #DBAC49",
",X c #DBB346",
"<X c #D5AC54",
"1X c #E3B057",
"2X c #C59C6D",
"3X c #C6A778",
"4X c #D3B678",
"5X c #E5B564",
"6X c #D9D942",
"7X c #EDD147",
"8X c #EEEE47",
"9X c #2E3E85",
"0X c #2B4688",
"qX c #304A92",
"wX c #505C89",
"eX c #62718A",
"rX c #659C9E",
"tX c #4F9BA8",
"yX c #38B6D3",
"uX c #74D1D7",
"iX c #9BA18E",
"pX c #B4AA8A",
"aX c #8590AB",
"sX c #ADAEAE",
"dX c #C8AD8E",
"fX c #D6B78A",
"gX c #DBB796",
"hX c #E2BC94",
"jX c #C5B3B5",
"kX c #88C3BB",
"lX c #D1C491",
"zX c #D9C29A",
"xX c #EBC88D",
"cX c #E3C49A",
"vX c #DBCAA9",
"bX c #E6C7A4",
"nX c #ECD2AB",
"mX c #F4DAAC",
"MX c #EBD7B4",
"NX c #F8EDB7",
"BX c #FBE7B8",
"VX c #FDE5BB",
"CX c #9BABD3",
"ZX c #BDC6D7",
"AX c #D6D6D3",
"SX c #E9D7CF",
"DX c #FCE8C7",
"FX c #FDECC4",
"GX c #F3ECD0",
"HX c #E8F4E8",
"JX c #FBF7E7",
"KX c #FBFBF8",
/* pixels */
"! ! ! ! ! ! ! ! ! ! ! ! ! ! ! ! ! ! ! ! ! ! ! ! ! ! ! ! ! ! ! ! v.v.n.n.! ! ! ! ! ! ! ! ! ! ! ! ! ! ! ! ! ! ! ! ! ! ! ! ! ! ! ! ",
"v.! v.! v.! v.! v.! v.! ! ! ! ! ! ! ! ! ! ! v.! ! ! ! ! ! v.! ! v.v.n.n.! ! ! ! ! ! ! ! ! ! ! ! ! ! ! ! ! ! ! ! ! ! ! ! ! ! v.! ",
"! ! ! ! ! ! ! ! ! ! ! ! ! ! ! ! ! ! ! ! ! ! ! ! ! ! M.N.N.C.B.B.B.Z.M.C._ ! ! ! ! ! ! ! ! ! ! ! ! ! ! ! ! ! ! ! ! ! ! ! ! ! ! v.",
"! v.! v.! v.! ! v.! v.! ! ! ! ! ! ! ! ! ! v.! ! ! ! O.< : ..) b.b./ < h C.! ! ! ! ! ! ! ! ! ! ! ! ! ! ! ! ! ! ! ! ! ! ! ! v.! ! ",
"! ! ! ! ! ! ! ! ! ! ! ! ! ! ! ! ! ! ! ! ! ! ! ! ! ! ` X - k c v v k + @ C.! ~ ! ! ! ! ! ! ! ! ! ! ! ! ! ! ! ! ! ! ! ! ! ! ! ! v.",
"v.! v.! ! ! ! ! ! v.! v.! ! ! ! ! ! ! ! ! m.} }  . .j h y v l x v c y r j /  . .W Q ! ! ! ! ! ! ! ! ! ! ! ! ! ! ! ! ! ! ! v.! ! ",
"! ! ! ! ! ! ! ! ! ! ! ! ! v.! ! ! ! ! ! ! N.      X e N z q.q.q.l l w.b ;       o Q ! ! ! ! ! ! ! ! ! ! ! ! ! ! ! ! ! ! ! ! ! v.",
"! v.! ! ! ! ! ! ! ! ! v.! ! ! ! ! ! ! ^ Y C.> ; r : k r.w.w.9.w.w.w.9.r.y r : - > Y Y ) ! ! ! ! ! ! ! ! ! ! ! ! ! ! ! ! ! ! ! ! ",
"! ! ! ! ! ! ! ! ! ! ! ! ! v.! ! ! ! ! 1   - b b V.h.z.x.z.z.l.x.z.l.l.x.x.V.V.v b -   T ! ! ! ! ! ! ! ! ! ! ! ! ! ! ! ! ! ! ! ! ",
"v.! v.! ! ! ! ! ! ! ! ! ! ! v.! ! ! ~ 1   - z a b.i.u.u.u.u.h.i.i.i.u.l.i.l.i.a v @   R ! ! ! ! ! ! ! ! ! ! ! ! ! ! ! ! ! ! ! ! ",
"! ! ! ! ! ! ! ! ! ! ! ! ! ! ! ! n.! ~ <   - z v e.e.9.w.w.c r.m m x q.w.w.c w.l b -   T ! ! ! ! ! ! ! ! v.! v.! ! ! ! ! ! ! ! ! ",
"! v.v.! ! ! ! ! ! ! ! ! v.! v.v.! ! n.< X - l v a q.a d x x q.q.d x d d a d d q.q.@   R ! ! ! ! ! v.! v.! ! ! ! ! ! ! ! ! ! ! ! ",
"v.v.v.v.! ! ! ! ! ! ! ! ! v.v.v._ C.N.< - e r.r.w.w.e.r.r.r.e.w.9.r.e.0.r.r.r.w.b.e ; j C.C.m.! ! v.v.v.! ! ! ! ! ! ! ! ! ! ! ! ",
"v.v.v.v.! ! ! ! ! ! ! ! v.v.v.v.( o + k x r.x.k.k.k.l.k.l.l.l.k.k.k.k.k.k.k.l.k.z.v N y + $ ` ! v.v.v.v.v.! ! ! ! ! ! ! ! ! ! ! ",
"v.v.v.v.! ! ! ! ! ! ! ! v.v.v.v.( X + k d r.g.f.c.s.a.a.g.g.d.c.g.g.s.s.s.s.s.h.g.r.s p X % ` ! v.v.v.v.! ! ! ! ! ! ! ! ! ! ! ! ",
"v.v.v.v.! ! ! ! ! ! ! ! v.v.v.v.(   + m l.j.OXH. X XP.%.H.8X XP.OXK.8X X/. X XH.OXf.l.m X % ` ! v.v.v.v.! ! ! ! ! ! ! ! ! ! ! ! ",
"! v.! v.! ! ! ! ! ! ! ! v.v.v.v.` X + f.f.j.&.&.|..XI.%.F.|._.Y.L.D.oX!.~..X}.%.;.g.g.t.X + ` ! v.v.v.v.! ! ! ! ! ! ! ! ! ! ! ! ",
"v.! ! ! ! ! ! ! ! ! ! ! v.v.A. .R h j I j.H.'.`.I.I.Y.W.W.!.(.Y.L.F..X(.E.G.G.R.'.P.#Xj.r h R  .Z.v.v.v.! ! ! ! ! ! ! ! ! ! ! ! ",
"! ! v.! v.! ! ! ! ! ! ~ v.v.W   ; N n j.H.D._..X%.%.`._.~.~..XY.;.F..X_.Y.J.D..X_.R.<XOXn M >   W v.v.v.! ! ! ! ! ! ! ! ! ! ! ! ",
"! ! ! ! ! ! ! ! ! M._ N.M.M.[ O > n S L.<.K.XXXXK.F.E.(..X/.}.Y.F.F.(._.T.<.J.XX].{.R.K.n S & O { v.v.M.M._ ! ! ! ! ! ! ! ! ! ! ",
"! ! ! ! ! ! ! ! Q $X5.6.dXpX| D H H V ;X1X;XJ.D.XX_._.~.|.F.D.I.|.!.~._.T.<.1.D.J.]..X`.B Z H L | pXpX5.5.iX! ! ! ! v.! ! ! ! ! ",
"! ! ! ! ! ! ! ! Q iX6.6.fXfXP H 7 8 6 U.,X:X;.D.|.).~.Q.XXD.J.Y.).~.!.oX:X,.1.7.7.}.!.W.6 8 5 5 | gXfX6.6.$X! ! ! ! ! ! ! ! ! ! ",
"! ! ! ! ! ! ! ! ~ 3.Z -.NXmXnXzX3X>.;.[.|./.].].`.W./.~.XXJ.;.Y._./.G.D.:X3X3X8.1.}.~.].$.3.dXgXnXNXmXA q 5.~ ! ! v.! v.! ! v.! ",
"! ! ! ! ! ! ! ! ~ X.5 P FXNXGXGXgX4.<.XX!.~.(.!.T.T.].).XXD.D.Y.)./.%.,.&XhXgX>.1.}.!.^.;.8.cXBXNXFXFX5 7 5.~ _ ! ! ! ! ! ! ! ! ",
"! ! ! ! ! ! ! ! ! A.S.S.*XiXkXuXkX+XP._.Q.!.[.7X>X>X[.!._.E.I.E.~.}.%.4.&XgXgX2X2X7X7X,X<.OXuXuXkXpX*XS.S.A.v.v.! v.! v.! ! ! ! ",
"! ! ! ! ! ! ! ! ! ! _ N.H F tXyXrX4XT._.Q._.,X,X1XT.[.).Q.!._.!.Q.}.%.,.&XgXgXVXVX5X,X:X,.S.tXyXtXG J n.v.v.v.v.v.! ! ! ! ! ! ! ",
"! ! ! ! ! ! ! ! ! ! ! m.w ] rXyXrXlX<XoX|.[.>X1X>X1X[..X!.).Q.Q.Q.}.%.,.&XfXfXDXDX4X1X>X;.OXrXyXtX9 L v.v.v.v.v.! ! v.! ! ! ! ! ",
"! ! ! ! ! ! ! ! ! ! v.m.O # X.S.,.A A K.J.U.1X1X7.+X:X'.W..XQ.Q.Q.].V C *XBXmXgXgX=.#.&.[.{.P.S.@.O # v.v.v.v.v.v.! ! ! ! ! ! ! ",
"! ! ! ! ! ! ! ! ! ! ! m.  X | OX>.6 6 4.,.+X5X5X1.7.+X,X'.oX~.Q.~.{.6 8 3XGXBXxXcXP A $..XoXP.OX| . % ! v.! v.! ! ! ! ! ! ! ! ! ",
"! ! ! ! ! ! ! ! ! ! ! M.X . 4.+XU.F.F.L.1.1.P K 7.7.-X5XT.T.Y.G.G.K.1.8.%X%X%X| | :.-.D..X!.W.;X4.. $ ~ ! ! ! ! ! ! ! ! ! ! ! ! ",
"! ! ! ! ! ! ! ! ! ! ! M.  . 8.5X[.oXXXJ.1.:..   @X4.-X5X<XJ.,.#.6 J xXhX5.q 0 . o 2.1.K..X(.[.5X6.  % ! ! v.! ! ! ! ! ! ! ! ! ! ",
"! ! ! ! ! ! ! ! ! ! ! m.[ j 3.+XY.].{.;.>.:.] F 5.5.@X:X-X<.>.:.=.:.3X*XX.G { j 9 2.1.U.XX|.G.@X3.j [ v.! ! ! ! ! ! ! ! ! ! ! ! ",
"! ! ! ! ! ! ! ! ! ! ! ! N._ } # V K.L.A J 2.AXAXwXwX] J #.8 8 8.4X2XJ P o.o.wXAXSXP 8 -.1X[.V & { M.N.! ! ! ! ! ! ! ! ! ! ! ! ! ",
"! ! ! ! ! ! ! ! ! ! ! ! ! ! W o 3 *X8.A 6 | KXKXqXqXo.9 q 7 7 6.fX*X3 D o.9XwXJXKXP 7 -.5X3X3   [ ! ! ! ! ! ! ! ! ! ! ! ! ! ! ! ",
"! ! ! ! ! ! ! ! ! ! ! ! ! ! C.C.+.4 B =.*.8.JXHX0X9XCXjXdXdXdXgXmXbXdXsXrX9XwXHXJX2.-.*.Z D ..A.Z.! v.! ! ! ! ! ! ! ! ! ! ! ! ! ",
"! ! ! ! ! ! ! ! ! ! ! ! ! ! ! ! A.  O 3.4.&XGXGXo.qXCXKXJXDXNXVXVXDXKXKXCX0XwXSXDX&X@XK . O  .~ ! ! ! ! ! ! ! ! ! ! ! ! ! ! ! ! ",
"v.! ! ! ! ! ! ! ! ! ! ! ! ! _ Q @.# = K :.3.bXbXeXeXZXKXJXFXNXFXFXDXJXJXCXwXeXvXMX2.U L T W N.! ! ! ! ! ! ! ! ! ! ! ! ! ! ! ! ! ",
"v.v.v.v.! ! ! ! ! ! ! ! ! ! R   * L H . O = 1.4.GXGXGXGXDXBXBXVXVXFXVXDXDXJXGXOX4.&   j ~ ! ~ ! ! ! ! ! ! ! ! ! ! ! ! ! ! ! ! ! ",
"v.v.v.v.v.! ! ! ! ! ! ! ) ! [ . = L G # O = 7.7.VXNXmXBXDXVXBXBXDXVXVXVXVXVXmX1.7.#   T ! ! ~ ! ! ! ! ! ! ! ! ! ! ! ! ! ! ! ! ! ",
"v.v.v.v.v.! ! ! ! ! ! m.} [ 4 0 ] ] ] sXsXiXJ =.:.:.&XcXbXcXxXcXbXgXbXbX8.>.3.#.*.& . T ! ! ! ! ! ! ! ! ! ! ! ! ! ! ! ! ! ! v.! ",
"v.v.v.v.v.v.! ! ! ! ! M.  . 4 Z G E } HXKXSXq q H H %XbXcXgXlX4XlXlXlXlX6.q J H Z O   R ! ! ! ! ! ! ! ! ! ! ! ! ! ! ! ! ! ! ! ! ",
"v.v.v.v.v.v.! ! ! ! ! M.    3 J L @.@.sXsXiX9 5 q 4 S.=X$X$X=X=X=X=X=X$XU 4 4 F n %   T ! ! ! ! ! ! ! ! ! ! ! ! ! ! ! ! ! ! v.! ",
"v.v.v.v.v.! ! ! ! ! ! M.  . 0 7 6.zXgX% o o     , t g m N b b x m c b m h : : b M @   T ! ! ! ! ! ! ! ! ! ! ! ! ! ! ! ! ! ! ! ! ",
"v.v.v.v.! v.! ! ! ! ! M.% 1 0 L 3.cXjX*     + + : r i m m f f f f g n n u : : M / @   j ! Q ! ! ! ! ! ! ! ! ! ! ! ! ! ! ! ! v.! ",
"! v.! v.! ! ! ! ! ! ! ! ~ M.R   o % %   . @ b k D Z Z Z S 6X/./. X{.3 V C H w HXHXD = 9 $ * ` ! ! ! ! ! ! ! ! ! ! ! ! ! ! ! ! ! ",
"! ! v.! ! ! v.! ! ! ! ! ! ~ R             - x n Z 7 H 6 C 8X(.~. X{.6 6 Z J | KXKXF 4 = O $ O.~ ! ! ! ! ! ! ! ! ! ! ! ! v.! v.! ",
"! v.! ! v.! ! ! v.! ! ! ! ! N.C. .o   r y y t.t.f.I I S f c.d.d.d.g.f n , = 2 rXaXG q q 3 9 ]  .C.! ! ! ! ! ! ! ! ! ! ! ! ! ! v.",
"! ! ! ! ! ! v.! ! v.! ! ! ! ! ! A.o + k w.w.u.y.k.g.m s c s s s 9.d s b >   $ ' ' L 8 q w w # . T ! ! ! ! ! ! v.! v.! v.! v.! ! ",
"! ! ! ! ! ! ! v.v.v.v.v.! ! ! ! ( o o h k m l.l.y.k.0.9.l l l a q.v v v ; X - E E G A J P | =   W ! ! ! ! ! ! ! ! ! ! ! ! ! v.! ",
"! ! ! ! ! ! ! ! v.v.v.v.! ! ! ! /     + + ; y.u.y.y.u.u.i.u.u.l.k.t.x a k z M $ $ *XfXgXmXMX{   T ! ! ! ! ! ! ! ! ! n.! v.! ! ! ",
"! ! ! ! ! ! ! ! v.v.v.v.! ! ! ! ^         : V.V.p.p.u.u.l.u.l.u.k.i.9.a v b N X   pXcXMXGXGXG   W ! ! ! ! ! ! ! ! ! ! ! ! v.! v.",
"! ! ! ! ! ! ! ! v.v.v.v.v.! ! ! / o   * , * : : r.w.t.y.u.u.u.l.l.h.t.t.g y r   o 2 9 9 F ] A.C._ ! ! ! ! ! ! ! ! n.! ! v.! ! ! ",
"! ! ! ! ! ! ! ! v.v.v.v.v.v.! ! ( o   , 0 *   X M v t.x.k.x.l.l.z.x.x.x.g e > X o o o     $ ` ! ! ! ! ! ! ! ! ! ! ! ! ! ! ! v.! ",
"! ! ! ! ! ! ! ! v.v.v.v.v.v.! ! _ O.+., * *   X h e h i u f f p i i p i r - < O.O.O.O.O.O.O._ ! ! ! ! ! ! ! ! ! ! ! ! ! ! ! ! ! ",
"! ! ! ! ! ! ! ! v.v.v.v.v.! ! ! ! ~ _ 1 .       X X X X X X + X X X X + o   1 ! ! ! ! ! ! ! ! ! ! ! ! ! ! ! ! ! ! ! ! ! ! v.! v.",
"! ! ! ! ! ! ! ! v.v.v.v.! v.! ! ! ! ~ 1                                     1 Q ! ! ! ! ! ! ! ! ! ! ! ! ! ! ! ! ! ! ! ! ! ! ! ! ",
"! ! ! ! ! ! ! ! ! ! v.! ! ! ! ! ! ! ! ) ) ) ) _ ) ) ) ) ) ) ) ) ) ) ) ) ) ) ) ! ! ! ! ! ! ! ! ! ! ! ! ! ! ! ! ! ! ! ! ! ! ! ! ! ",
"! ! ! ! ! ! ! ! ! v.! ! v.! v.! ! ! ! ! ! ! ! ! ! ! ! ! ! ! ! ! ! ! ! ! ! ! ! ! ! ! ! ! ! ! ! ! ! ! ! ! ! ! ! ! ! ! ! ! ! ! ! ! ",
"! ! ! ! ! ! ! ! ! ! ! v.! ! ! ! ! ! ! ! ! ! ! ! ! ! ! ! ! ! ! ! ! ! ! ! ! ! ! ! ! ! ! ! ! ! ! ! ! ! ! ! ! ! ! ! ! ! ! ! ! ! ! ! ",
"! v.! ! ! ! ! ! ! v.! ! ! ! v.! v.! ! ! ! ! ! ! ! ! ! ! ! ! ! ! ! ! ! ! ! ! ! ! ! ! ! ! ! ! ! ! ! ! ! ! ! ! ! ! v.! v.! ! ! ! ! ",
"! ! ! ! ! ! ! ! ! ! ! v.! v.! ! v.v.v.! ! ! ! ! ! ! ! ! ! ! ! ! ! ! ! ! ! ! ! ! ! ! ! ! ! ! ! ! ! ! ! ! ! ! ! ! ! ! ! ! ! ! ! ! ",
"! v.! v.! ! ! ! ! ! v.! ! ! ! v.v.v.v.v.! ! ! ! ! ! ! ! ! ! ! ! v.v.v.v.~ ! ! ! ! ! ! ! ! ! ! ! ! ! ! ! ! ! v.! v.! v.! v.! ! ! ",
"! ! ! ! ! v.! v.! ! ! ! v.! v.v.v.v.v.v.! ! ! ! ! ! ! ! ! ! ! v.v.v.v.v.! ! ! ! ! ! ! ! ! ! ! ! ! ! ! ! ! ! ! ! ! ! ! ! ! v.! v.",
"! v.! v.! ! ! ! v.! v.! ! v.v.v.v.v.v.v.! ! ! ! ! ! ! ! ! ! v.! v.v.v.v.n.! n.! v.! ! v.! v.! ! ! ! ! ! ! ! ! v.! v.! v.! ! ! ! "
};
