/* XPM */
static char *_0586_fe5406771692090ecaa962c512635a60077db8465c9dff1acc6bb05cc8226621[] = {
/* columns rows colors chars-per-pixel */
"64 64 255 2 ",
"   c #030302",
".  c #0B0201",
"X  c #020A01",
"o  c #090908",
"O  c #120200",
"+  c #180B07",
"@  c #041505",
"#  c #18150A",
"$  c #070D14",
"%  c #091912",
"&  c #161816",
"*  c #27150A",
"=  c #2B150D",
"-  c #062708",
";  c #06380A",
":  c #15360B",
">  c #102F12",
",  c #322F17",
"<  c #2A1F23",
"1  c #173128",
"2  c #272B27",
"3  c #27342A",
"4  c #373730",
"5  c #441C0F",
"6  c #55310F",
"7  c #4A2D1D",
"8  c #48351A",
"9  c #59371A",
"0  c #6A3A08",
"q  c #673B18",
"w  c #773C1B",
"e  c #472B23",
"r  c #453526",
"t  c #523823",
"y  c #503329",
"u  c #683C24",
"i  c #763C26",
"p  c #154914",
"a  c #2B501F",
"s  c #076E1D",
"d  c #18681C",
"f  c #0B761C",
"g  c #147A1C",
"h  c #2A6D07",
"j  c #247415",
"k  c #1B4D25",
"l  c #155925",
"z  c #2A502F",
"x  c #34453B",
"c  c #176A26",
"v  c #0A7523",
"b  c #0D7A23",
"n  c #0E7A2C",
"m  c #137A24",
"M  c #177628",
"N  c #127C2C",
"B  c #157335",
"V  c #1B7735",
"C  c #296A26",
"Z  c #366927",
"A  c #267429",
"S  c #39702A",
"D  c #266C37",
"F  c #267635",
"G  c #505114",
"H  c #70500A",
"J  c #68431B",
"K  c #744418",
"L  c #526714",
"P  c #717605",
"I  c #485525",
"U  c #535424",
"Y  c #504930",
"T  c #584839",
"R  c #694627",
"E  c #754425",
"W  c #6A4834",
"Q  c #765533",
"!  c #486D30",
"~  c #62762F",
"^  c #313844",
"/  c #394845",
"(  c #315345",
")  c #186848",
"_  c #1A7653",
"`  c #187954",
"'  c #1E7C59",
"]  c #23664B",
"[  c #2F685A",
"{  c #396B54",
"}  c #247D5B",
"|  c #2C7B5B",
" . c #395466",
".. c #2D4F74",
"X. c #4C504F",
"o. c #71584A",
"O. c #476A5A",
"+. c #526C55",
"@. c #736C57",
"#. c #47546B",
"$. c #765E62",
"%. c #4A6868",
"&. c #497B67",
"*. c #517D67",
"=. c #747367",
"-. c #895A0B",
";. c #8D6E0C",
":. c #987A19",
">. c #A27D17",
",. c #865529",
"<. c #905B2D",
"1. c #895A36",
"2. c #9A7827",
"3. c #906933",
"4. c #9B7838",
"5. c #A4782B",
"6. c #A47939",
"7. c #876846",
"8. c #9B7746",
"9. c #90724C",
"0. c #A57945",
"q. c #A47A53",
"w. c #967E63",
"e. c #0B811A",
"r. c #348E1D",
"t. c #198329",
"y. c #1C8A32",
"u. c #29862D",
"i. c #2B982A",
"p. c #35992C",
"a. c #2D9A31",
"s. c #379B35",
"d. c #3BA528",
"f. c #3BA436",
"g. c #5D951B",
"h. c #5EA216",
"j. c #65A20C",
"k. c #66A712",
"l. c #53952E",
"z. c #4A8934",
"x. c #489534",
"c. c #67902E",
"v. c #46A72A",
"b. c #44A635",
"n. c #4EA936",
"m. c #1F8259",
"M. c #24825C",
"N. c #2D8562",
"B. c #368767",
"V. c #3D8770",
"C. c #4E8B53",
"Z. c #4B8B59",
"A. c #7C8653",
"S. c #56B14A",
"D. c #43846B",
"F. c #46896C",
"G. c #568A69",
"H. c #478A72",
"J. c #529070",
"K. c #718774",
"L. c #5CA964",
"P. c #9D830F",
"I. c #AA8F15",
"U. c #BAA712",
"Y. c #938733",
"T. c #A58525",
"R. c #B69828",
"E. c #B38F36",
"W. c #A9A62F",
"Q. c #C8B218",
"!. c #D4A926",
"~. c #D6B929",
"^. c #CEB337",
"/. c #D8B53B",
"(. c #D9C61A",
"). c #DFD015",
"_. c #F9FB07",
"`. c #FEFC0C",
"'. c #ECE813",
"]. c #F6EB18",
"[. c #FEFB13",
"{. c #FCF718",
"}. c #D9C926",
"|. c #C3DE35",
" X c #E9D628",
".X c #E9CF32",
"XX c #E9D634",
"oX c #DFE923",
"OX c #EDE72B",
"+X c #F8EA29",
"@X c #FBF327",
"#X c #F9E937",
"$X c #FEF635",
"%X c #8D8A52",
"&X c #AA8347",
"*X c #B18E55",
"=X c #988C79",
"-X c #909174",
";X c #AC9171",
":X c #BCA474",
">X c #CA9656",
",X c #D3AF4E",
"<X c #D9AD4A",
"1X c #D6A757",
"2X c #E4B750",
"3X c #C39667",
"4X c #D7A764",
"5X c #DAB36E",
"6X c #CDA77B",
"7X c #E7B566",
"8X c #AAC544",
"9X c #CCD345",
"0X c #EDD346",
"qX c #D3F348",
"wX c #F7E949",
"eX c #EDC077",
"rX c #1F4286",
"tX c #2B4A8F",
"yX c #446280",
"uX c #667494",
"iX c #5D74AA",
"pX c #68999A",
"aX c #4FA7B4",
"sX c #3CB3CF",
"dX c #4FA6C2",
"fX c #9F9C85",
"gX c #B4AD8D",
"hX c #B3B5B2",
"jX c #CBAE8C",
"kX c #D6AD88",
"lX c #D6B689",
"zX c #D4B38C",
"xX c #D7B793",
"cX c #E5BC93",
"vX c #D4BCAC",
"bX c #DCC29B",
"nX c #E3C988",
"mX c #E7C59B",
"MX c #E7C9A5",
"NX c #EFD4AE",
"BX c #F6DBB9",
"VX c #F9E4B7",
"CX c #FDE6BC",
"ZX c #FEEBBD",
"AX c #FFF1BC",
"SX c #8EA6D1",
"DX c #AFC9CB",
"FX c #D7D3CD",
"GX c #FDECC3",
"HX c #FCE9C8",
"JX c #FDF1C7",
"KX c #FBEFD6",
"LX c #DCF0E1",
"PX c #F2F3EE",
"IX c #FAFAF8",
/* pixels */
"` ` ` ` ` ` ` ` ` ` ` ` ` ` ` ` ` ` ` ` ` ` ` ` ` ` ` ` ` ` ` ` M.m.M.m.` ` ` ` ` ` ` ` ` ` ` ` ` ` ` ` ` ` ` ` ` ` ` ` ` ` ` ` ",
"m.` m.` m.` m.` m.` m.` ` ` ` ` ` ` ` ` ` ` ' _ 4 x { G.Z.Z.Z.Z.C.Z.Z.C.Z.( x +.` ` ` ` ` ` ` ` ` ` ` ` ` ` ` ` ` ` ` ` ` ` m.` ",
"` ` ` ` ` ` ` ` ` ` ` ` ` ` ` ` ` ` ` ` ` ` ` _ X X p D c M c M b f f c A - X x ` ` ` ` ` ` ` ` ` ` ` ` ` ` ` ` ` ` ` ` ` ` ` m.",
"` m.` m.` m.` ` m.` m.` ` ` ` ` ` ` ` ` ` m.` _ % @ ; t.g m m e.g e.g g M - @ ] ` ` ` ` ` ` ` ` ` ` ` ` ` ` ` ` ` ` ` ` ` m.` ` ",
"` ` ` ` ` ` ` ` ` ` ` ` ` ` ` ` ` ` ` ` ` &.$ > D F a.s.f.f.f.p.d.d.s.f.b.F D l & & ) ` ` ` ` ` ` ` ` ` ` ` ` ` ` ` ` ` ` ` ` m.",
"m.` m.` ` ` ` ` ` m.` m.` ` ` ` ` ` ` ` ` O.X @ B n y.n.v.v.v.v.f.v.b.f.b.u.M l X @ l ` ` ` ` ` ` ` ` ` ` ` ` ` ` ` ` ` ` m.` ` ",
"` ` ` ` ` ` ` ` ` ` ` ` ` m.` ` ` ` ` B.B.{ - - M m a.s.x.p.x.s.p.s.s.f.s.t.m d - - D.D.B.` ` ` ` ` ` ` ` ` ` ` ` ` ` ` ` ` ` m.",
"` m.` ` ` ` ` ` ` ` ` m.` ` ` ` ` ` N.o o k b b N N M d g m m m m g n b n b t.b V V - o 3 ` ` ` ` ` ` ` ` ` ` ` ` ` ` ` ` ` ` ` ",
"` ` ` ` ` ` ` ` ` ` ` ` ` m.` ` ` ` B.@   p t.f n s b v v v f m b e.m g t.f f t.f f - X 1 ` ` ` ` ` ` ` ` ` ` ` ` ` ` ` ` ` ` ` ",
"m.` m.` ` ` ` ` ` ` ` ` ` ` m.` G.( ] l d A d.i.a.f.a.a.a.a.d.i.p.p.p.s.p.s.i.p.p.p.c l l { / F.` ` ` ` ` ` ` ` ` ` ` ` ` ` ` ` ",
"` ` ` ` ` ` ` ` ` ` ` ` ` ` ` ` { X - m s i.d.v.v.f.f.f.d.d.d.v.v.f.b.s.b.f.f.f.b.b.t.M d X o &.` ` ` ` m.` m.` ` ` ` ` ` ` ` ` ",
"` m.m.` ` ` ` ` ` ` ` ` m._ ) ) X.- - ! S c.g.g.k.j.h.k.h.h.l.c.c.c.g.k.k.h.k.h.c.l.r.j d - % G.) ) ` m.` ` ` ` ` ` ` ` ` ` ` ` ",
"m.m.m.m.` ` ` ` ` ` ` ` ` F.X - k F ! %X8.>X2X<X+X{.{._.#XI.Y.8.Y.Y.U.@X_.{.'.XX4.Y.c.b.b.N V ; $ & V.m.` ` ` ` ` ` ` ` ` ` ` ` ",
"m.m.m.m.` ` ` ` ` ` ` ` m.H.X X l M S %X6.>X1X0X+X`.`._.+XU.4.6.0.2.Q.@X_._.`. X2.%Xc.n.p.f B ; X % B.m.m.` ` ` ` ` ` ` ` ` ` ` ",
"m.m.m.m.` ` ` ` ` ` ` ` M.H.  X , L L }.(. X X XU.U.).`.`.).}.0X5.2.U.{.[.Q.U.Q.}.}.T.c.c.j V ; X & B.M.` ` ` ` ` ` ` ` ` ` ` ` ",
"m.m.m.m.` ` ` ` ` ` ` ` m.H.  + 9 J -.{.`.`._.].>.2.~.@X_.`.{.0XP.T.U.{.].R.Y.R.{.{.R.4.9.A N ; X & N.m.` ` ` ` ` ` ` ` ` ` ` ` ",
"` m.` m.` ` ` ` _ _ _ _ } J.. O 6 w H +X].].{.+X>.5.~.+X`.`.`.#XP.I.U.[.{.R.6.R.@XOXR.T.2.h A ; . & N.m.m.' ` } ` ` ` ` ` ` ` ` ",
"m.` ` ` ` ` ` ` fX7.9.gXgXfXR R >X7X1X5.>.!././.#X@X(.P.P. X`.[.].].'.`.].R.6.5.T.P.}.+X XG Y R R W K.fX-X7.7.*.` ` ` ` ` ` ` ` ",
"` ` m.` m.` ` ` =X8.&XlXzX;Xq H E.<X<X4.E.*X<X/.@X[.Q.:.I.XX[.[.[.[.`.[.@XR.6.0.Y.6.OX[.'.0 i q 0 J :XbXkXq.8.=.` ` ` _ ` ` ` ` ",
"` ` ` ` ` ` ` ` w.,.8.MXmX6XE H ^.0X0X6.6.<X X X).}.R.4.P.OX{.@X'.].oX(.}.>X*X*Xq.0. X`.).H ,.9.;X;XnXMXcX<.1.@.` ` ` ` ` ` ` ` ",
"` ` ` ` ` ` ` ` 9.9 E HXHXMX9.:.XX@XXX6.6.~.`.].P.>.2.4.5.#X{.+X!.^.R.2.4.6XcX6X&X4. X`.+X:.q.zXKXGXJXJXNX0 9 +.` ` m.` ` ` ` ` ",
"` ` ` ` ` ` ` ` o.7 W JXGXNX=.c.9X$X0X5.2.~.`.].P.:.:.:.P. X+XwX/.7X3X8.1.jX6X5X<.2.0X@X0X5.q.vXLXLXKXJXBX9 9 +.` ` ` ` ` ` ` ` ",
"` ` ` ` ` ` ` ` B.F.J.9.7.K.pXpX:.;.:.1X1XXX`.{.}..XXXXX X.X.X/.5.E.*X6XjXkXlXlXnXnX0X0X/.5.%XK.dXaXK.@.w.F.J.M.` m.` m.` ` ' ` ",
"` ` ` ` ` ` ` ` ` M.M.Y Y yXsXsXO.G 0 7X1XXX_.`.{.{.{.[.#X/.<X1X5.6.*XcXzXzXlXbXZXAX4X,X<X:.%XpXsXsX%.W T M.` m.` ` ` ` ` ` ` ` ",
"` ` ` ` ` ` ` ` ` ` ' T o.#.dXaXo.u K 4X4X0X@X#X$X$X$X@X#X2X2X7X0.q.&XcXkXzX6XxXBXZX5XeX1XP.Y.K.dXaX[ t T m.m.m.` m.` m.` ` ` ` ",
"` ` ` ` ` ` ` ` ` ` M.. O x DXhX-X8.9.E.6.!.~.~.~.~.~.~./.>.5.5.0 w 4.lXzXNXVXVXxXxX,.0 -.wX0X~ % 1 V.m.M.m.m.m.m.` ` ` ` ` ` ` ",
"` ` ` ` ` ` ` ` ` ` }     8 MXmX*X5.4.6.0.>X7X7X7X1X7X7X4X6.6.6.0 6 1.xXzXBXJXVXbXMX1.K -.$X].P X & N.m.m.m.m.m.` ` m.` ` ` ` ` ",
"` ` ` ` ` ` ` ` ` ` }     8 jX*XE.R.E.3.3.*X&X*X>X4X1X4X4X0.8.<.<.,.q.kXzXMXmXzX=X;X1.H ;.$XOXg.  & B.` m.m.m.m.m.` ` ` ` ` ` ` ",
"` ` ` ` ` ` ` ` ` ` M.    * K H Q.$X X0 E = . + *X4.4.6.0.w q E mXkXkXkXcX1.J 6 O O 7.&XW.$XOXP X & B.` m.` m.` ` ` ` ` ` ` ` ` ",
"` ` ` ` ` ` ` ` ` ` |     + Q H }.@X Xw ,.<   O %X;X*X0.0.w q E kXkXcXxXmXQ Y r   o 3.&XE.wX$XP   & N.' ` ` ` ` ` ` ` ` ` ` ` ` ",
"` ` ` ` ` ` ` ` ` ` ` ) ] G.* = T..X2Xw u =XhXhX#.%.o.W ,.3X3X;XBXBXkX1.7.X.#.uXhXvX1.K -.0X0XH . & B.` ` m.` ` ` ` ` ` ` ` ` ` ",
"` ` ` ` ` ` ` ` ` ` ` ` ` V.. O Y.<X<Xw u hXIXPXtX..#.W q 6XxXzXGXHXkXu T #.tXiXIXIX@.w ,.7X2XJ   $ N.' ` ` ` ` ` ` ` ` ` ` ` ` ",
"` ` ` ` ` ` ` ` ` ` ` ` ` | 3 Y 9.4X>Xw R jXIXPXtXtXyX$.Q jXbXbXVXGXxXo.$.yXtXiXPXIXo.y Q *X*Xo.z / M.` ` ` ` ` ` ` ` ` ` ` ` ` ",
"` ` ` ` ` ` ` ` ` ` ` ` ` ` ` ' =.K q 6.0.xXJXFXtXtXSXIXKXJXGXZXCXHXKXIXIXiXrXiXKXHXr     o X *.` _ ` ` ` ` ` ` ` ` ` ` ` ` ` ` ",
"` ` ` ` ` ` ` ` ` ` ` ` ` ` ` ` =.K w 0.0.xXHXFXtXtXSXIXIXJXHXZXCXHXKXIXPXiXrXuXKXHX4 .     o *.` ` M.` ` ` ` ` ` ` ` ` ` ` ` ` ",
"` ` ` ` ` ` ` ` ` ` ` ` ` ` ` ` F.J.J.e , 9.:X:XhXhXFXKXJXGXHXVXVXCXHXHXPXvXhXhX:X:X=   2 V.V.) ` ` ` ` ` ` ` ` ` ` ` ` ` ` ` ` ",
"m.` ` ` ` ` ` ` ` ` ` ` ` ` ` ` ` ` B.@ . T 4.&XJXHXGXVXZXCXGXZXZXBXZXZXHXHXHXMX8.8.= X 3 ` ' _ ` ` ` ` ` ` ` ` ` ` ` ` ` ` ` ` ",
"m.m.m.m.` ` ` ` ` ` ` ` ` ` ` ` ' ` B.@ X Q 0.&XGXBXBXZXVXZXCXVXVXHXVXGXHXNXVXmX8.0.* @ 3 _ _ _ ` ` ` ` ` ` ` ` ` ` ` ` ` ` ` ` ",
"m.m.m.m.m.` ` ` ` ` ` ` ` ` ` _ / $ 1 V D U w 0 R q 9.bXjXxXxXzXzXzXzXlXzXQ R 9 R q Z D l 1 & &.` ` ` ` ` ` ` ` ` ` ` ` ` ` ` ` ",
"m.m.m.m.m.` ` ` ` ` ` ` ` ` ` _ O.  @ B B I J E J q %XbXjXxXxXxXlXxXlXlXlXQ J J i u Z B c   o G.` ` ` ` ` ` ` ` ` ` ` ` ` ` m.` ",
"m.m.m.m.m.m.` ` ` ` ` &.&.| D.&.X.< 1 J.J.+., G I I A.-XA.A.A.A.A.A.%XA.-X~ I U 8 6 Z.L.Z.  + +.*.D.&.D.&.` ` ` ` ` ` ` ` ` ` ` ",
"m.m.m.m.m.m.` ` ` ` m.o o X o o ^  .O._ ` Z.: : F A A C A A A A A A A t.A A A C : , ) ` } = 4 + o o o o 2 ` ` ` ` ` ` ` ` ` m.` ",
"m.m.m.m.m.` ` ` ` ` } O O O . o ^  .%.` _ C.: p t.b m m m N N n n n n t.v m m c : : ) ` [ < e + O . . . 2 ` ` ` ` ` ` ` ` ` ` ` ",
"m.m.m.m.` m.` ` %.4 Y e 7 y e r  ...../ x 4 8 I F g M m n n n n n n n n N m N C G , x ^ / ^ / X.y 7 r e y 4 4 [ ` ` ` ` ` ` m.` ",
"` m.` m.` ` ` ` &   + W i i W T X.....X . , R U A t.M g f f e.e.n t.f g m m m Z R R +   $ #. .+.W i u W y O o x ` ` ` ` ` ` ` ` ",
"` ` m.` ` ` m.` 3 $ O E q i q T X. .( @ X , G L Z C Z C h r.h h h h h h Z Z Z ! G L #   @ #. .X.R q q R t O + ( ` ` ` ` m.` m.` ",
"` m.` ` m.` ` ` 3   = vXkXcXzXxXr $ % D D z.c.c.G G U I G |.qXqXqXqX8XG U I G U l.l.>     $ $ $.bXkXkXzXgX.   ( ` ` ` ` ` ` ` m.",
"` ` ` ` ` ` m.` &   # MXMXcXbXBX4   @ F m p.v.x.G K u q H qX@X{._.$X9XJ R R q L n.v.>         $.BXxXMXMXvX    z ` m.` m.` m.` ` ",
"` ` ` ` ` ` ` m.( 3 x =XfX=XfX=XX.z z z l p.v.r.L L G U G 8XqX|.|.|.W.G U U L L v.n.> o o / 3 +.fX;X=XfX-X2 4 { ` ` ` ` ` ` m.` ",
"` ` ` ` ` ` ` ` M.M.N.o O O . + &.` | X X Z v.d.v.n.z.j t.j j h d g f A A l.n.v.p.x.-   3 ` ` O.. . O . 2 ` _ ' ` ` m.` m.` ` ` ",
"` ` ` ` ` ` ` ` m.m.N.o . o . o [ ` N.@   Z L.S.S.S.s.s g s t.b m n v v g f.b.v.n.S.> X 3 ` ` O.        2 ` ` ` ` ` ` ` ` m.` m.",
"` ` ` ` ` ` ` ` m.m.m.] ] ] ] ] ` ` N.$ X % : : > : d x.i.p.i.i.a.a.a.d.a.y.y.c : : X   @ X. .*.) ] ] ] ] ` ` ` ` M.` ` m.` ` ` ",
"` ` ` ` ` ` ` ` m.m.m.m.M.m.` ` ` ` B.$ X X X .   X p S.v.v.p.v.d.d.v.v.n.t.t.l X           o *._ ` ` ` ` ` ` ` ` ` ` ` ` ` m.` ",
"` ` ` ` ` ` ` ` m.m.m.m.m.m.` ` ` ` } 4 x %   o + o a x.x.x.z.s.x.l.l.l.z.Z Z a # + O * +     &.` ` ` ` ` ` ` ` ` ` ` ` ` ` ` ` ",
"` ` ` ` ` ` ` ` m.m.m.m.m.` ` ` ` ` ` ` ` O.o O y e = o   X   X X   O , e e 8 8 W E Q E u . o &.` ` ` ` ` ` ` ` ` ` ` ` ` m.` m.",
"` ` ` ` ` ` ` ` m.m.m.m.` m.` ` ` ` ` ` ` O.  . e 7 *   .           & y , e 7 6 i w i E 9 O o *.` ` ` ` ` ` ` ` ` ` ` ` ` ` ` ` ",
"` ` ` ` ` ` ` ` ` ` m.` ` ` ` ` ` ` ` ` ` } V.D.& + O.&.B.D.B.V.D.V.O.+ = y q i i w 5 = r F.V._ ` ` ` ` ` ` ` ` ` ` ` ` ` ` ` ` ",
"` ` ` ` ` ` ` ` ` m.` ` m.` m.` ` ` ` ` ` ` _ _ % X &.` ` ` ` ` ` _ D.. O t q i i K = . 2 ` ` ` ` ` ` ` ` ` ` ` ` ` ` ` ` ` ` ` ",
"` ` ` ` ` ` ` ` ` ` ` m.` ` ` ` ` ` ` ` ` ` ` _ o # &.` ` ` ` ` ` ` F.# & 9 u u u q & & 4 ` ` ` ` ` ` ` ` ` ` ` ` ` ` ` ` ` ` ` ",
"` m.` ` ` ` ` ` ` m.` ` ` ` m.` m.` ` ` ` ` ` ` ' ' ` ` ` ` ` ` ` ` ` ` | x . o . O H.' } ` ` ` ` ` ` ` ` ` ` ` m.` m.` ` ` ` ` ",
"` ` ` ` ` ` ` ` ` ` ` m.` m.` ` m.m.M.` ` ` ` ` ` ` ` ` ` ` ` ` ` ` ` ` ` x     o   ) ` ` ` ` ` ` ` ` ` ` ` ` ` ` ` ` ` ` ` ` ` ",
"` m.` m.` ` ` ` ` ` m.` ` ` ` m.m.m.m.m.` ` ` ` ` ` ` ` ` ` ` ` m.m.m.m.' &.O.O.{ O.) ` ` ` ` ` ` ` ` ` ` ` m.` m.` m.` m.` ` ` ",
"` ` ` ` ` m.` m.` ` ` ` m.` m.m.m.m.m.m.` ` ` ` ` ` ` ` ` ` ` m.m.m.m.m.` ` ` ` ` ` ` ` ` ` ` ` ` ` ` ` ` ` ` ` ` ` ` ` ` m.` m.",
"` m.` m.` ` ` ` m.` m.` ` m.m.m.m.m.m.m.` ` ` ` ` ` ` ` ` ` m.` m.m.m.m.m.` ' ` m.` ` m.` m.` ` ` ` ` ` ` ` ` m.` m.` m.` ` ` ` "
};
