/* XPM */
static char *_0003_73c5d231b5445a2d86c14a277039611aa6e30330a2eefa35a03d5e781b8fb6bc[] = {
/* columns rows colors chars-per-pixel */
"64 64 152 2 ",
"   c #1D1E1C",
".  c #251E16",
"X  c #211D1B",
"o  c #1D2216",
"O  c #17241A",
"+  c #1B231C",
"@  c #162B1C",
"#  c #1B2A1C",
"$  c #1C331E",
"%  c #1D3E1D",
"&  c #232115",
"*  c #2F2514",
"=  c #24221C",
"-  c #2B251C",
";  c #212B1D",
":  c #2C291C",
">  c #32271B",
",  c #362C1D",
"<  c #382E19",
"1  c #22321D",
"2  c #233A1F",
"3  c #37311D",
"4  c #39321F",
"5  c #1D1E21",
"6  c #201D21",
"7  c #1D2521",
"8  c #1C2D22",
"9  c #153626",
"0  c #1C3322",
"q  c #153D24",
"w  c #1C3C24",
"e  c #193528",
"r  c #143A2A",
"t  c #1A3B2A",
"y  c #2D2520",
"u  c #212D21",
"i  c #342D22",
"p  c #223323",
"a  c #2C3322",
"s  c #223B24",
"d  c #2A3D27",
"f  c #23342A",
"g  c #243C2B",
"h  c #353224",
"j  c #3B3323",
"k  c #3E3926",
"l  c #35312A",
"z  c #3C3529",
"x  c #3E3829",
"c  c #263D34",
"v  c #4D3E1F",
"b  c #423625",
"n  c #443A25",
"m  c #4D3E24",
"M  c #433729",
"N  c #443C2B",
"B  c #4A3E29",
"V  c #513F23",
"C  c #20471F",
"Z  c #144221",
"A  c #1F4724",
"S  c #1E4925",
"D  c #1F422C",
"F  c #1E4C29",
"G  c #1F532E",
"H  c #154633",
"J  c #1C4431",
"K  c #154D34",
"L  c #194D32",
"P  c #165131",
"I  c #1F5631",
"U  c #1E5832",
"Y  c #17553C",
"T  c #1A5439",
"R  c #14593B",
"E  c #1A593B",
"W  c #214625",
"Q  c #204825",
"!  c #244429",
"~  c #214D2A",
"^  c #22522E",
"/  c #254237",
"(  c #214A31",
")  c #254238",
"_  c #22483B",
"`  c #215631",
"'  c #215833",
"]  c #205539",
"[  c #18613B",
"{  c #4E401F",
"}  c #51401E",
"|  c #444325",
" . c #4C4024",
".. c #47402B",
"X. c #4A412A",
"o. c #534324",
"O. c #594625",
"+. c #574927",
"@. c #5C4925",
"#. c #534429",
"$. c #5B472B",
"%. c #574A2B",
"&. c #5D4C2B",
"*. c #484433",
"=. c #544730",
"-. c #504A32",
";. c #584B32",
":. c #624D26",
">. c #604D2C",
",. c #63522D",
"<. c #6B552E",
"1. c #6B582E",
"2. c #745C2E",
"3. c #645332",
"4. c #6B5633",
"5. c #655A37",
"6. c #6B5A33",
"7. c #62553A",
"8. c #6E5D3B",
"9. c #725D32",
"0. c #755C3A",
"q. c #7A6234",
"w. c #175F43",
"e. c #1B5C43",
"r. c #2C5445",
"t. c #235F41",
"y. c #166445",
"u. c #1B6445",
"i. c #166847",
"p. c #176D4C",
"a. c #196B4A",
"s. c #17724E",
"d. c #18724E",
"f. c #177551",
"g. c #187652",
"h. c #187954",
"j. c #226644",
"k. c #257145",
"l. c #217552",
"z. c #237A52",
"x. c #675742",
"c. c #705F45",
"v. c #856F3F",
"b. c #856C41",
"n. c #8C7547",
"m. c #8D754B",
"M. c #8F7948",
"N. c #957D4D",
"B. c #8B7651",
"V. c #967D50",
"C. c #1F8259",
"Z. c #948050",
/* pixels */
"h.h.h.h.h.h.h.h.h.h.h.h.h.h.h.h.h.h.h.h.h.h.h.h.g.a.r r r 9 H K T T T K H r g.z.z.z.h.h.h.h.h.h.h.h.h.h.h.h.h.h.h.h.h.h.h.h.h.h.",
"C.h.C.h.C.h.C.h.C.h.C.h.h.h.h.h.h.h.h.h.h.s.g.r # + + ! W ~ W W D ! ! W g 7 O + P s.g.h.h.h.h.h.h.h.h.h.h.h.h.h.h.h.h.h.h.h.h.h.",
"h.h.h.h.h.h.h.h.h.h.h.h.h.h.h.h.g.h.h.h.h.F 8 u # W Q F ( ` ' I U ` ` F S C 0 $ 0 + j.h.h.h.h.h.h.h.h.h.h.h.h.h.h.h.h.h.h.h.h.C.",
"h.C.h.C.h.C.h.h.C.h.C.h.h.h.h.h.d.E E T F u ! S Q ~ I I ` ` ` ' ` ` ` ` ` ^ S S W s 7 ] ' T E g.h.h.h.h.h.h.h.h.h.h.h.h.h.C.h.h.",
"h.h.h.h.h.h.h.h.h.h.h.h.h.h.f.Z @ +   o # W Q Q ^ ` ` ^ ~ F A A A S S ^ ` ` ` ^ A A ! O + O O w [ h.h.h.h.h.h.h.h.h.h.h.h.h.h.C.",
"C.h.C.h.h.h.h.h.h.C.h.C.h.f.w 6 $ W W ! W A Q ` ` ^ ^ S A A A W A Q W S Q ` ` ` ~ S W W W ! ! # = u.h.h.h.h.h.h.h.h.h.h.h.C.h.h.",
"h.h.h.h.h.h.h.h.h.h.h.h.g.~   0 S Q S F F I ` ^ ` ^ Q C A A Q W Q A S Q S ~ ^ ` ' ` F F F A W W 0 + i.h.h.h.h.h.h.h.h.h.h.h.h.C.",
"h.C.h.h.h.h.h.h.h.h.h.C.a.  p W S F ^ ` I ` ` ^ G S W C S F ` ^ ^ ^ S S Q Q F F ' ' I ` I G F W A 8 # h.h.h.h.h.h.h.h.h.h.h.h.h.",
"h.h.h.h.h.h.h.h.h.h.h.f.0   ! A F ` ` ` I ` F A A W W Q ^ ` ` I G I ^ ^ S S Q S S ~ ^ ` I ' ` Q W w   L h.h.h.h.h.h.h.h.h.h.h.h.",
"C.h.C.h.h.h.h.h.h.h.s.@   w A A ` ` ` ' G S A W W W ~ ` ` ` ^ ^ ^ ` ' ^ G Q W W A S S ^ ` ' I ^ A W + X I h.h.h.h.h.h.h.h.h.h.h.",
"h.h.h.h.h.h.h.h.h.f.0   + A A G ` ` ` ^ S A A A A F ` ` ` ^ Q A A S ^ ` ` ~ S S A Q Q S ` ' U ` Q Q $ + + ] h.h.h.h.h.h.h.h.h.h.",
"h.C.C.h.h.h.h.h.s.0   s s A ^ ^ ' ` ^ ~ S S A A ~ ` ' ^ F Q W W A S Q ^ ` ^ ^ ^ A W W Q ~ ' ' ' ^ F W p p   L h.h.h.h.h.h.h.h.h.",
"C.C.C.C.h.h.h.h.u.6 ! Q A F ` I U ` Q Q W A S ^ ^ I ^ Q Q Q ^ ` ^ G S S ^ ^ I ` ^ A W W S ^ ` ` ^ ^ Q S A p + f.h.h.h.h.h.h.h.h.",
"C.C.C.C.h.h.h.d.# + W S A ^ I I ` S S Q A A ^ I I I S Q Q ^ ` ` I ^ Q Q S ^ I I ^ A S W W A ` ` I ` G Q A $ + q h.h.h.h.h.h.h.h.",
"C.C.C.C.h.h.h.u.+ 2 A A F ` ` I ` Q A A A A ` ` ` ` F W Q ' ^ ` ` I ` Q C ^ G ` ` S A S A A Q ` I I ^ A Q A p O f.h.h.h.h.h.h.h.",
"C.C.C.C.h.h.h.O p Q C Q ^ I ` I ^ A A A A A ` ' I ` A W F ` ` ` I U ` S W ^ ^ I ` ^ S Q A A A ^ I I ` ^ A W W + L h.h.h.h.h.h.h.",
"h.C.h.C.h.h.R # A A W A ` I ` ^ F A A A A A ^ ` I ' F A A F ` ` ` ` Q Q Q G ` ` ` ~ A C A A S S ` ' G ' S C W g # a.h.h.h.h.h.h.",
"C.h.h.h.h.h./ = W ! A ^ I G ` ` A A A A A A ^ ` ` ` F A A F ~ ^ ^ F Q W Q ^ I ` ` S S S A Q S S ` ' ' ' ^ W C W   u.h.h.h.h.h.h.",
"h.h.C.h.C.h.c O W A A ` ` ' ` ` A A A A W S A ^ ` ` ` A A A A D S S S C Q ` I ` Q A C S S W W S ' U G I ^ W W !   e.h.h.h.h.h.h.",
"h.h.h.h.h.h.c # W S A ' I ` U F S A A A S W Q A ^ ` ^ ^ A A A S A A S S ^ ` ` S A Q W A A A W S ~ ` I U ^ W W !   e.h.h.h.h.h.h.",
"h.h.h.h.h.h.c + W A A ' ' I ' A Q A A W W A C C ~ ` ` ^ ~ A A A A A S G ` ` ` S Q W Q A A A W Q S ' I U ^ A W ! + e.C.h.h.h.h.h.",
"h.h.h.h.h.h.c # ! S A I ' I ` F W W A A S A A A A ^ ` I ` ` F F F ^ ` ` ` I S A S Q A A S W C W S ' ` ` ^ A W !   e.h.h.h.h.h.h.",
"h.h.h.h.h.h.c + W W S ` I ` ` A A A A A A W A A A ~ ` ` ` I ' ` ` ` ` I ` ^ A A W A C A S A Q Q ~ I ` I G A A ! O e.h.C.h.h.C.h.",
"h.h.h.h.h.h./ + W D S ` I I I A A A S A C A A A W W ~ ` ' I ` ` I I I ^ G A A A S A A A W S C Q S ' I ` ` A A !   e.h.h.h.h.h.h.",
"h.h.h.h.h.h./ + W W A ' I ` ` ^ S S A A A S W S W S A Q ^ ` ` ` ` G ^ ^ A A A A A A W A A A Q S ` I ` ` ^ A W !   u.h.C.h.h.h.h.",
"h.h.h.h.h.h./ + Q Q A F ` I ` ` S A A A A A A A A A Q S S ~ ^ ^ ' ^ ~ A A A A A A A S C A C S S ` ` ` ` A W A !   e.h.h.h.h.h.h.",
"h.h.h.h.h.h.) O S S S A ^ G ` ` ^ A A A W A W S A A A A W A W W C Q W W Q A A Q A A S W S S S ` ` ` ' ^ A W W !   e.C.h.h.h.h.h.",
"h.h.h.h.h.h._ + W A S A F ( I I ` ^ G F W W A S A C S W A S A A Q S A A A A A A S W A W A G ^ ` ` ^ F A W W W !   E h.h.h.h.h.h.",
"h.h.h.h.h.h.E o $ A A A A A ` I I ` ` ^ ~ F A S C A A A S C W A A W W W A A A A A A A ^ ` I ` ` ^ ~ Q W A S ! O   u.h.h.h.h.h.h.",
"h.h.h.h.h.h.s.  8 A A A A A S I I ` ` ` ` ` S S W W A W A A A A A A A A A A F A A ^ ` ` ` ` ` ` ^ A Q A A A ! O L h.h.h.h.h.h.h.",
"h.h.h.h.h.h.h.# u A A A A A A S ` I ` I ` ' ` S S Q W A A W A A A A A A A W A A ~ ` ` ` I ` I ' A A A A A A w + T h.h.h.h.h.h.h.",
"h.h.h.h.h.h.h.y.  s A A A A A A ^ ` I ` ` ' ` ^ ~ S S A S A A A A A A A A A F G ` ^ ` ` ` I I F A W F A A A 7 # s.h.h.h.h.h.h.h.",
"h.h.h.h.h.h.h.d.  s W A W S W A ~ ` ` ` ` I ' ' I F A A S C S S A A A A A A ^ ` I ` I ` I ] ` A W A A F A A 7 r h.h.h.h.g.h.h.h.",
"h.h.h.h.h.h.h.d.0 5 ! A S A W W W ~ ^ ` ` ` I I I I F A A Q W A A S A A F ^ ` I ` ` ` ` ' ` A A W A W A A 0   P h.h.h.h.h.h.h.h.",
"h.h.h.h.h.h.h.h.i.  p W S W A W W A L ` ` I ` ' ' I ` ^ S G F F S F F ~ ^ ` ^ ` I ` ` ` ` ~ W W W A A A W u + g.h.h.h.h.h.h.h.h.",
"h.h.h.h.h.h.h.h.f.D   8 ! S W W A A S ~ ` ` U ' I ' ` ` I G ` ` ` ' ' ' ` ` ` I ` ` ' ` ~ W A A A A A W ;   t.h.h.h.h.h.h.h.h.h.",
"C.h.h.h.h.h.h.h.h.R     $ S A A A A A A A A ` ' ' ' ` ` ` ` ` I I ' ` I ` ' ` ` ` G A A A A S S W A ! # 6 O s.g.h.h.h.h.h.h.h.h.",
"C.C.C.C.h.h.h.h.h.h.A   5 p W A S A W W A W A A S ~ ` ` I ` I ` ' I ` ` ` ^ Q C A A W W W A W A W W +   + a.h.h.h.h.h.h.h.h.h.h.",
"C.C.C.C.C.h.h.h.h.h.k.@ X   p W S S A A W W W W W W D ~ ^ I ` I I I ` ` ~ S Q Q W A W W W A W A s u     I h.h.h.h.h.h.h.h.h.h.h.",
"C.C.C.C.C.h.h.h.h.h.E 1 z 6 + W W W W A A W S A A A A A ^ ^ I I ` ` ~ ~ A S C Q A A W A W W S A s + X *.t f.h.h.h.h.h.h.h.h.C.h.",
"C.C.C.C.C.C.h.h.h.h.% 5.x.X + W W A W A A W A A A A W W C S A S F F A A A W S W A A A A S A S W g   o m.-.[ h.h.h.h.h.h.h.h.h.h.",
"C.C.C.C.C.C.h.h.h.` 5.M.%.+ 5 O W C W A A A A A S W S A W A W W A A A A S W A A S W A C A A W s o + X 0.m.{ p.h.h.h.h.h.h.h.C.h.",
"C.C.C.C.C.h.h.h.i.x 9.2.=.5 X   8 s W W A W A A S A A W A A A S S S A S Q A A W W Q A A A w g O       6.q.&.# g.h.h.h.h.h.h.h.h.",
"C.C.C.C.h.C.h.h.s.a +.&.N       5   u u $ 8 0 $ $ s W W C A A A ! W ! W W Q $ u $ 0 ; $ 8 7       5   ;.@.| 2 h.h.h.h.h.h.h.C.h.",
"h.C.h.C.h.h.h.h.h.y.; = 6 5 5   5 X           X 6 + # ! W W W A A A W A s O 5 5           X     5 6 5 = = D p.h.h.h.h.h.h.h.h.h.",
"h.h.C.h.h.h.C.h.h.h.g.L t e +   5 h X.M > B B N & X   + o   + +     + & = 5 X * B m B & ..N y X   7 e t w.h.h.h.h.h.h.h.C.h.C.h.",
"h.C.h.h.C.h.h.h.C.h.h.h.h.h.w.= 6   x z * n v 4.4.4 . x b : - - = - * ..l = o.9.>. .x . x : X 5 8 s.h.h.h.h.h.h.h.h.h.h.h.h.h.C.",
"h.h.h.h.h.h.C.h.h.C.h.h.h.h.h.+ = j i j : x m } 3.,.j - o.o.m m  .m ;. .= X.9.:.V  .- l h j l X T h.h.h.h.h.h.C.h.C.h.C.h.C.h.h.",
"h.h.h.h.h.h.h.C.C.C.C.C.h.h.h.$ #.6.6.4.m , B m V <.6..  .,.o.m  .>.+.N < 6.@.m m < x { 6.6.6.M K h.h.h.h.h.h.h.h.h.h.h.h.h.C.h.",
"h.h.h.h.h.h.h.h.C.C.C.C.h.h.h.t N m 4.9.,.m * B m V 6.n : ,.o.m  .,.o.& %.:.m m j j  .9.9.>.m N E g.h.h.h.h.h.h.h.h.C.h.C.h.h.h.",
"h.h.h.h.h.h.h.h.C.C.C.C.h.h.h.J * j m 4.9.$.m . m m 3.N - b b M M M M & #.$.X.| * m 6.9.>.n > - Y h.h.h.h.h.h.h.h.h.h.h.h.C.h.C.",
"h.h.h.h.h.h.h.h.C.C.C.C.C.h.w.j  .j < X.,.@.m . m { B i = 3 j 4 3 j i X j m m B :  .6.:.n < B B d p.h.h.h.h.h.h.h.C.h.h.C.h.h.h.",
"h.h.h.h.h.h.h.h.C.C.C.C.h.I k 4.,.m b * o.V B & , ..: & n  .m v m m m M . j B = : V o.m > n  .6.3.a a.h.h.h.h.h.h.h.h.h.h.h.C.h.",
"h.h.h.h.h.h.h.h.C.C.C.C.z.b B.N.n.@.m = B m B 5 6 . X ..V ,.9.9.9.9.O.m z X X 5 - B B N *  .6.V.N.8.f h.h.h.h.h.h.h.h.h.h.h.h.h.",
"h.h.h.h.h.h.h.h.C.C.C.C.l.c.V.M.b.+.B X = M & t H 7 & X.O.3.<.<.4.<.4.V x   8 t e i M X :  .4.M.M.Z.h h.h.h.h.h.h.h.h.h.h.C.h.C.",
"h.h.h.h.h.h.h.h.C.C.C.z.a.7.v.2.1.o.,   + / i.h.h.Y X X.v v i i i , n m z X i.h.h.w.0 5 = b @.9.q.b.a h.h.h.h.h.h.h.g.h.h.h.h.h.",
"h.h.h.h.h.h.h.h.h.h.C.h.d.. B #.V > X r p.h.h.h.h.h.K - M 4 b b b M > ..; E h.h.h.h.h.i.O = N #.#.b + h.h.h.h.h.h.h.h.h.h.h.h.h.",
"h.h.h.h.h.h.h.h.h.C.h.h.z.r.c f f f / f.h.h.h.h.h.h.h.w :  .6.9.9.&.N & Y h.h.h.h.h.h.h.i.f f f f f r.h.h.h.h.h.h.h.h.h.h.h.h.h.",
"h.h.h.h.h.h.h.h.h.h.h.C.h.h.h.h.h.h.h.h.h.h.h.h.h.h.h.i.: o.2.N.M.:. .= i.h.h.h.h.h.h.h.h.h.h.h.h.h.h.h.h.h.h.h.h.h.h.h.h.h.h.h.",
"h.C.h.h.h.h.h.h.h.C.h.h.h.h.z.h.C.h.h.h.h.h.h.h.h.h.h.s.: ,.2.v.q.2.#.# h.h.h.h.h.h.h.h.h.h.h.h.h.h.h.h.h.h.h.h.C.h.C.h.h.h.h.h.",
"h.h.h.h.h.h.h.h.h.h.h.C.h.C.h.h.C.C.C.h.h.h.h.h.h.h.h.h.8 n 9.2.9.>.> w h.h.h.h.h.h.h.h.h.h.h.h.h.h.h.h.h.h.h.h.h.h.h.h.h.h.h.h.",
"h.C.h.C.h.h.h.h.h.h.C.h.h.h.h.C.C.C.C.C.h.h.h.h.h.h.h.h.e.j v 8.4.m = h.C.h.h.h.h.h.h.h.h.h.h.h.h.h.h.h.h.h.C.h.C.h.C.h.C.h.h.h.",
"h.h.h.h.h.C.h.C.h.h.h.h.C.h.C.C.C.C.C.C.h.h.h.h.h.h.h.h.p.+ x b k y t C.h.h.h.h.h.h.h.h.h.h.h.h.h.h.h.h.h.h.h.h.h.h.h.h.h.C.h.C.",
"h.C.h.C.h.h.h.h.C.h.C.h.h.C.C.C.C.C.C.C.h.h.h.h.h.h.h.h.h.y.+     g g.C.C.h.C.h.C.h.h.C.h.C.h.h.h.h.h.h.h.h.h.C.h.C.h.C.h.h.h.h."
};
