/* XPM */
static char *_8634_ea7f98cab4072caa5fca74e2dba279bf027d6f0e1f0760d5493dd0e3dc76206d[] = {
/* columns rows colors chars-per-pixel */
"64 64 38 1 ",
"  c #187954",
". c #187355",
"X c #787D90",
"o c #54576B",
"O c #196559",
"+ c #5B5F73",
"@ c #3E3E50",
"# c #187A54",
"$ c #1A5E5A",
"% c #7A7F92",
"& c #6C6F83",
"* c #1A6159",
"= c #364651",
"- c #215858",
"; c #4B4C5E",
": c #434355",
"> c #454759",
", c #1C7F57",
"< c #85879D",
"1 c #606578",
"2 c #918FA8",
"3 c #9C99B2",
"4 c #1E8258",
"5 c #334C51",
"6 c #4F5164",
"7 c #196C57",
"8 c #3C3D4E",
"9 c #72768A",
"0 c #1F6953",
"q c #666A7E",
"w c #2D5353",
"e c #207053",
"r c #1F7959",
"t c #2A6354",
"y c #555E6F",
"u c #42565E",
"i c #808398",
"p c #3B7969",
/* pixels */
"           #,,##,,#                                             ",
"###        #,,##,,#                                             ",
",,#        ###  ##                                              ",
"4,#               ##                                            ",
"4,#              #,,#                                           ",
",,#              #,,#  ###########                              ",
"##               ###   ###########                              ",
"                  ### e0000000000e #####  ##                    ",
"                  ##,ew5555555555we###,,##,,#                   ",
" ####             eeetu;;;;;;;;;;ut00e,4,,44,###                ",
" #,,#          ##ew55u1&&&&&&&&&&1u55wr44,44,,,,#               ",
" #,,#          ##05@>o&%%%%%%%%%%9o>@=tr44444444,#              ",
" ####          ##05>+9X%%%%%%%%%%X&+>8=tr44444444,#             ",
"              # etuo9%%XXXXXXXXXX%<9o:>utr,444444,#             ",
"             ##ewu1&X%%%X%X%X%XXXi2<qoo6uwr44444,##             ",
"             .et=69<%XXXXXXXXXX%i<2<q+o6:=tr444,# ..  ..        ",
"           ##ew=8oi2iXXXXXXXXXXi22Xq1o;:@@=tr4,##.77..77.       ",
"           ##05@:o%2<<<<<<<<<<<<2<q++o;>>:@50r...7OO77*O.#      ",
"           ##05:6yqX233333333332Xq++++ooo6:=-OOOOO**OO*O.#      ",
"      .. ## etuo+11&<2222222222iqy+++++++o>=w---------$O.## ..  ",
"     .77.##ewu1&9999&&&&&&&&&&&q+++++++++o>8=========5-O.##.77. ",
"     .O*7..05;&%%%%9q1111111111111+++++++y6;:@@@@:;;>=-O7..7*O. ",
"     .O**OO-=;&%%%%X9999999999999&1++++++1q1;8888;1q+u-*OOO**O.#",
"  ###.O$$$$-=;&%%XXX%%%%%%%XXX%%%91+++111q&1;@::@;&X&yu-$$$$$O.#",
" #,44rO$$$*-=;&%%X%XX%%%%%%XX%%%%91+y1&9X&o;::66:;&%Xqu5-$$$$O.#",
"#,44,.O$$$-w=;&%%XX%XXXXXXXXXXX%i%&11qXX91>88>oo>;q9Xq;=-O*$$*7.",
",44r7O*$*-5=8;&%%X%XXXXXXXXXXXXi22%99X%9y>:88>oo>>+qq+>507O$$$*O",
"444rO*OO-w=:6+9XXXXXX%i<<<<<<<<<2<9&&&&1>88@:;yo>:6oo6:=t0**OO*$",
"444rOOrew=86X<iXXXXXXi2333333332X1o;;;;;:88:6y+o>@:>>:@@=w-O..O$",
"r,4rOOre5886X2<<<<<<<<222222222%qo:88@@8@:>6y++o>@@@::@@@=-O  O$",
"O7,rO7re5@@:6q<3333332X&&&&&&q+o+o>8@@@88;1q1++o>@8:66:@@=-O  O$",
"$O..OOre5@@8869<<<222<qyy++yo6>>66:@@@@@:o&X&1q+>88>oo>@@=w*..O$",
"$*OO**O-=@@@8:6oo+q&&q1++++o;>66;:@@@@@:619%X99q;88>oo>@@@=w*O*$",
"OO*$$$*-=@@@@@888:o+++++++o6;;66:8@@:>>;6+&9&&&1;@:;oo>@@@@=-*OO",
"r.O$$$$-=@@@@@@88:o++++++o;;66;:@88:6oo6;;++6;;;::6o+o>@@@@=-O77",
"4rO*OO*-5=@@@@@@@>o++++++o::66:@;;;6y++o;;oo;:@8@>o++o>@==@=-O..",
"4rOO..O$-w=@@@@@@>o+++++1o>@::@>1&&q1+++ooy+o6:8@>o+1o>=tt==-O..",
"4rOOr,O$-w=@@@@@@:6oooooo6:88@>o9%%9q1+++++++o>@8>o+y6:500w5-O77",
"4rOOrrO-5=@@@@@@@@:>>>::::@88>19X%%X9&1++++++o>88>oy;:@507*-$**O",
"4r77rrO-w=>>>>>>>>>>:>;;;;;;;o9%%XXX%9q11111+o>@:;66:@@=07O$$$$$",
"# ..OO**0tuooooooooooyq&&&&&&&X%XXXXXX99999&1o::6o;:@@@=-O*$$$$$",
"  #.O$$O ry+++++++++1qX%%%%%%%XXXXX%i<<<<<<%&+;;66:8==@=-$$$$$$$",
"  #.O$$O ry++++++++1&9X%%%%%%%X%XXXi23333332%&+6;:@=tt==-*$$$$$$",
"  #.O$$O.euoyy111q&9ii%XXXXXXXXXX%i233333332<9+6:@@5005=-$$$$*OO",
"  #.O$$*O-5utp&99%<232iXXXXXXXXXXi2333332<<<i&o:@@@5005=-$$$$O7.",
"  #.O$$$$-=5er1&9%<3332<<<<<<<<<i2332<<i9&&&&1;85=@=tt55-*OOO7.#",
"  #.O$$$$-=5eeu6+q&%3333333333333332qooo;uppu;:5tt=@=5w-$*7... #",
"   .7OOO*-5we w56oyq%<<<22222222222%68==85ee5@@5eew==5-*O7.##   ",
"    ...7*$-* #et5;oypppp&&&&&&&&&&91;=tt=5ee5@@5e *---$O7. #    ",
" ######.7OO7.  0w>6ue.0tuoy+++++++o6:=t05w00w==w0.O*OOO7.#      ",
" #,,#   ....7OO*-w>500w=:;o++++++o;:@@=w--**----*O*O7...        ",
" #,,#    ##.7OOO*-5w00w==>6oyyooyu5====5-*$$$$*$$$*7.##         ",
" ####    ## ...7O$--**---w>uttuute------$$$$$$$$$*7.            ",
"             ##.7OOO*$$**-5w00wwe O$$$**$$$*OO***7.#            ",
"              # ...7*$$$$$--**-*  O$$$$$$$$O..O*7.              ",
"                 ##.7OOOOO*$$$$O..O*OO*$$*O7  77.               ",
"                  # .....7O$$$$*OO*O..O$$O.r# ..                ",
"                     ####.7OOOOOOOO7##7OO7r,#                   ",
"                        # ......... ,4rr.. ##                   ",
"                             ######,,44,#                       ",
"                             #,,##,,,####                       ",
"                             #,,##,,#                           ",
"                             #######                            ",
"                                                                "
};
